G75*
G70*
%OFA0B0*%
%FSLAX24Y24*%
%IPPOS*%
%LPD*%
%AMOC8*
5,1,8,0,0,1.08239X$1,22.5*
%
%ADD10C,0.1340*%
%ADD11C,0.0640*%
%ADD12OC8,0.0680*%
%ADD13C,0.0556*%
%ADD14C,0.0600*%
%ADD15R,0.0595X0.0595*%
D10*
X004669Y001910D03*
X049882Y001910D03*
X049882Y033123D03*
X004669Y033123D03*
D11*
X040776Y027297D02*
X040776Y026737D01*
X041776Y026737D02*
X041776Y027297D01*
X042776Y027297D02*
X042776Y026737D01*
X043776Y026737D02*
X043776Y027297D01*
X043776Y025297D02*
X043776Y024737D01*
X042776Y024737D02*
X042776Y025297D01*
X041776Y025297D02*
X041776Y024737D01*
X040776Y024737D02*
X040776Y025297D01*
X040776Y023297D02*
X040776Y022737D01*
X041776Y022737D02*
X041776Y023297D01*
X042776Y023297D02*
X042776Y022737D01*
X043776Y022737D02*
X043776Y023297D01*
X043996Y011017D02*
X044556Y011017D01*
X044556Y010017D02*
X043996Y010017D01*
X043056Y010017D02*
X042496Y010017D01*
X042496Y011017D02*
X043056Y011017D01*
D12*
X039276Y011017D03*
X038276Y011017D03*
X037276Y011017D03*
X036276Y011017D03*
X036276Y010017D03*
X037276Y010017D03*
X038276Y010017D03*
X039276Y010017D03*
X039276Y006017D03*
X038276Y006017D03*
X037276Y006017D03*
X036276Y006017D03*
X036276Y005017D03*
X037276Y005017D03*
X038276Y005017D03*
X039276Y005017D03*
X043776Y005017D03*
X044776Y005017D03*
X045776Y005017D03*
X046776Y005017D03*
X047776Y005017D03*
X047776Y006017D03*
X046776Y006017D03*
X045776Y006017D03*
X044776Y006017D03*
X043776Y006017D03*
X031276Y006017D03*
X030276Y006017D03*
X029276Y006017D03*
X029276Y005017D03*
X030276Y005017D03*
X031276Y005017D03*
X031276Y010017D03*
X030276Y010017D03*
X029276Y010017D03*
X029276Y011017D03*
X030276Y011017D03*
X031276Y011017D03*
X023276Y011017D03*
X022276Y011017D03*
X021276Y011017D03*
X021276Y010017D03*
X022276Y010017D03*
X023276Y010017D03*
X023276Y006017D03*
X022276Y006017D03*
X021276Y006017D03*
X021276Y005017D03*
X022276Y005017D03*
X023276Y005017D03*
X016776Y005017D03*
X015776Y005017D03*
X014776Y005017D03*
X013776Y005017D03*
X013776Y006017D03*
X014776Y006017D03*
X015776Y006017D03*
X016776Y006017D03*
X016776Y010017D03*
X015776Y010017D03*
X014776Y010017D03*
X013776Y010017D03*
X013776Y011017D03*
X014776Y011017D03*
X015776Y011017D03*
X016776Y011017D03*
X009276Y011017D03*
X008276Y011017D03*
X007276Y011017D03*
X006276Y011017D03*
X006276Y010017D03*
X007276Y010017D03*
X008276Y010017D03*
X009276Y010017D03*
X009276Y006017D03*
X008276Y006017D03*
X007276Y006017D03*
X006276Y006017D03*
X006276Y005017D03*
X007276Y005017D03*
X008276Y005017D03*
X009276Y005017D03*
X009276Y024017D03*
X008276Y024017D03*
X007276Y024017D03*
X006276Y024017D03*
X006276Y025017D03*
X007276Y025017D03*
X008276Y025017D03*
X009276Y025017D03*
X013776Y025017D03*
X014776Y025017D03*
X015776Y025017D03*
X016776Y025017D03*
X016776Y024017D03*
X015776Y024017D03*
X014776Y024017D03*
X013776Y024017D03*
X013776Y029017D03*
X014776Y029017D03*
X015776Y029017D03*
X016776Y029017D03*
X016776Y030017D03*
X015776Y030017D03*
X014776Y030017D03*
X013776Y030017D03*
X009276Y030017D03*
X008276Y030017D03*
X007276Y030017D03*
X006276Y030017D03*
X006276Y029017D03*
X007276Y029017D03*
X008276Y029017D03*
X009276Y029017D03*
X021276Y029017D03*
X022276Y029017D03*
X023276Y029017D03*
X023276Y030017D03*
X022276Y030017D03*
X021276Y030017D03*
X028776Y025017D03*
X029776Y025017D03*
X030776Y025017D03*
X031776Y025017D03*
X032776Y025017D03*
X032776Y024017D03*
X031776Y024017D03*
X030776Y024017D03*
X029776Y024017D03*
X028776Y024017D03*
D13*
X024776Y025517D03*
X023276Y025517D03*
X021776Y025517D03*
X021776Y022517D03*
X023276Y022517D03*
X024776Y022517D03*
X037776Y023517D03*
X039276Y023517D03*
X039276Y026517D03*
X037776Y026517D03*
X046276Y012017D03*
X047776Y012017D03*
X049276Y012017D03*
X049276Y009017D03*
X047776Y009017D03*
X046276Y009017D03*
D14*
X043776Y014257D02*
X043776Y014777D01*
X042776Y014777D02*
X042776Y014257D01*
X041776Y014257D02*
X041776Y014777D01*
X040776Y014777D02*
X040776Y014257D01*
X039776Y014257D02*
X039776Y014777D01*
X038776Y014777D02*
X038776Y014257D01*
X037776Y014257D02*
X037776Y014777D01*
X036776Y014777D02*
X036776Y014257D01*
X035776Y014257D02*
X035776Y014777D01*
X034776Y014777D02*
X034776Y014257D01*
X033776Y014257D02*
X033776Y014777D01*
X032776Y014777D02*
X032776Y014257D01*
X031776Y014257D02*
X031776Y014777D01*
X030776Y014777D02*
X030776Y014257D01*
X029776Y014257D02*
X029776Y014777D01*
X028776Y014777D02*
X028776Y014257D01*
X027776Y014257D02*
X027776Y014777D01*
X026776Y014777D02*
X026776Y014257D01*
X025776Y014257D02*
X025776Y014777D01*
X024776Y014777D02*
X024776Y014257D01*
X021776Y014257D02*
X021776Y014777D01*
X020776Y014777D02*
X020776Y014257D01*
X019776Y014257D02*
X019776Y014777D01*
X018776Y014777D02*
X018776Y014257D01*
X017776Y014257D02*
X017776Y014777D01*
X016776Y014777D02*
X016776Y014257D01*
X015776Y014257D02*
X015776Y014777D01*
X014776Y014777D02*
X014776Y014257D01*
X013776Y014257D02*
X013776Y014777D01*
X012776Y014777D02*
X012776Y014257D01*
X011776Y014257D02*
X011776Y014777D01*
X010776Y014777D02*
X010776Y014257D01*
X010776Y020257D02*
X010776Y020777D01*
X011776Y020777D02*
X011776Y020257D01*
X012776Y020257D02*
X012776Y020777D01*
X013776Y020777D02*
X013776Y020257D01*
X014776Y020257D02*
X014776Y020777D01*
X015776Y020777D02*
X015776Y020257D01*
X016776Y020257D02*
X016776Y020777D01*
X017776Y020777D02*
X017776Y020257D01*
X018776Y020257D02*
X018776Y020777D01*
X019776Y020777D02*
X019776Y020257D01*
X020776Y020257D02*
X020776Y020777D01*
X021776Y020777D02*
X021776Y020257D01*
X024776Y020257D02*
X024776Y020777D01*
X025776Y020777D02*
X025776Y020257D01*
X026776Y020257D02*
X026776Y020777D01*
X027776Y020777D02*
X027776Y020257D01*
X028776Y020257D02*
X028776Y020777D01*
X029776Y020777D02*
X029776Y020257D01*
X030776Y020257D02*
X030776Y020777D01*
X031776Y020777D02*
X031776Y020257D01*
X032776Y020257D02*
X032776Y020777D01*
X033776Y020777D02*
X033776Y020257D01*
X034776Y020257D02*
X034776Y020777D01*
X035776Y020777D02*
X035776Y020257D01*
X036776Y020257D02*
X036776Y020777D01*
X037776Y020777D02*
X037776Y020257D01*
X038776Y020257D02*
X038776Y020777D01*
X039776Y020777D02*
X039776Y020257D01*
X040776Y020257D02*
X040776Y020777D01*
X041776Y020777D02*
X041776Y020257D01*
X042776Y020257D02*
X042776Y020777D01*
X043776Y020777D02*
X043776Y020257D01*
D15*
X030776Y017517D03*
X029776Y017517D03*
X028776Y017517D03*
X027776Y017517D03*
X027776Y016517D03*
X028776Y016517D03*
X029776Y016517D03*
X030776Y016517D03*
M02*
