G75*
G70*
%OFA0B0*%
%FSLAX24Y24*%
%IPPOS*%
%LPD*%
%AMOC8*
5,1,8,0,0,1.08239X$1,22.5*
%
%ADD10C,0.0000*%
%ADD11R,0.0175X0.0018*%
%ADD12R,0.0245X0.0018*%
%ADD13R,0.0262X0.0018*%
%ADD14R,0.0297X0.0018*%
%ADD15R,0.0315X0.0018*%
%ADD16R,0.0333X0.0018*%
%ADD17R,0.0227X0.0018*%
%ADD18R,0.0158X0.0018*%
%ADD19R,0.0280X0.0018*%
%ADD20R,0.0403X0.0018*%
%ADD21R,0.0140X0.0018*%
%ADD22R,0.0350X0.0018*%
%ADD23R,0.0490X0.0018*%
%ADD24R,0.0508X0.0018*%
%ADD25R,0.0420X0.0018*%
%ADD26R,0.0560X0.0018*%
%ADD27R,0.0578X0.0018*%
%ADD28R,0.0455X0.0018*%
%ADD29R,0.0385X0.0018*%
%ADD30R,0.0612X0.0018*%
%ADD31R,0.0595X0.0018*%
%ADD32R,0.0630X0.0018*%
%ADD33R,0.0210X0.0018*%
%ADD34R,0.0542X0.0018*%
%ADD35R,0.0648X0.0018*%
%ADD36R,0.0437X0.0018*%
%ADD37R,0.0192X0.0018*%
%ADD38R,0.0105X0.0018*%
%ADD39R,0.0088X0.0018*%
%ADD40R,0.0070X0.0018*%
%ADD41R,0.0053X0.0018*%
%ADD42R,0.0035X0.0018*%
%ADD43R,0.0018X0.0018*%
%ADD44R,0.0123X0.0018*%
%ADD45R,0.0367X0.0018*%
%ADD46R,0.0805X0.0018*%
%ADD47R,0.0823X0.0018*%
%ADD48R,0.0473X0.0018*%
%ADD49R,0.0788X0.0018*%
%ADD50R,0.0735X0.0018*%
%ADD51R,0.0525X0.0018*%
%ADD52R,0.0998X0.0018*%
%ADD53C,0.0030*%
%ADD54C,0.0060*%
%ADD55C,0.0050*%
%ADD56C,0.0040*%
%ADD57C,0.0070*%
D10*
X003276Y001517D02*
X003276Y033517D01*
X003278Y033577D01*
X003283Y033638D01*
X003292Y033697D01*
X003305Y033756D01*
X003321Y033815D01*
X003341Y033872D01*
X003364Y033927D01*
X003391Y033982D01*
X003420Y034034D01*
X003453Y034085D01*
X003489Y034134D01*
X003527Y034180D01*
X003569Y034224D01*
X003613Y034266D01*
X003659Y034304D01*
X003708Y034340D01*
X003759Y034373D01*
X003811Y034402D01*
X003866Y034429D01*
X003921Y034452D01*
X003978Y034472D01*
X004037Y034488D01*
X004096Y034501D01*
X004155Y034510D01*
X004216Y034515D01*
X004276Y034517D01*
X050276Y034517D01*
X050336Y034515D01*
X050397Y034510D01*
X050456Y034501D01*
X050515Y034488D01*
X050574Y034472D01*
X050631Y034452D01*
X050686Y034429D01*
X050741Y034402D01*
X050793Y034373D01*
X050844Y034340D01*
X050893Y034304D01*
X050939Y034266D01*
X050983Y034224D01*
X051025Y034180D01*
X051063Y034134D01*
X051099Y034085D01*
X051132Y034034D01*
X051161Y033982D01*
X051188Y033927D01*
X051211Y033872D01*
X051231Y033815D01*
X051247Y033756D01*
X051260Y033697D01*
X051269Y033638D01*
X051274Y033577D01*
X051276Y033517D01*
X051276Y001017D01*
X051274Y000973D01*
X051268Y000930D01*
X051259Y000888D01*
X051246Y000846D01*
X051229Y000806D01*
X051209Y000767D01*
X051186Y000730D01*
X051159Y000696D01*
X051130Y000663D01*
X051097Y000634D01*
X051063Y000607D01*
X051026Y000584D01*
X050987Y000564D01*
X050947Y000547D01*
X050905Y000534D01*
X050863Y000525D01*
X050820Y000519D01*
X050776Y000517D01*
X004276Y000517D01*
X004216Y000519D01*
X004155Y000524D01*
X004096Y000533D01*
X004037Y000546D01*
X003978Y000562D01*
X003921Y000582D01*
X003866Y000605D01*
X003811Y000632D01*
X003759Y000661D01*
X003708Y000694D01*
X003659Y000730D01*
X003613Y000768D01*
X003569Y000810D01*
X003527Y000854D01*
X003489Y000900D01*
X003453Y000949D01*
X003420Y001000D01*
X003391Y001052D01*
X003364Y001107D01*
X003341Y001162D01*
X003321Y001219D01*
X003305Y001278D01*
X003292Y001337D01*
X003283Y001396D01*
X003278Y001457D01*
X003276Y001517D01*
X004039Y001910D02*
X004041Y001960D01*
X004047Y002010D01*
X004057Y002059D01*
X004071Y002107D01*
X004088Y002154D01*
X004109Y002199D01*
X004134Y002243D01*
X004162Y002284D01*
X004194Y002323D01*
X004228Y002360D01*
X004265Y002394D01*
X004305Y002424D01*
X004347Y002451D01*
X004391Y002475D01*
X004437Y002496D01*
X004484Y002512D01*
X004532Y002525D01*
X004582Y002534D01*
X004631Y002539D01*
X004682Y002540D01*
X004732Y002537D01*
X004781Y002530D01*
X004830Y002519D01*
X004878Y002504D01*
X004924Y002486D01*
X004969Y002464D01*
X005012Y002438D01*
X005053Y002409D01*
X005092Y002377D01*
X005128Y002342D01*
X005160Y002304D01*
X005190Y002264D01*
X005217Y002221D01*
X005240Y002177D01*
X005259Y002131D01*
X005275Y002083D01*
X005287Y002034D01*
X005295Y001985D01*
X005299Y001935D01*
X005299Y001885D01*
X005295Y001835D01*
X005287Y001786D01*
X005275Y001737D01*
X005259Y001689D01*
X005240Y001643D01*
X005217Y001599D01*
X005190Y001556D01*
X005160Y001516D01*
X005128Y001478D01*
X005092Y001443D01*
X005053Y001411D01*
X005012Y001382D01*
X004969Y001356D01*
X004924Y001334D01*
X004878Y001316D01*
X004830Y001301D01*
X004781Y001290D01*
X004732Y001283D01*
X004682Y001280D01*
X004631Y001281D01*
X004582Y001286D01*
X004532Y001295D01*
X004484Y001308D01*
X004437Y001324D01*
X004391Y001345D01*
X004347Y001369D01*
X004305Y001396D01*
X004265Y001426D01*
X004228Y001460D01*
X004194Y001497D01*
X004162Y001536D01*
X004134Y001577D01*
X004109Y001621D01*
X004088Y001666D01*
X004071Y001713D01*
X004057Y001761D01*
X004047Y001810D01*
X004041Y001860D01*
X004039Y001910D01*
X049252Y001910D02*
X049254Y001960D01*
X049260Y002010D01*
X049270Y002059D01*
X049284Y002107D01*
X049301Y002154D01*
X049322Y002199D01*
X049347Y002243D01*
X049375Y002284D01*
X049407Y002323D01*
X049441Y002360D01*
X049478Y002394D01*
X049518Y002424D01*
X049560Y002451D01*
X049604Y002475D01*
X049650Y002496D01*
X049697Y002512D01*
X049745Y002525D01*
X049795Y002534D01*
X049844Y002539D01*
X049895Y002540D01*
X049945Y002537D01*
X049994Y002530D01*
X050043Y002519D01*
X050091Y002504D01*
X050137Y002486D01*
X050182Y002464D01*
X050225Y002438D01*
X050266Y002409D01*
X050305Y002377D01*
X050341Y002342D01*
X050373Y002304D01*
X050403Y002264D01*
X050430Y002221D01*
X050453Y002177D01*
X050472Y002131D01*
X050488Y002083D01*
X050500Y002034D01*
X050508Y001985D01*
X050512Y001935D01*
X050512Y001885D01*
X050508Y001835D01*
X050500Y001786D01*
X050488Y001737D01*
X050472Y001689D01*
X050453Y001643D01*
X050430Y001599D01*
X050403Y001556D01*
X050373Y001516D01*
X050341Y001478D01*
X050305Y001443D01*
X050266Y001411D01*
X050225Y001382D01*
X050182Y001356D01*
X050137Y001334D01*
X050091Y001316D01*
X050043Y001301D01*
X049994Y001290D01*
X049945Y001283D01*
X049895Y001280D01*
X049844Y001281D01*
X049795Y001286D01*
X049745Y001295D01*
X049697Y001308D01*
X049650Y001324D01*
X049604Y001345D01*
X049560Y001369D01*
X049518Y001396D01*
X049478Y001426D01*
X049441Y001460D01*
X049407Y001497D01*
X049375Y001536D01*
X049347Y001577D01*
X049322Y001621D01*
X049301Y001666D01*
X049284Y001713D01*
X049270Y001761D01*
X049260Y001810D01*
X049254Y001860D01*
X049252Y001910D01*
X049252Y033123D02*
X049254Y033173D01*
X049260Y033223D01*
X049270Y033272D01*
X049284Y033320D01*
X049301Y033367D01*
X049322Y033412D01*
X049347Y033456D01*
X049375Y033497D01*
X049407Y033536D01*
X049441Y033573D01*
X049478Y033607D01*
X049518Y033637D01*
X049560Y033664D01*
X049604Y033688D01*
X049650Y033709D01*
X049697Y033725D01*
X049745Y033738D01*
X049795Y033747D01*
X049844Y033752D01*
X049895Y033753D01*
X049945Y033750D01*
X049994Y033743D01*
X050043Y033732D01*
X050091Y033717D01*
X050137Y033699D01*
X050182Y033677D01*
X050225Y033651D01*
X050266Y033622D01*
X050305Y033590D01*
X050341Y033555D01*
X050373Y033517D01*
X050403Y033477D01*
X050430Y033434D01*
X050453Y033390D01*
X050472Y033344D01*
X050488Y033296D01*
X050500Y033247D01*
X050508Y033198D01*
X050512Y033148D01*
X050512Y033098D01*
X050508Y033048D01*
X050500Y032999D01*
X050488Y032950D01*
X050472Y032902D01*
X050453Y032856D01*
X050430Y032812D01*
X050403Y032769D01*
X050373Y032729D01*
X050341Y032691D01*
X050305Y032656D01*
X050266Y032624D01*
X050225Y032595D01*
X050182Y032569D01*
X050137Y032547D01*
X050091Y032529D01*
X050043Y032514D01*
X049994Y032503D01*
X049945Y032496D01*
X049895Y032493D01*
X049844Y032494D01*
X049795Y032499D01*
X049745Y032508D01*
X049697Y032521D01*
X049650Y032537D01*
X049604Y032558D01*
X049560Y032582D01*
X049518Y032609D01*
X049478Y032639D01*
X049441Y032673D01*
X049407Y032710D01*
X049375Y032749D01*
X049347Y032790D01*
X049322Y032834D01*
X049301Y032879D01*
X049284Y032926D01*
X049270Y032974D01*
X049260Y033023D01*
X049254Y033073D01*
X049252Y033123D01*
X004039Y033123D02*
X004041Y033173D01*
X004047Y033223D01*
X004057Y033272D01*
X004071Y033320D01*
X004088Y033367D01*
X004109Y033412D01*
X004134Y033456D01*
X004162Y033497D01*
X004194Y033536D01*
X004228Y033573D01*
X004265Y033607D01*
X004305Y033637D01*
X004347Y033664D01*
X004391Y033688D01*
X004437Y033709D01*
X004484Y033725D01*
X004532Y033738D01*
X004582Y033747D01*
X004631Y033752D01*
X004682Y033753D01*
X004732Y033750D01*
X004781Y033743D01*
X004830Y033732D01*
X004878Y033717D01*
X004924Y033699D01*
X004969Y033677D01*
X005012Y033651D01*
X005053Y033622D01*
X005092Y033590D01*
X005128Y033555D01*
X005160Y033517D01*
X005190Y033477D01*
X005217Y033434D01*
X005240Y033390D01*
X005259Y033344D01*
X005275Y033296D01*
X005287Y033247D01*
X005295Y033198D01*
X005299Y033148D01*
X005299Y033098D01*
X005295Y033048D01*
X005287Y032999D01*
X005275Y032950D01*
X005259Y032902D01*
X005240Y032856D01*
X005217Y032812D01*
X005190Y032769D01*
X005160Y032729D01*
X005128Y032691D01*
X005092Y032656D01*
X005053Y032624D01*
X005012Y032595D01*
X004969Y032569D01*
X004924Y032547D01*
X004878Y032529D01*
X004830Y032514D01*
X004781Y032503D01*
X004732Y032496D01*
X004682Y032493D01*
X004631Y032494D01*
X004582Y032499D01*
X004532Y032508D01*
X004484Y032521D01*
X004437Y032537D01*
X004391Y032558D01*
X004347Y032582D01*
X004305Y032609D01*
X004265Y032639D01*
X004228Y032673D01*
X004194Y032710D01*
X004162Y032749D01*
X004134Y032790D01*
X004109Y032834D01*
X004088Y032879D01*
X004071Y032926D01*
X004057Y032974D01*
X004047Y033023D01*
X004041Y033073D01*
X004039Y033123D01*
D11*
X029457Y031682D03*
X029492Y031577D03*
X029509Y031542D03*
X029527Y031524D03*
X029492Y032049D03*
X029509Y032084D03*
X029527Y032102D03*
X030017Y032119D03*
X030034Y032102D03*
X030489Y032032D03*
X030507Y032067D03*
X030524Y032084D03*
X030454Y031734D03*
X030489Y031594D03*
X030507Y031559D03*
X030524Y031542D03*
X031032Y032119D03*
X031522Y032049D03*
X031522Y032032D03*
X031522Y032014D03*
X032012Y032119D03*
X032029Y032084D03*
X032554Y032119D03*
X032572Y032137D03*
X032554Y031944D03*
X033027Y031682D03*
X033027Y031542D03*
X033009Y031507D03*
X033517Y031017D03*
X033692Y031157D03*
X033709Y031174D03*
X033797Y031384D03*
X033797Y031402D03*
X033797Y031419D03*
X034969Y031892D03*
X035319Y031944D03*
X035319Y031752D03*
X036334Y031647D03*
X036352Y031594D03*
X036369Y031559D03*
X036369Y031542D03*
X036387Y031524D03*
X036859Y031507D03*
X036877Y031524D03*
X036877Y031542D03*
X036894Y031559D03*
X036912Y031594D03*
X036912Y031612D03*
X036929Y031664D03*
X036929Y031962D03*
X036912Y032032D03*
X036894Y032067D03*
X036877Y032084D03*
X036877Y032102D03*
X036859Y032119D03*
X036387Y032102D03*
X036369Y032084D03*
X036369Y032067D03*
X036352Y032032D03*
X036334Y031979D03*
X035214Y032277D03*
X035214Y032294D03*
X034672Y033537D03*
X034672Y033554D03*
X035757Y033554D03*
X037384Y032049D03*
X037384Y032032D03*
X037874Y032102D03*
X037874Y032119D03*
X037892Y032084D03*
X038399Y031962D03*
X038417Y031944D03*
X038417Y032119D03*
X038889Y031682D03*
X038889Y031664D03*
X038872Y031507D03*
X039589Y031524D03*
X039607Y031507D03*
X040324Y031769D03*
X040324Y031787D03*
X040324Y031804D03*
X040377Y031559D03*
X040394Y031542D03*
X040412Y031524D03*
X040377Y032067D03*
X040394Y032084D03*
X040412Y032102D03*
X040902Y032119D03*
X040919Y032102D03*
X041532Y031997D03*
X041532Y031979D03*
X041532Y031962D03*
D12*
X041567Y032084D03*
X040674Y032277D03*
X040482Y031472D03*
X038837Y031734D03*
X038452Y031909D03*
X036632Y032277D03*
X035792Y031927D03*
X035792Y031909D03*
X035792Y031892D03*
X035792Y031874D03*
X035792Y031857D03*
X035792Y031839D03*
X035792Y031822D03*
X035792Y031804D03*
X035319Y031804D03*
X035319Y031787D03*
X035319Y031874D03*
X035319Y031892D03*
X035319Y031909D03*
X034619Y031909D03*
X034619Y031892D03*
X034619Y031874D03*
X034619Y031857D03*
X034619Y031839D03*
X034619Y031822D03*
X034619Y031804D03*
X034619Y031787D03*
X034619Y031769D03*
X034619Y031752D03*
X034619Y031734D03*
X034619Y031717D03*
X034619Y031699D03*
X034619Y031682D03*
X034619Y031664D03*
X034619Y031647D03*
X034619Y031629D03*
X034619Y031612D03*
X034619Y031594D03*
X034619Y031927D03*
X034619Y031944D03*
X034619Y031962D03*
X033797Y031507D03*
X033797Y031489D03*
X033797Y031472D03*
X033552Y031034D03*
X032974Y031734D03*
X034689Y033397D03*
X034689Y033414D03*
X034689Y033432D03*
X035722Y033397D03*
X035722Y033379D03*
X036632Y031349D03*
X029789Y032277D03*
X029597Y032154D03*
X029597Y031472D03*
D13*
X030603Y031472D03*
X031566Y032137D03*
X033561Y031052D03*
X034611Y031419D03*
X034611Y031437D03*
X034611Y031454D03*
X034611Y031472D03*
X034611Y031489D03*
X034611Y031507D03*
X034611Y031524D03*
X034611Y031542D03*
X034611Y031559D03*
X034611Y031577D03*
X035311Y031822D03*
X035311Y031839D03*
X035311Y031857D03*
X035801Y031787D03*
X035801Y031769D03*
X035801Y031752D03*
X035801Y031734D03*
X035801Y031717D03*
X035801Y031699D03*
X035801Y031682D03*
X035801Y031664D03*
X035801Y031647D03*
X035801Y031629D03*
X035801Y031612D03*
X035801Y031594D03*
X035801Y031577D03*
X035801Y031559D03*
X035801Y031542D03*
X035801Y031524D03*
X035801Y031507D03*
X035801Y031489D03*
X035801Y031472D03*
X035801Y031454D03*
X035801Y031437D03*
X035801Y031419D03*
X037428Y032137D03*
X035748Y032767D03*
X035731Y033362D03*
X034698Y033362D03*
X034698Y033379D03*
X034698Y033344D03*
X040701Y031349D03*
X041576Y032102D03*
D14*
X041891Y032259D03*
X038793Y031752D03*
X038496Y031892D03*
X037708Y032259D03*
X037446Y032154D03*
X035713Y033274D03*
X035713Y033292D03*
X035713Y033309D03*
X034716Y033292D03*
X034716Y033274D03*
X034716Y033257D03*
X032931Y031752D03*
X032633Y031892D03*
X031846Y032259D03*
X033788Y031559D03*
X033578Y031069D03*
D15*
X033587Y031087D03*
X034724Y033204D03*
X034724Y033222D03*
X034724Y033239D03*
X035704Y033239D03*
X035704Y033222D03*
X035704Y033257D03*
D16*
X035696Y033204D03*
X035696Y033187D03*
X034733Y033187D03*
X034733Y033169D03*
X034733Y033152D03*
X031846Y032242D03*
X030796Y032259D03*
X033596Y031122D03*
X033596Y031104D03*
X037708Y032242D03*
X040666Y032259D03*
D17*
X040858Y032154D03*
X040473Y032154D03*
X041558Y032067D03*
X038828Y031472D03*
X037831Y032154D03*
X037411Y032119D03*
X036816Y032154D03*
X036448Y032154D03*
X035801Y032154D03*
X035801Y032137D03*
X035801Y032119D03*
X035801Y032102D03*
X035801Y032084D03*
X035801Y032067D03*
X035801Y032049D03*
X035801Y032032D03*
X035801Y032014D03*
X035801Y031997D03*
X035801Y031979D03*
X035801Y031962D03*
X035801Y031944D03*
X035801Y032172D03*
X035801Y032189D03*
X035766Y032749D03*
X034663Y032907D03*
X034628Y032347D03*
X034628Y032329D03*
X034628Y032312D03*
X034628Y032294D03*
X034628Y032277D03*
X034628Y032259D03*
X034628Y032242D03*
X034628Y032224D03*
X034628Y032207D03*
X034628Y032189D03*
X034628Y032172D03*
X034628Y032154D03*
X034628Y032137D03*
X034628Y032119D03*
X034628Y032102D03*
X034628Y032084D03*
X034628Y032067D03*
X034628Y032049D03*
X034628Y032032D03*
X034628Y032014D03*
X034628Y031997D03*
X034628Y031979D03*
X034961Y031839D03*
X034961Y031822D03*
X034961Y031804D03*
X033666Y031139D03*
X032966Y031472D03*
X032598Y031909D03*
X031968Y032154D03*
X031548Y032119D03*
X030796Y032277D03*
X030603Y032154D03*
X030026Y031472D03*
X029571Y031489D03*
X028766Y031489D03*
X028766Y031472D03*
X028766Y031454D03*
X028766Y031437D03*
X028766Y031419D03*
X028766Y031402D03*
X028766Y031384D03*
X028766Y031367D03*
X028766Y031349D03*
X028766Y031332D03*
X028766Y031507D03*
X028766Y031524D03*
X028766Y031542D03*
X028766Y031559D03*
X028766Y031577D03*
X028766Y031594D03*
X028766Y031612D03*
X028766Y031629D03*
X028766Y031647D03*
X028766Y031664D03*
X028766Y031682D03*
X028766Y031699D03*
X028766Y031717D03*
X028766Y031734D03*
X028766Y031752D03*
X028766Y031769D03*
X028766Y031787D03*
X028766Y031804D03*
X028766Y031822D03*
X028766Y031839D03*
X028766Y031857D03*
X028766Y031874D03*
X028766Y031892D03*
X028766Y031909D03*
X028766Y031927D03*
X028766Y031944D03*
X028766Y031962D03*
X028766Y031979D03*
X028766Y031997D03*
X028766Y032014D03*
X028766Y032032D03*
X028766Y032049D03*
X028766Y032067D03*
X028766Y032084D03*
X028766Y032102D03*
X028766Y032119D03*
X028766Y032137D03*
X028766Y032154D03*
X028766Y032172D03*
X028766Y032189D03*
X028766Y032207D03*
X028766Y032224D03*
X028766Y032242D03*
X028766Y032259D03*
X028766Y032277D03*
X028766Y032294D03*
X028766Y032312D03*
X028766Y032329D03*
X028766Y032347D03*
X028766Y032364D03*
X028766Y032382D03*
X028766Y032399D03*
X034681Y033449D03*
X034681Y033467D03*
X035731Y033449D03*
X035731Y033432D03*
X035731Y033414D03*
X036448Y031472D03*
X036816Y031472D03*
D18*
X036903Y031577D03*
X036921Y031629D03*
X036921Y031647D03*
X036938Y031682D03*
X036938Y031699D03*
X036938Y031717D03*
X036938Y031734D03*
X036938Y031752D03*
X036938Y031769D03*
X036938Y031787D03*
X036938Y031804D03*
X036938Y031822D03*
X036938Y031839D03*
X036938Y031857D03*
X036938Y031874D03*
X036938Y031892D03*
X036938Y031909D03*
X036938Y031927D03*
X036938Y031944D03*
X036921Y031979D03*
X036921Y031997D03*
X036921Y032014D03*
X036903Y032049D03*
X037376Y032014D03*
X037376Y031997D03*
X037376Y031979D03*
X037376Y031962D03*
X037901Y032014D03*
X037901Y032032D03*
X037901Y032049D03*
X037901Y032067D03*
X038391Y032067D03*
X038391Y032084D03*
X038408Y032102D03*
X038391Y032049D03*
X038391Y032032D03*
X038391Y032014D03*
X038391Y031997D03*
X038391Y031979D03*
X038846Y032154D03*
X038898Y031647D03*
X038898Y031629D03*
X038898Y031612D03*
X038898Y031594D03*
X038898Y031577D03*
X038898Y031559D03*
X038881Y031542D03*
X038881Y031524D03*
X039563Y031594D03*
X039563Y031612D03*
X039563Y031629D03*
X039563Y031647D03*
X039563Y031664D03*
X039563Y031682D03*
X039563Y031699D03*
X039563Y031717D03*
X039563Y031734D03*
X039563Y031752D03*
X039563Y031769D03*
X039563Y031787D03*
X039563Y031804D03*
X039563Y031822D03*
X039563Y031839D03*
X039563Y031857D03*
X039563Y031874D03*
X039563Y031892D03*
X039563Y031909D03*
X039563Y031927D03*
X039563Y031944D03*
X039563Y031962D03*
X039563Y031979D03*
X039563Y031997D03*
X039563Y032014D03*
X039563Y032032D03*
X039563Y032049D03*
X039563Y032067D03*
X039563Y032084D03*
X039563Y032102D03*
X039563Y032119D03*
X039563Y032137D03*
X039563Y032277D03*
X039563Y032294D03*
X039563Y032312D03*
X039563Y032329D03*
X039563Y032347D03*
X039563Y032364D03*
X039563Y032382D03*
X039563Y032399D03*
X039563Y032417D03*
X039563Y032434D03*
X039563Y032452D03*
X039563Y032469D03*
X039563Y032487D03*
X039563Y032504D03*
X039563Y032522D03*
X040368Y032049D03*
X040368Y032032D03*
X040351Y032014D03*
X040351Y031997D03*
X040351Y031979D03*
X040333Y031962D03*
X040333Y031944D03*
X040333Y031752D03*
X040333Y031734D03*
X040333Y031717D03*
X040333Y031699D03*
X040333Y031682D03*
X040333Y031664D03*
X040351Y031647D03*
X040351Y031629D03*
X040351Y031612D03*
X040368Y031594D03*
X040368Y031577D03*
X040981Y031944D03*
X040963Y031997D03*
X040963Y032014D03*
X040946Y032049D03*
X040946Y032067D03*
X040928Y032084D03*
X041523Y032137D03*
X041523Y032154D03*
X041523Y032172D03*
X041523Y032189D03*
X041523Y032207D03*
X041523Y032224D03*
X041523Y032242D03*
X041523Y032259D03*
X041698Y032137D03*
X041523Y031944D03*
X041523Y031927D03*
X041523Y031909D03*
X041523Y031892D03*
X041523Y031874D03*
X041523Y031857D03*
X041523Y031839D03*
X041523Y031822D03*
X041523Y031804D03*
X041523Y031787D03*
X041523Y031769D03*
X041523Y031752D03*
X041523Y031734D03*
X041523Y031717D03*
X041523Y031699D03*
X041523Y031682D03*
X041523Y031664D03*
X041523Y031647D03*
X041523Y031629D03*
X041523Y031612D03*
X041523Y031594D03*
X041523Y031577D03*
X041523Y031559D03*
X041523Y031542D03*
X041523Y031524D03*
X041523Y031507D03*
X041523Y031489D03*
X041523Y031472D03*
X041523Y031454D03*
X041523Y031437D03*
X041523Y031419D03*
X041523Y031402D03*
X041523Y031384D03*
X041523Y031367D03*
X039581Y031542D03*
X039581Y031559D03*
X036361Y031577D03*
X036343Y031612D03*
X036343Y031629D03*
X036326Y031664D03*
X036326Y031682D03*
X036326Y031699D03*
X036326Y031717D03*
X036326Y031734D03*
X036326Y031752D03*
X036326Y031769D03*
X036326Y031787D03*
X036326Y031804D03*
X036326Y031822D03*
X036326Y031839D03*
X036326Y031857D03*
X036326Y031874D03*
X036326Y031892D03*
X036326Y031909D03*
X036326Y031927D03*
X036326Y031944D03*
X036326Y031962D03*
X036343Y031997D03*
X036343Y032014D03*
X036361Y032049D03*
X035451Y032767D03*
X034926Y032907D03*
X035206Y032259D03*
X034961Y031752D03*
X034103Y032154D03*
X034103Y032172D03*
X034103Y032189D03*
X034121Y032207D03*
X034121Y032224D03*
X034138Y032242D03*
X034138Y032259D03*
X034086Y032137D03*
X034086Y032119D03*
X034068Y032084D03*
X034068Y032067D03*
X034051Y032049D03*
X034051Y032032D03*
X034051Y032014D03*
X034033Y031997D03*
X034033Y031979D03*
X034016Y031944D03*
X034016Y031927D03*
X033998Y031909D03*
X033998Y031892D03*
X033981Y031857D03*
X033981Y031839D03*
X033963Y031804D03*
X033946Y031769D03*
X033946Y031752D03*
X033928Y031717D03*
X033928Y031699D03*
X033911Y031664D03*
X033893Y031629D03*
X033893Y031612D03*
X033876Y031577D03*
X033701Y031612D03*
X033683Y031647D03*
X033683Y031664D03*
X033666Y031699D03*
X033648Y031734D03*
X033648Y031752D03*
X033631Y031787D03*
X033631Y031804D03*
X033613Y031822D03*
X033613Y031839D03*
X033596Y031874D03*
X033596Y031892D03*
X033578Y031927D03*
X033578Y031944D03*
X033561Y031962D03*
X033561Y031979D03*
X033543Y032014D03*
X033543Y032032D03*
X033526Y032049D03*
X033526Y032067D03*
X033508Y032102D03*
X033508Y032119D03*
X033491Y032137D03*
X033491Y032154D03*
X033491Y032172D03*
X033473Y032189D03*
X033473Y032207D03*
X033456Y032224D03*
X033456Y032242D03*
X033456Y032259D03*
X033036Y031664D03*
X033036Y031647D03*
X033036Y031629D03*
X033036Y031612D03*
X033036Y031594D03*
X033036Y031577D03*
X033036Y031559D03*
X033018Y031524D03*
X033753Y031279D03*
X033753Y031262D03*
X033753Y031244D03*
X033736Y031227D03*
X033736Y031209D03*
X033718Y031192D03*
X033771Y031297D03*
X033771Y031314D03*
X033788Y031332D03*
X033788Y031349D03*
X033788Y031367D03*
X032546Y031962D03*
X032528Y031979D03*
X032528Y031997D03*
X032528Y032014D03*
X032528Y032032D03*
X032528Y032049D03*
X032528Y032067D03*
X032546Y032102D03*
X032056Y031997D03*
X032056Y031979D03*
X032056Y031962D03*
X032056Y031944D03*
X032056Y031927D03*
X032056Y031909D03*
X032056Y031892D03*
X032056Y031874D03*
X032056Y031857D03*
X032056Y031839D03*
X032056Y031822D03*
X032056Y031804D03*
X032056Y031787D03*
X032056Y031769D03*
X032056Y031752D03*
X032056Y031734D03*
X032056Y031717D03*
X032056Y031699D03*
X032056Y031682D03*
X032056Y031664D03*
X032056Y031647D03*
X032056Y031629D03*
X032056Y031612D03*
X032056Y031594D03*
X032056Y031577D03*
X032056Y031559D03*
X032056Y031542D03*
X032056Y031524D03*
X032056Y031507D03*
X032056Y031489D03*
X032056Y031472D03*
X032056Y031454D03*
X032056Y031437D03*
X032056Y031419D03*
X032056Y031402D03*
X032056Y031384D03*
X032056Y031367D03*
X031513Y031909D03*
X031513Y031927D03*
X031513Y031944D03*
X031513Y031962D03*
X031513Y031979D03*
X031513Y031997D03*
X031093Y031997D03*
X031076Y032032D03*
X031076Y032049D03*
X031058Y032067D03*
X031058Y032084D03*
X031041Y032102D03*
X030498Y032049D03*
X030481Y032014D03*
X030481Y031997D03*
X030463Y031979D03*
X030463Y031962D03*
X030463Y031944D03*
X030446Y031804D03*
X030446Y031787D03*
X030446Y031769D03*
X030446Y031752D03*
X030463Y031717D03*
X030463Y031699D03*
X030463Y031682D03*
X030463Y031664D03*
X030463Y031647D03*
X030481Y031629D03*
X030481Y031612D03*
X030498Y031577D03*
X030061Y031489D03*
X029501Y031559D03*
X029483Y031594D03*
X029483Y031612D03*
X029466Y031629D03*
X029466Y031647D03*
X029466Y031664D03*
X029448Y031699D03*
X029448Y031717D03*
X029448Y031734D03*
X029448Y031752D03*
X029448Y031769D03*
X029448Y031787D03*
X029448Y031804D03*
X029466Y031944D03*
X029466Y031962D03*
X029466Y031979D03*
X029466Y031997D03*
X029483Y032014D03*
X029483Y032032D03*
X029501Y032067D03*
X030043Y032084D03*
X030061Y032067D03*
X030078Y032032D03*
X030096Y031979D03*
X030096Y031962D03*
X032021Y032102D03*
X032038Y032067D03*
X032038Y032049D03*
X032038Y032032D03*
D19*
X032799Y032277D03*
X032747Y031349D03*
X033797Y031524D03*
X033797Y031542D03*
X034707Y033309D03*
X034707Y033327D03*
X035722Y033327D03*
X035722Y033344D03*
X038662Y032277D03*
X038609Y031349D03*
X039834Y031367D03*
X041584Y032119D03*
X030822Y031349D03*
X029824Y031349D03*
D20*
X029833Y031367D03*
X030831Y031367D03*
X030796Y032242D03*
X031846Y032224D03*
X032808Y032259D03*
X032738Y031367D03*
X034751Y033012D03*
X034751Y033029D03*
X034751Y033047D03*
X035661Y033012D03*
X035661Y032994D03*
X038601Y031367D03*
X038671Y032259D03*
X039773Y031419D03*
X040701Y031367D03*
X040666Y032242D03*
X041891Y032224D03*
D21*
X040972Y031979D03*
X040972Y031962D03*
X040954Y032032D03*
X040937Y031489D03*
X039572Y031577D03*
X038382Y031489D03*
X037909Y031489D03*
X037909Y031472D03*
X037909Y031454D03*
X037909Y031437D03*
X037909Y031419D03*
X037909Y031402D03*
X037909Y031384D03*
X037909Y031367D03*
X037909Y031507D03*
X037909Y031524D03*
X037909Y031542D03*
X037909Y031559D03*
X037909Y031577D03*
X037909Y031594D03*
X037909Y031612D03*
X037909Y031629D03*
X037909Y031647D03*
X037909Y031664D03*
X037909Y031682D03*
X037909Y031699D03*
X037909Y031717D03*
X037909Y031734D03*
X037909Y031752D03*
X037909Y031769D03*
X037909Y031787D03*
X037909Y031804D03*
X037909Y031822D03*
X037909Y031839D03*
X037909Y031857D03*
X037909Y031874D03*
X037909Y031892D03*
X037909Y031909D03*
X037909Y031927D03*
X037909Y031944D03*
X037909Y031962D03*
X037909Y031979D03*
X037909Y031997D03*
X037367Y031944D03*
X037367Y031927D03*
X037367Y031909D03*
X037367Y031892D03*
X037367Y031874D03*
X037367Y031857D03*
X037367Y031839D03*
X037367Y031822D03*
X037367Y031804D03*
X037367Y031787D03*
X037367Y031769D03*
X037367Y031752D03*
X037367Y031734D03*
X037367Y031717D03*
X037367Y031699D03*
X037367Y031682D03*
X037367Y031664D03*
X037367Y031647D03*
X037367Y031629D03*
X037367Y031612D03*
X037367Y031594D03*
X037367Y031577D03*
X037367Y031559D03*
X037367Y031542D03*
X037367Y031524D03*
X037367Y031507D03*
X037367Y031489D03*
X037367Y031472D03*
X037367Y031454D03*
X037367Y031437D03*
X037367Y031419D03*
X037367Y031402D03*
X037367Y031384D03*
X037367Y031367D03*
X037367Y032172D03*
X037367Y032189D03*
X037367Y032207D03*
X037367Y032224D03*
X037367Y032242D03*
X037367Y032259D03*
X035319Y031962D03*
X035319Y031734D03*
X034969Y031909D03*
X035214Y032242D03*
X034077Y032102D03*
X034024Y031962D03*
X033989Y031874D03*
X033972Y031822D03*
X033954Y031787D03*
X033937Y031734D03*
X033919Y031682D03*
X033902Y031647D03*
X033884Y031594D03*
X033709Y031594D03*
X033709Y031577D03*
X033692Y031629D03*
X033674Y031682D03*
X033657Y031717D03*
X033639Y031769D03*
X033604Y031857D03*
X033587Y031909D03*
X033552Y031997D03*
X033517Y032084D03*
X032992Y032154D03*
X032537Y032084D03*
X032047Y032014D03*
X031662Y032154D03*
X031504Y032154D03*
X031504Y032172D03*
X031504Y032189D03*
X031504Y032207D03*
X031504Y032224D03*
X031504Y032242D03*
X031504Y032259D03*
X031504Y031892D03*
X031504Y031874D03*
X031504Y031857D03*
X031504Y031839D03*
X031504Y031822D03*
X031504Y031804D03*
X031504Y031787D03*
X031504Y031769D03*
X031504Y031752D03*
X031504Y031734D03*
X031504Y031717D03*
X031504Y031699D03*
X031504Y031682D03*
X031504Y031664D03*
X031504Y031647D03*
X031504Y031629D03*
X031504Y031612D03*
X031504Y031594D03*
X031504Y031577D03*
X031504Y031559D03*
X031504Y031542D03*
X031504Y031524D03*
X031504Y031507D03*
X031504Y031489D03*
X031504Y031472D03*
X031504Y031454D03*
X031504Y031437D03*
X031504Y031419D03*
X031504Y031402D03*
X031504Y031384D03*
X031504Y031367D03*
X031067Y031489D03*
X031102Y031944D03*
X031102Y031962D03*
X031102Y031979D03*
X031084Y032014D03*
X030104Y031944D03*
X030087Y031997D03*
X030087Y032014D03*
X030069Y032049D03*
X032519Y031489D03*
D22*
X029789Y032259D03*
X035687Y033134D03*
X035687Y033152D03*
X035687Y033169D03*
X036632Y032259D03*
X036632Y031367D03*
X039799Y031384D03*
D23*
X040709Y031384D03*
X038679Y032242D03*
X035634Y032802D03*
X035634Y032819D03*
X032817Y032242D03*
X030839Y031384D03*
X029842Y031384D03*
D24*
X029781Y032207D03*
X030796Y032207D03*
X032808Y032224D03*
X032721Y031384D03*
X035626Y032784D03*
X036623Y032207D03*
X036623Y031419D03*
X038583Y031384D03*
X040666Y032207D03*
D25*
X039764Y031437D03*
X041882Y032207D03*
X037699Y032207D03*
X036632Y032242D03*
X036632Y031384D03*
X034759Y032959D03*
X034759Y032977D03*
X034759Y032994D03*
X035652Y032977D03*
X032852Y031787D03*
X032729Y031857D03*
X029789Y032242D03*
D26*
X029842Y031402D03*
X030787Y032189D03*
X032782Y032172D03*
X032729Y031402D03*
X038592Y031402D03*
X038644Y032189D03*
D27*
X038636Y032172D03*
X038601Y031419D03*
X036623Y031454D03*
X036623Y032172D03*
X032738Y031419D03*
X030848Y031402D03*
X029781Y032172D03*
X040666Y032172D03*
X040718Y031402D03*
D28*
X039747Y031472D03*
X038679Y031804D03*
X038644Y031822D03*
X037699Y032189D03*
X036632Y032224D03*
X036632Y031402D03*
X035652Y032889D03*
X035652Y032907D03*
X035652Y032924D03*
X032817Y031804D03*
X032764Y031839D03*
X030787Y032224D03*
X029789Y032224D03*
X041864Y032172D03*
D29*
X039782Y031402D03*
X038539Y031874D03*
X037699Y032224D03*
X035669Y033029D03*
X035669Y033047D03*
X035669Y033064D03*
X034742Y033064D03*
X034742Y033082D03*
X034742Y033099D03*
D30*
X032756Y031454D03*
X029833Y031419D03*
X038618Y031454D03*
X040701Y031437D03*
D31*
X040709Y031419D03*
X038609Y031437D03*
X032747Y031437D03*
X030839Y031419D03*
X030787Y032172D03*
D32*
X030822Y031437D03*
X029824Y031437D03*
X040692Y031454D03*
D33*
X040902Y031472D03*
X040447Y031489D03*
X040447Y032137D03*
X039624Y031489D03*
X038854Y031717D03*
X038452Y032154D03*
X037857Y032137D03*
X037402Y032102D03*
X036842Y032137D03*
X036422Y032137D03*
X035792Y032207D03*
X035792Y032224D03*
X035792Y032242D03*
X035792Y032259D03*
X035792Y032277D03*
X035792Y032294D03*
X035792Y032312D03*
X035792Y032329D03*
X035792Y032347D03*
X035792Y032364D03*
X035792Y032382D03*
X035792Y032399D03*
X035792Y032417D03*
X035792Y032434D03*
X035792Y032452D03*
X035792Y032469D03*
X035792Y032487D03*
X035792Y032504D03*
X035792Y032522D03*
X035792Y032539D03*
X035792Y032557D03*
X035792Y032574D03*
X035774Y032732D03*
X035214Y032329D03*
X035319Y031927D03*
X035319Y031769D03*
X034969Y031787D03*
X034969Y031857D03*
X034637Y032364D03*
X034637Y032382D03*
X034637Y032399D03*
X034637Y032417D03*
X034637Y032434D03*
X034637Y032452D03*
X034637Y032469D03*
X034637Y032487D03*
X034637Y032504D03*
X034637Y032522D03*
X034637Y032539D03*
X034637Y032557D03*
X034637Y032574D03*
X034637Y032592D03*
X034637Y032609D03*
X034637Y032627D03*
X034637Y032644D03*
X034637Y032662D03*
X034637Y032679D03*
X034637Y032697D03*
X034637Y032714D03*
X034637Y032732D03*
X034637Y032749D03*
X034654Y032889D03*
X034672Y033484D03*
X034672Y033502D03*
X034672Y033519D03*
X035739Y033502D03*
X035739Y033484D03*
X035739Y033467D03*
X032992Y031717D03*
X032572Y031927D03*
X032589Y032154D03*
X031854Y032277D03*
X031539Y032102D03*
X031539Y032084D03*
X030979Y032154D03*
X031032Y031472D03*
X030577Y031489D03*
X029982Y032154D03*
X029562Y032137D03*
X033797Y031454D03*
X033797Y031437D03*
X036422Y031489D03*
X036842Y031489D03*
X041549Y032049D03*
X041899Y032277D03*
D34*
X040666Y032189D03*
X038653Y032207D03*
X036623Y032189D03*
X036623Y031437D03*
X032791Y032189D03*
X032791Y032207D03*
X029781Y032189D03*
D35*
X029816Y031454D03*
X030813Y031454D03*
D36*
X031846Y032189D03*
X031846Y032207D03*
X034768Y032924D03*
X034768Y032942D03*
X035661Y032942D03*
X035661Y032959D03*
X038583Y031857D03*
X038706Y031787D03*
X039756Y031454D03*
X041873Y032189D03*
D37*
X041541Y032032D03*
X041541Y032014D03*
X040876Y032137D03*
X040421Y032119D03*
X040421Y031507D03*
X038863Y031699D03*
X038846Y031489D03*
X038408Y031472D03*
X038426Y031927D03*
X038426Y032137D03*
X037708Y032277D03*
X037393Y032084D03*
X037393Y032067D03*
X036396Y032119D03*
X035783Y032592D03*
X035783Y032609D03*
X035783Y032627D03*
X035783Y032644D03*
X035783Y032662D03*
X035783Y032679D03*
X035783Y032697D03*
X035783Y032714D03*
X035206Y032312D03*
X034646Y032767D03*
X034646Y032784D03*
X034646Y032802D03*
X034646Y032819D03*
X034646Y032837D03*
X034646Y032854D03*
X034646Y032872D03*
X035748Y033519D03*
X035748Y033537D03*
X034961Y031874D03*
X034961Y031769D03*
X036396Y031507D03*
X033018Y031699D03*
X032983Y031489D03*
X032546Y031472D03*
X032003Y032137D03*
X031531Y032067D03*
X031006Y032137D03*
X030568Y032137D03*
X030551Y032119D03*
X030533Y032102D03*
X030008Y032137D03*
X029553Y032119D03*
X029553Y031507D03*
X030533Y031524D03*
X030551Y031507D03*
D38*
X030087Y031507D03*
X031084Y031507D03*
X034969Y032819D03*
X035004Y032732D03*
X035022Y032679D03*
X035039Y032644D03*
X035039Y032627D03*
X035057Y032592D03*
X035074Y032557D03*
X035074Y032539D03*
X035092Y032504D03*
X035092Y032487D03*
X035109Y032469D03*
X035109Y032452D03*
X035127Y032417D03*
X035127Y032399D03*
X035144Y032382D03*
X035144Y032364D03*
X035144Y032347D03*
X035267Y032347D03*
X035284Y032364D03*
X035284Y032382D03*
X035284Y032399D03*
X035302Y032417D03*
X035302Y032434D03*
X035319Y032469D03*
X035319Y032487D03*
X035337Y032504D03*
X035337Y032522D03*
X035354Y032557D03*
X035354Y032574D03*
X035372Y032609D03*
X035389Y032662D03*
X035407Y032697D03*
X035214Y032207D03*
X035214Y032189D03*
X042039Y032137D03*
D39*
X040963Y031507D03*
X038881Y032137D03*
X038356Y031507D03*
X035206Y032172D03*
X034961Y031927D03*
X033018Y032137D03*
X032493Y031507D03*
D40*
X030104Y031524D03*
X035214Y032154D03*
X042057Y032119D03*
D41*
X040981Y031524D03*
X038898Y032119D03*
X035311Y031717D03*
X034961Y031717D03*
X035206Y032137D03*
X033036Y032119D03*
X032476Y031524D03*
X031111Y031524D03*
D42*
X035214Y032102D03*
X035214Y032119D03*
X038329Y031524D03*
X042074Y032102D03*
D43*
X040998Y031542D03*
X038916Y032102D03*
X035206Y032084D03*
X033053Y032102D03*
X032458Y031542D03*
X031128Y031542D03*
X030131Y031542D03*
D44*
X034961Y031734D03*
X035206Y032224D03*
X035118Y032434D03*
X035083Y032522D03*
X035066Y032574D03*
X035048Y032609D03*
X035031Y032662D03*
X035013Y032697D03*
X035013Y032714D03*
X034996Y032749D03*
X034996Y032767D03*
X034978Y032784D03*
X034978Y032802D03*
X034961Y032837D03*
X034961Y032854D03*
X034943Y032872D03*
X034943Y032889D03*
X035416Y032732D03*
X035416Y032714D03*
X035398Y032679D03*
X035381Y032644D03*
X035381Y032627D03*
X035363Y032592D03*
X035346Y032539D03*
X035311Y032452D03*
X035433Y032749D03*
D45*
X035678Y033082D03*
X035678Y033099D03*
X035678Y033117D03*
X034733Y033117D03*
X034733Y033134D03*
X032896Y031769D03*
X032686Y031874D03*
X038741Y031769D03*
X041891Y032242D03*
D46*
X040657Y031927D03*
X040657Y031909D03*
X040657Y031892D03*
X040657Y031874D03*
X030787Y031909D03*
X029772Y031909D03*
X029772Y031892D03*
X029772Y031874D03*
X029772Y031857D03*
X029772Y031839D03*
X029772Y031822D03*
X029772Y031927D03*
D47*
X030778Y031892D03*
X030778Y031874D03*
X030778Y031857D03*
X030778Y031839D03*
X030778Y031822D03*
X040648Y031822D03*
X040648Y031839D03*
X040648Y031857D03*
D48*
X040666Y032224D03*
X041856Y032154D03*
X038618Y031839D03*
X037708Y032172D03*
X035643Y032837D03*
X035643Y032854D03*
X035643Y032872D03*
X032791Y031822D03*
X031846Y032172D03*
D49*
X030778Y031927D03*
D50*
X039607Y032154D03*
X039607Y032172D03*
X039607Y032189D03*
X039607Y032207D03*
X039607Y032224D03*
X039607Y032242D03*
X039607Y032259D03*
D51*
X038662Y032224D03*
D52*
X028766Y032417D03*
X028766Y032434D03*
X028766Y032452D03*
X028766Y032469D03*
X028766Y032487D03*
X028766Y032504D03*
X028766Y032522D03*
X028766Y032539D03*
X028766Y032557D03*
X028766Y032574D03*
X028766Y032592D03*
D53*
X047791Y033628D02*
X047887Y033532D01*
X047984Y033628D01*
X047984Y033822D01*
X047791Y033822D02*
X047791Y033628D01*
X048380Y033532D02*
X048574Y033532D01*
X048477Y033532D02*
X048477Y033822D01*
X048380Y033725D01*
X048675Y033580D02*
X048723Y033580D01*
X048723Y033532D01*
X048675Y033532D01*
X048675Y033580D01*
X048822Y033580D02*
X049016Y033774D01*
X049016Y033580D01*
X048967Y033532D01*
X048870Y033532D01*
X048822Y033580D01*
X048822Y033774D01*
X048870Y033822D01*
X048967Y033822D01*
X049016Y033774D01*
D54*
X044176Y027517D02*
X043376Y027517D01*
X043276Y027417D01*
X043176Y027517D01*
X042376Y027517D01*
X042276Y027417D01*
X042176Y027517D01*
X041376Y027517D01*
X041276Y027417D01*
X041176Y027517D01*
X040376Y027517D01*
X040276Y027417D01*
X040276Y026617D01*
X040376Y026517D01*
X041176Y026517D01*
X041276Y026617D01*
X041376Y026517D01*
X042176Y026517D01*
X042276Y026617D01*
X042376Y026517D01*
X043176Y026517D01*
X043276Y026617D01*
X043376Y026517D01*
X044176Y026517D01*
X044276Y026617D01*
X044276Y027417D01*
X044176Y027517D01*
X044176Y025517D02*
X043376Y025517D01*
X043276Y025417D01*
X043176Y025517D01*
X042376Y025517D01*
X042276Y025417D01*
X042176Y025517D01*
X041376Y025517D01*
X041276Y025417D01*
X041176Y025517D01*
X040376Y025517D01*
X040276Y025417D01*
X040276Y024617D01*
X040376Y024517D01*
X041176Y024517D01*
X041276Y024617D01*
X041376Y024517D01*
X042176Y024517D01*
X042276Y024617D01*
X042376Y024517D01*
X043176Y024517D01*
X043276Y024617D01*
X043376Y024517D01*
X044176Y024517D01*
X044276Y024617D01*
X044276Y025417D01*
X044176Y025517D01*
X044176Y023517D02*
X043376Y023517D01*
X043276Y023417D01*
X043176Y023517D01*
X042376Y023517D01*
X042276Y023417D01*
X042176Y023517D01*
X041376Y023517D01*
X041276Y023417D01*
X041176Y023517D01*
X040376Y023517D01*
X040276Y023417D01*
X040276Y022617D01*
X040376Y022517D01*
X041176Y022517D01*
X041276Y022617D01*
X041376Y022517D01*
X042176Y022517D01*
X042276Y022617D01*
X042376Y022517D01*
X043176Y022517D01*
X043276Y022617D01*
X043376Y022517D01*
X044176Y022517D01*
X044276Y022617D01*
X044276Y023417D01*
X044176Y023517D01*
X044276Y021017D02*
X044276Y020017D01*
X044276Y017917D01*
X044237Y017915D01*
X044198Y017909D01*
X044160Y017900D01*
X044123Y017887D01*
X044087Y017870D01*
X044054Y017850D01*
X044022Y017826D01*
X043993Y017800D01*
X043967Y017771D01*
X043943Y017739D01*
X043923Y017706D01*
X043906Y017670D01*
X043893Y017633D01*
X043884Y017595D01*
X043878Y017556D01*
X043876Y017517D01*
X043878Y017478D01*
X043884Y017439D01*
X043893Y017401D01*
X043906Y017364D01*
X043923Y017328D01*
X043943Y017295D01*
X043967Y017263D01*
X043993Y017234D01*
X044022Y017208D01*
X044054Y017184D01*
X044087Y017164D01*
X044123Y017147D01*
X044160Y017134D01*
X044198Y017125D01*
X044237Y017119D01*
X044276Y017117D01*
X044276Y015017D01*
X024276Y015017D01*
X024276Y020017D01*
X024276Y021017D01*
X044276Y021017D01*
X044276Y020017D02*
X024276Y020017D01*
X022226Y020117D02*
X010326Y020117D01*
X010326Y014917D01*
X022226Y014917D01*
X022226Y017017D01*
X022182Y017019D01*
X022139Y017025D01*
X022097Y017034D01*
X022055Y017047D01*
X022015Y017064D01*
X021976Y017084D01*
X021939Y017107D01*
X021905Y017134D01*
X021872Y017163D01*
X021843Y017196D01*
X021816Y017230D01*
X021793Y017267D01*
X021773Y017306D01*
X021756Y017346D01*
X021743Y017388D01*
X021734Y017430D01*
X021728Y017473D01*
X021726Y017517D01*
X021728Y017561D01*
X021734Y017604D01*
X021743Y017646D01*
X021756Y017688D01*
X021773Y017728D01*
X021793Y017767D01*
X021816Y017804D01*
X021843Y017838D01*
X021872Y017871D01*
X021905Y017900D01*
X021939Y017927D01*
X021976Y017950D01*
X022015Y017970D01*
X022055Y017987D01*
X022097Y018000D01*
X022139Y018009D01*
X022182Y018015D01*
X022226Y018017D01*
X022226Y020117D01*
X022076Y022910D02*
X021476Y022910D01*
X021459Y022912D01*
X021442Y022916D01*
X021426Y022923D01*
X021412Y022933D01*
X021399Y022946D01*
X021389Y022960D01*
X021382Y022976D01*
X021378Y022993D01*
X021376Y023010D01*
X021376Y023410D01*
X021426Y023460D01*
X021426Y024573D01*
X021376Y024623D01*
X021376Y025023D01*
X021378Y025040D01*
X021382Y025057D01*
X021389Y025073D01*
X021399Y025087D01*
X021412Y025100D01*
X021426Y025110D01*
X021442Y025117D01*
X021459Y025121D01*
X021476Y025123D01*
X022076Y025123D01*
X022093Y025121D01*
X022110Y025117D01*
X022126Y025110D01*
X022140Y025100D01*
X022153Y025087D01*
X022163Y025073D01*
X022170Y025057D01*
X022174Y025040D01*
X022176Y025023D01*
X022176Y024623D01*
X022126Y024573D01*
X022126Y023460D01*
X022176Y023410D01*
X022176Y023010D01*
X022174Y022993D01*
X022170Y022976D01*
X022163Y022960D01*
X022153Y022946D01*
X022140Y022933D01*
X022126Y022923D01*
X022110Y022916D01*
X022093Y022912D01*
X022076Y022910D01*
X022876Y023010D02*
X022876Y023410D01*
X022926Y023460D01*
X022926Y024573D01*
X022876Y024623D01*
X022876Y025023D01*
X022878Y025040D01*
X022882Y025057D01*
X022889Y025073D01*
X022899Y025087D01*
X022912Y025100D01*
X022926Y025110D01*
X022942Y025117D01*
X022959Y025121D01*
X022976Y025123D01*
X023576Y025123D01*
X023593Y025121D01*
X023610Y025117D01*
X023626Y025110D01*
X023640Y025100D01*
X023653Y025087D01*
X023663Y025073D01*
X023670Y025057D01*
X023674Y025040D01*
X023676Y025023D01*
X023676Y024623D01*
X023626Y024573D01*
X023626Y023460D01*
X023676Y023410D01*
X023676Y023010D01*
X023674Y022993D01*
X023670Y022976D01*
X023663Y022960D01*
X023653Y022946D01*
X023640Y022933D01*
X023626Y022923D01*
X023610Y022916D01*
X023593Y022912D01*
X023576Y022910D01*
X022976Y022910D01*
X022959Y022912D01*
X022942Y022916D01*
X022926Y022923D01*
X022912Y022933D01*
X022899Y022946D01*
X022889Y022960D01*
X022882Y022976D01*
X022878Y022993D01*
X022876Y023010D01*
X024376Y023010D02*
X024376Y023410D01*
X024426Y023460D01*
X024426Y024573D01*
X024376Y024623D01*
X024376Y025023D01*
X024378Y025040D01*
X024382Y025057D01*
X024389Y025073D01*
X024399Y025087D01*
X024412Y025100D01*
X024426Y025110D01*
X024442Y025117D01*
X024459Y025121D01*
X024476Y025123D01*
X025076Y025123D01*
X025093Y025121D01*
X025110Y025117D01*
X025126Y025110D01*
X025140Y025100D01*
X025153Y025087D01*
X025163Y025073D01*
X025170Y025057D01*
X025174Y025040D01*
X025176Y025023D01*
X025176Y024623D01*
X025126Y024573D01*
X025126Y023460D01*
X025176Y023410D01*
X025176Y023010D01*
X025174Y022993D01*
X025170Y022976D01*
X025163Y022960D01*
X025153Y022946D01*
X025140Y022933D01*
X025126Y022923D01*
X025110Y022916D01*
X025093Y022912D01*
X025076Y022910D01*
X024476Y022910D01*
X024459Y022912D01*
X024442Y022916D01*
X024426Y022923D01*
X024412Y022933D01*
X024399Y022946D01*
X024389Y022960D01*
X024382Y022976D01*
X024378Y022993D01*
X024376Y023010D01*
X028276Y023767D02*
X028276Y025267D01*
X028526Y025517D01*
X029026Y025517D01*
X029276Y025267D01*
X029276Y023767D01*
X029026Y023517D01*
X028526Y023517D01*
X028276Y023767D01*
X029276Y023767D02*
X029526Y023517D01*
X030026Y023517D01*
X030276Y023767D01*
X030276Y025267D01*
X030026Y025517D01*
X029526Y025517D01*
X029276Y025267D01*
X030276Y025267D02*
X030526Y025517D01*
X031026Y025517D01*
X031276Y025267D01*
X031276Y023767D01*
X031026Y023517D01*
X030526Y023517D01*
X030276Y023767D01*
X031276Y023767D02*
X031526Y023517D01*
X032026Y023517D01*
X032276Y023767D01*
X032276Y025267D01*
X032026Y025517D01*
X031526Y025517D01*
X031276Y025267D01*
X032276Y025267D02*
X032526Y025517D01*
X033026Y025517D01*
X033276Y025267D01*
X033276Y023767D01*
X033026Y023517D01*
X032526Y023517D01*
X032276Y023767D01*
X037376Y024010D02*
X037376Y024410D01*
X037426Y024460D01*
X037426Y025573D01*
X037376Y025623D01*
X037376Y026023D01*
X037378Y026040D01*
X037382Y026057D01*
X037389Y026073D01*
X037399Y026087D01*
X037412Y026100D01*
X037426Y026110D01*
X037442Y026117D01*
X037459Y026121D01*
X037476Y026123D01*
X038076Y026123D01*
X038093Y026121D01*
X038110Y026117D01*
X038126Y026110D01*
X038140Y026100D01*
X038153Y026087D01*
X038163Y026073D01*
X038170Y026057D01*
X038174Y026040D01*
X038176Y026023D01*
X038176Y025623D01*
X038126Y025573D01*
X038126Y024460D01*
X038176Y024410D01*
X038176Y024010D01*
X038174Y023993D01*
X038170Y023976D01*
X038163Y023960D01*
X038153Y023946D01*
X038140Y023933D01*
X038126Y023923D01*
X038110Y023916D01*
X038093Y023912D01*
X038076Y023910D01*
X037476Y023910D01*
X037459Y023912D01*
X037442Y023916D01*
X037426Y023923D01*
X037412Y023933D01*
X037399Y023946D01*
X037389Y023960D01*
X037382Y023976D01*
X037378Y023993D01*
X037376Y024010D01*
X038876Y024010D02*
X038876Y024410D01*
X038926Y024460D01*
X038926Y025573D01*
X038876Y025623D01*
X038876Y026023D01*
X038878Y026040D01*
X038882Y026057D01*
X038889Y026073D01*
X038899Y026087D01*
X038912Y026100D01*
X038926Y026110D01*
X038942Y026117D01*
X038959Y026121D01*
X038976Y026123D01*
X039576Y026123D01*
X039593Y026121D01*
X039610Y026117D01*
X039626Y026110D01*
X039640Y026100D01*
X039653Y026087D01*
X039663Y026073D01*
X039670Y026057D01*
X039674Y026040D01*
X039676Y026023D01*
X039676Y025623D01*
X039626Y025573D01*
X039626Y024460D01*
X039676Y024410D01*
X039676Y024010D01*
X039674Y023993D01*
X039670Y023976D01*
X039663Y023960D01*
X039653Y023946D01*
X039640Y023933D01*
X039626Y023923D01*
X039610Y023916D01*
X039593Y023912D01*
X039576Y023910D01*
X038976Y023910D01*
X038959Y023912D01*
X038942Y023916D01*
X038926Y023923D01*
X038912Y023933D01*
X038899Y023946D01*
X038889Y023960D01*
X038882Y023976D01*
X038878Y023993D01*
X038876Y024010D01*
X044276Y015017D02*
X044276Y014017D01*
X024276Y014017D01*
X024276Y015017D01*
X023526Y011517D02*
X023026Y011517D01*
X022776Y011267D01*
X022776Y009767D01*
X022526Y009517D01*
X022026Y009517D01*
X021776Y009767D01*
X021526Y009517D01*
X021026Y009517D01*
X020776Y009767D01*
X020776Y011267D01*
X021026Y011517D01*
X021526Y011517D01*
X021776Y011267D01*
X021776Y009767D01*
X022776Y009767D02*
X023026Y009517D01*
X023526Y009517D01*
X023776Y009767D01*
X023776Y011267D01*
X023526Y011517D01*
X022776Y011267D02*
X022526Y011517D01*
X022026Y011517D01*
X021776Y011267D01*
X017276Y011267D02*
X017276Y009767D01*
X017026Y009517D01*
X016526Y009517D01*
X016276Y009767D01*
X016276Y011267D01*
X016026Y011517D01*
X015526Y011517D01*
X015276Y011267D01*
X015276Y009767D01*
X015026Y009517D01*
X014526Y009517D01*
X014276Y009767D01*
X014026Y009517D01*
X013526Y009517D01*
X013276Y009767D01*
X013276Y011267D01*
X013526Y011517D01*
X014026Y011517D01*
X014276Y011267D01*
X014276Y009767D01*
X015276Y009767D02*
X015526Y009517D01*
X016026Y009517D01*
X016276Y009767D01*
X016276Y011267D02*
X016526Y011517D01*
X017026Y011517D01*
X017276Y011267D01*
X015276Y011267D02*
X015026Y011517D01*
X014526Y011517D01*
X014276Y011267D01*
X009776Y011267D02*
X009776Y009767D01*
X009526Y009517D01*
X009026Y009517D01*
X008776Y009767D01*
X008776Y011267D01*
X008526Y011517D01*
X008026Y011517D01*
X007776Y011267D01*
X007776Y009767D01*
X007526Y009517D01*
X007026Y009517D01*
X006776Y009767D01*
X006526Y009517D01*
X006026Y009517D01*
X005776Y009767D01*
X005776Y011267D01*
X006026Y011517D01*
X006526Y011517D01*
X006776Y011267D01*
X006776Y009767D01*
X007776Y009767D02*
X008026Y009517D01*
X008526Y009517D01*
X008776Y009767D01*
X008776Y011267D02*
X009026Y011517D01*
X009526Y011517D01*
X009776Y011267D01*
X007776Y011267D02*
X007526Y011517D01*
X007026Y011517D01*
X006776Y011267D01*
X007026Y006517D02*
X007526Y006517D01*
X007776Y006267D01*
X007776Y004767D01*
X007526Y004517D01*
X007026Y004517D01*
X006776Y004767D01*
X006526Y004517D01*
X006026Y004517D01*
X005776Y004767D01*
X005776Y006267D01*
X006026Y006517D01*
X006526Y006517D01*
X006776Y006267D01*
X006776Y004767D01*
X007776Y004767D02*
X008026Y004517D01*
X008526Y004517D01*
X008776Y004767D01*
X008776Y006267D01*
X008526Y006517D01*
X008026Y006517D01*
X007776Y006267D01*
X007026Y006517D02*
X006776Y006267D01*
X008776Y006267D02*
X009026Y006517D01*
X009526Y006517D01*
X009776Y006267D01*
X009776Y004767D01*
X009526Y004517D01*
X009026Y004517D01*
X008776Y004767D01*
X013276Y004767D02*
X013526Y004517D01*
X014026Y004517D01*
X014276Y004767D01*
X014276Y006267D01*
X014026Y006517D01*
X013526Y006517D01*
X013276Y006267D01*
X013276Y004767D01*
X014276Y004767D02*
X014526Y004517D01*
X015026Y004517D01*
X015276Y004767D01*
X015276Y006267D01*
X015026Y006517D01*
X014526Y006517D01*
X014276Y006267D01*
X015276Y006267D02*
X015526Y006517D01*
X016026Y006517D01*
X016276Y006267D01*
X016276Y004767D01*
X016026Y004517D01*
X015526Y004517D01*
X015276Y004767D01*
X016276Y004767D02*
X016526Y004517D01*
X017026Y004517D01*
X017276Y004767D01*
X017276Y006267D01*
X017026Y006517D01*
X016526Y006517D01*
X016276Y006267D01*
X020776Y006267D02*
X020776Y004767D01*
X021026Y004517D01*
X021526Y004517D01*
X021776Y004767D01*
X021776Y006267D01*
X021526Y006517D01*
X021026Y006517D01*
X020776Y006267D01*
X021776Y006267D02*
X022026Y006517D01*
X022526Y006517D01*
X022776Y006267D01*
X022776Y004767D01*
X022526Y004517D01*
X022026Y004517D01*
X021776Y004767D01*
X022776Y004767D02*
X023026Y004517D01*
X023526Y004517D01*
X023776Y004767D01*
X023776Y006267D01*
X023526Y006517D01*
X023026Y006517D01*
X022776Y006267D01*
X028776Y006267D02*
X028776Y004767D01*
X029026Y004517D01*
X029526Y004517D01*
X029776Y004767D01*
X029776Y006267D01*
X029526Y006517D01*
X029026Y006517D01*
X028776Y006267D01*
X029776Y006267D02*
X030026Y006517D01*
X030526Y006517D01*
X030776Y006267D01*
X030776Y004767D01*
X030526Y004517D01*
X030026Y004517D01*
X029776Y004767D01*
X030776Y004767D02*
X031026Y004517D01*
X031526Y004517D01*
X031776Y004767D01*
X031776Y006267D01*
X031526Y006517D01*
X031026Y006517D01*
X030776Y006267D01*
X035776Y006267D02*
X035776Y004767D01*
X036026Y004517D01*
X036526Y004517D01*
X036776Y004767D01*
X036776Y006267D01*
X036526Y006517D01*
X036026Y006517D01*
X035776Y006267D01*
X036776Y006267D02*
X037026Y006517D01*
X037526Y006517D01*
X037776Y006267D01*
X037776Y004767D01*
X037526Y004517D01*
X037026Y004517D01*
X036776Y004767D01*
X037776Y004767D02*
X038026Y004517D01*
X038526Y004517D01*
X038776Y004767D01*
X038776Y006267D01*
X038526Y006517D01*
X038026Y006517D01*
X037776Y006267D01*
X038776Y006267D02*
X039026Y006517D01*
X039526Y006517D01*
X039776Y006267D01*
X039776Y004767D01*
X039526Y004517D01*
X039026Y004517D01*
X038776Y004767D01*
X043276Y004767D02*
X043526Y004517D01*
X044026Y004517D01*
X044276Y004767D01*
X044276Y006267D01*
X044026Y006517D01*
X043526Y006517D01*
X043276Y006267D01*
X043276Y004767D01*
X044276Y004767D02*
X044526Y004517D01*
X045026Y004517D01*
X045276Y004767D01*
X045276Y006267D01*
X045026Y006517D01*
X044526Y006517D01*
X044276Y006267D01*
X045276Y006267D02*
X045526Y006517D01*
X046026Y006517D01*
X046276Y006267D01*
X046276Y004767D01*
X046026Y004517D01*
X045526Y004517D01*
X045276Y004767D01*
X046276Y004767D02*
X046526Y004517D01*
X047026Y004517D01*
X047276Y004767D01*
X047276Y006267D01*
X047026Y006517D01*
X046526Y006517D01*
X046276Y006267D01*
X047276Y006267D02*
X047526Y006517D01*
X048026Y006517D01*
X048276Y006267D01*
X048276Y004767D01*
X048026Y004517D01*
X047526Y004517D01*
X047276Y004767D01*
X047476Y009410D02*
X048076Y009410D01*
X048093Y009412D01*
X048110Y009416D01*
X048126Y009423D01*
X048140Y009433D01*
X048153Y009446D01*
X048163Y009460D01*
X048170Y009476D01*
X048174Y009493D01*
X048176Y009510D01*
X048176Y009910D01*
X048126Y009960D01*
X048126Y011073D01*
X048176Y011123D01*
X048176Y011523D01*
X048174Y011540D01*
X048170Y011557D01*
X048163Y011573D01*
X048153Y011587D01*
X048140Y011600D01*
X048126Y011610D01*
X048110Y011617D01*
X048093Y011621D01*
X048076Y011623D01*
X047476Y011623D01*
X047459Y011621D01*
X047442Y011617D01*
X047426Y011610D01*
X047412Y011600D01*
X047399Y011587D01*
X047389Y011573D01*
X047382Y011557D01*
X047378Y011540D01*
X047376Y011523D01*
X047376Y011123D01*
X047426Y011073D01*
X047426Y009960D01*
X047376Y009910D01*
X047376Y009510D01*
X047378Y009493D01*
X047382Y009476D01*
X047389Y009460D01*
X047399Y009446D01*
X047412Y009433D01*
X047426Y009423D01*
X047442Y009416D01*
X047459Y009412D01*
X047476Y009410D01*
X046676Y009510D02*
X046676Y009910D01*
X046626Y009960D01*
X046626Y011073D01*
X046676Y011123D01*
X046676Y011523D01*
X046674Y011540D01*
X046670Y011557D01*
X046663Y011573D01*
X046653Y011587D01*
X046640Y011600D01*
X046626Y011610D01*
X046610Y011617D01*
X046593Y011621D01*
X046576Y011623D01*
X045976Y011623D01*
X045959Y011621D01*
X045942Y011617D01*
X045926Y011610D01*
X045912Y011600D01*
X045899Y011587D01*
X045889Y011573D01*
X045882Y011557D01*
X045878Y011540D01*
X045876Y011523D01*
X045876Y011123D01*
X045926Y011073D01*
X045926Y009960D01*
X045876Y009910D01*
X045876Y009510D01*
X045878Y009493D01*
X045882Y009476D01*
X045889Y009460D01*
X045899Y009446D01*
X045912Y009433D01*
X045926Y009423D01*
X045942Y009416D01*
X045959Y009412D01*
X045976Y009410D01*
X046576Y009410D01*
X046593Y009412D01*
X046610Y009416D01*
X046626Y009423D01*
X046640Y009433D01*
X046653Y009446D01*
X046663Y009460D01*
X046670Y009476D01*
X046674Y009493D01*
X046676Y009510D01*
X044776Y009617D02*
X044776Y010417D01*
X044676Y010517D01*
X044776Y010617D01*
X044776Y011417D01*
X044676Y011517D01*
X043876Y011517D01*
X043776Y011417D01*
X043776Y010617D01*
X043876Y010517D01*
X043776Y010417D01*
X043776Y009617D01*
X043876Y009517D01*
X044676Y009517D01*
X044776Y009617D01*
X043276Y009617D02*
X043276Y010417D01*
X043176Y010517D01*
X043276Y010617D01*
X043276Y011417D01*
X043176Y011517D01*
X042376Y011517D01*
X042276Y011417D01*
X042276Y010617D01*
X042376Y010517D01*
X042276Y010417D01*
X042276Y009617D01*
X042376Y009517D01*
X043176Y009517D01*
X043276Y009617D01*
X039776Y009767D02*
X039526Y009517D01*
X039026Y009517D01*
X038776Y009767D01*
X038776Y011267D01*
X038526Y011517D01*
X038026Y011517D01*
X037776Y011267D01*
X037776Y009767D01*
X037526Y009517D01*
X037026Y009517D01*
X036776Y009767D01*
X036526Y009517D01*
X036026Y009517D01*
X035776Y009767D01*
X035776Y011267D01*
X036026Y011517D01*
X036526Y011517D01*
X036776Y011267D01*
X036776Y009767D01*
X037776Y009767D02*
X038026Y009517D01*
X038526Y009517D01*
X038776Y009767D01*
X039776Y009767D02*
X039776Y011267D01*
X039526Y011517D01*
X039026Y011517D01*
X038776Y011267D01*
X037776Y011267D02*
X037526Y011517D01*
X037026Y011517D01*
X036776Y011267D01*
X031776Y011267D02*
X031776Y009767D01*
X031526Y009517D01*
X031026Y009517D01*
X030776Y009767D01*
X030776Y011267D01*
X031026Y011517D01*
X031526Y011517D01*
X031776Y011267D01*
X030776Y011267D02*
X030526Y011517D01*
X030026Y011517D01*
X029776Y011267D01*
X029776Y009767D01*
X030026Y009517D01*
X030526Y009517D01*
X030776Y009767D01*
X029776Y009767D02*
X029526Y009517D01*
X029026Y009517D01*
X028776Y009767D01*
X028776Y011267D01*
X029026Y011517D01*
X029526Y011517D01*
X029776Y011267D01*
X048876Y011123D02*
X048926Y011073D01*
X048926Y009960D01*
X048876Y009910D01*
X048876Y009510D01*
X048878Y009493D01*
X048882Y009476D01*
X048889Y009460D01*
X048899Y009446D01*
X048912Y009433D01*
X048926Y009423D01*
X048942Y009416D01*
X048959Y009412D01*
X048976Y009410D01*
X049576Y009410D01*
X049593Y009412D01*
X049610Y009416D01*
X049626Y009423D01*
X049640Y009433D01*
X049653Y009446D01*
X049663Y009460D01*
X049670Y009476D01*
X049674Y009493D01*
X049676Y009510D01*
X049676Y009910D01*
X049626Y009960D01*
X049626Y011073D01*
X049676Y011123D01*
X049676Y011523D01*
X049674Y011540D01*
X049670Y011557D01*
X049663Y011573D01*
X049653Y011587D01*
X049640Y011600D01*
X049626Y011610D01*
X049610Y011617D01*
X049593Y011621D01*
X049576Y011623D01*
X048976Y011623D01*
X048959Y011621D01*
X048942Y011617D01*
X048926Y011610D01*
X048912Y011600D01*
X048899Y011587D01*
X048889Y011573D01*
X048882Y011557D01*
X048878Y011540D01*
X048876Y011523D01*
X048876Y011123D01*
X023776Y028767D02*
X023526Y028517D01*
X023026Y028517D01*
X022776Y028767D01*
X022776Y030267D01*
X022526Y030517D01*
X022026Y030517D01*
X021776Y030267D01*
X021526Y030517D01*
X021026Y030517D01*
X020776Y030267D01*
X020776Y028767D01*
X021026Y028517D01*
X021526Y028517D01*
X021776Y028767D01*
X021776Y030267D01*
X022776Y030267D02*
X023026Y030517D01*
X023526Y030517D01*
X023776Y030267D01*
X023776Y028767D01*
X022776Y028767D02*
X022526Y028517D01*
X022026Y028517D01*
X021776Y028767D01*
X017276Y028767D02*
X017026Y028517D01*
X016526Y028517D01*
X016276Y028767D01*
X016276Y030267D01*
X016026Y030517D01*
X015526Y030517D01*
X015276Y030267D01*
X015276Y028767D01*
X015026Y028517D01*
X014526Y028517D01*
X014276Y028767D01*
X014026Y028517D01*
X013526Y028517D01*
X013276Y028767D01*
X013276Y030267D01*
X013526Y030517D01*
X014026Y030517D01*
X014276Y030267D01*
X014276Y028767D01*
X015276Y028767D02*
X015526Y028517D01*
X016026Y028517D01*
X016276Y028767D01*
X017276Y028767D02*
X017276Y030267D01*
X017026Y030517D01*
X016526Y030517D01*
X016276Y030267D01*
X015276Y030267D02*
X015026Y030517D01*
X014526Y030517D01*
X014276Y030267D01*
X009776Y030267D02*
X009776Y028767D01*
X009526Y028517D01*
X009026Y028517D01*
X008776Y028767D01*
X008776Y030267D01*
X008526Y030517D01*
X008026Y030517D01*
X007776Y030267D01*
X007776Y028767D01*
X007526Y028517D01*
X007026Y028517D01*
X006776Y028767D01*
X006526Y028517D01*
X006026Y028517D01*
X005776Y028767D01*
X005776Y030267D01*
X006026Y030517D01*
X006526Y030517D01*
X006776Y030267D01*
X006776Y028767D01*
X007776Y028767D02*
X008026Y028517D01*
X008526Y028517D01*
X008776Y028767D01*
X008776Y030267D02*
X009026Y030517D01*
X009526Y030517D01*
X009776Y030267D01*
X007776Y030267D02*
X007526Y030517D01*
X007026Y030517D01*
X006776Y030267D01*
X007026Y025517D02*
X006776Y025267D01*
X006776Y023767D01*
X007026Y023517D01*
X007526Y023517D01*
X007776Y023767D01*
X007776Y025267D01*
X008026Y025517D01*
X008526Y025517D01*
X008776Y025267D01*
X009026Y025517D01*
X009526Y025517D01*
X009776Y025267D01*
X009776Y023767D01*
X009526Y023517D01*
X009026Y023517D01*
X008776Y023767D01*
X008776Y025267D01*
X007776Y025267D02*
X007526Y025517D01*
X007026Y025517D01*
X006776Y025267D02*
X006526Y025517D01*
X006026Y025517D01*
X005776Y025267D01*
X005776Y023767D01*
X006026Y023517D01*
X006526Y023517D01*
X006776Y023767D01*
X007776Y023767D02*
X008026Y023517D01*
X008526Y023517D01*
X008776Y023767D01*
X013276Y023767D02*
X013276Y025267D01*
X013526Y025517D01*
X014026Y025517D01*
X014276Y025267D01*
X014276Y023767D01*
X014026Y023517D01*
X013526Y023517D01*
X013276Y023767D01*
X014276Y023767D02*
X014526Y023517D01*
X015026Y023517D01*
X015276Y023767D01*
X015276Y025267D01*
X015026Y025517D01*
X014526Y025517D01*
X014276Y025267D01*
X015276Y025267D02*
X015526Y025517D01*
X016026Y025517D01*
X016276Y025267D01*
X016276Y023767D01*
X016026Y023517D01*
X015526Y023517D01*
X015276Y023767D01*
X016276Y023767D02*
X016526Y023517D01*
X017026Y023517D01*
X017276Y023767D01*
X017276Y025267D01*
X017026Y025517D01*
X016526Y025517D01*
X016276Y025267D01*
D55*
X035838Y019092D02*
X035838Y018792D01*
X035838Y019017D02*
X036138Y019017D01*
X036138Y019092D02*
X036138Y018792D01*
X036298Y018792D02*
X036298Y019242D01*
X036524Y019242D01*
X036599Y019167D01*
X036599Y019017D01*
X036524Y018942D01*
X036298Y018942D01*
X036448Y018942D02*
X036599Y018792D01*
X036759Y018792D02*
X036984Y018792D01*
X037059Y018867D01*
X037059Y019167D01*
X036984Y019242D01*
X036759Y019242D01*
X036759Y018792D01*
X037219Y018867D02*
X037219Y019242D01*
X037519Y019242D02*
X037519Y018867D01*
X037444Y018792D01*
X037294Y018792D01*
X037219Y018867D01*
X037679Y018792D02*
X037830Y018792D01*
X037755Y018792D02*
X037755Y019242D01*
X037830Y019242D02*
X037679Y019242D01*
X037986Y019242D02*
X038287Y018792D01*
X038287Y019242D01*
X038447Y019167D02*
X038447Y018867D01*
X038522Y018792D01*
X038672Y018792D01*
X038747Y018867D01*
X038747Y019167D01*
X038672Y019242D01*
X038522Y019242D01*
X038447Y019167D01*
X037986Y019242D02*
X037986Y018792D01*
X038907Y019017D02*
X039207Y019017D01*
X039368Y019242D02*
X039668Y019242D01*
X039518Y019242D02*
X039518Y018792D01*
X039828Y018792D02*
X039828Y019242D01*
X040128Y019242D01*
X040288Y019242D02*
X040288Y018792D01*
X040589Y018792D01*
X040749Y018792D02*
X040749Y019242D01*
X041049Y018792D01*
X041049Y019242D01*
X041209Y019167D02*
X041209Y019092D01*
X041284Y019017D01*
X041434Y019017D01*
X041509Y018942D01*
X041509Y018867D01*
X041434Y018792D01*
X041284Y018792D01*
X041209Y018867D01*
X041209Y019167D02*
X041284Y019242D01*
X041434Y019242D01*
X041509Y019167D01*
X041670Y019167D02*
X041820Y019017D01*
X041820Y018792D01*
X041820Y019017D02*
X041970Y019167D01*
X041970Y019242D01*
X042130Y019017D02*
X042430Y019017D01*
X042590Y019017D02*
X042891Y019017D01*
X042740Y019167D02*
X042740Y018867D01*
X042280Y018867D02*
X042280Y019167D01*
X041670Y019167D02*
X041670Y019242D01*
X040589Y019242D02*
X040288Y019242D01*
X040288Y019017D02*
X040439Y019017D01*
X040128Y018792D02*
X039828Y018792D01*
X039828Y019017D02*
X039978Y019017D01*
X036138Y019092D02*
X035988Y019242D01*
X035838Y019092D01*
X040612Y023702D02*
X040612Y024042D01*
X040442Y023872D01*
X040669Y023872D01*
X041442Y023985D02*
X041498Y024042D01*
X041612Y024042D01*
X041669Y023985D01*
X041669Y023929D01*
X041612Y023872D01*
X041669Y023815D01*
X041669Y023758D01*
X041612Y023702D01*
X041498Y023702D01*
X041442Y023758D01*
X041555Y023872D02*
X041612Y023872D01*
X042442Y023985D02*
X042498Y024042D01*
X042612Y024042D01*
X042669Y023985D01*
X042669Y023929D01*
X042442Y023702D01*
X042669Y023702D01*
X043442Y023702D02*
X043669Y023702D01*
X043555Y023702D02*
X043555Y024042D01*
X043442Y023929D01*
X043442Y025702D02*
X043669Y025702D01*
X043555Y025702D02*
X043555Y026042D01*
X043442Y025929D01*
X042669Y025929D02*
X042669Y025985D01*
X042612Y026042D01*
X042498Y026042D01*
X042442Y025985D01*
X042669Y025929D02*
X042442Y025702D01*
X042669Y025702D01*
X041669Y025758D02*
X041612Y025702D01*
X041498Y025702D01*
X041442Y025758D01*
X041555Y025872D02*
X041612Y025872D01*
X041669Y025815D01*
X041669Y025758D01*
X041612Y025872D02*
X041669Y025929D01*
X041669Y025985D01*
X041612Y026042D01*
X041498Y026042D01*
X041442Y025985D01*
X040669Y025872D02*
X040442Y025872D01*
X040612Y026042D01*
X040612Y025702D01*
X040612Y027702D02*
X040612Y028042D01*
X040442Y027872D01*
X040669Y027872D01*
X041442Y027985D02*
X041498Y028042D01*
X041612Y028042D01*
X041669Y027985D01*
X041669Y027929D01*
X041612Y027872D01*
X041669Y027815D01*
X041669Y027758D01*
X041612Y027702D01*
X041498Y027702D01*
X041442Y027758D01*
X041555Y027872D02*
X041612Y027872D01*
X042442Y027985D02*
X042498Y028042D01*
X042612Y028042D01*
X042669Y027985D01*
X042669Y027929D01*
X042442Y027702D01*
X042669Y027702D01*
X043442Y027702D02*
X043669Y027702D01*
X043555Y027702D02*
X043555Y028042D01*
X043442Y027929D01*
X042956Y028892D02*
X042806Y029042D01*
X042806Y029192D01*
X042956Y029342D01*
X042646Y029342D02*
X042345Y028892D01*
X042185Y028892D02*
X041885Y028892D01*
X041885Y029342D01*
X041725Y029267D02*
X041650Y029342D01*
X041500Y029342D01*
X041425Y029267D01*
X041425Y028967D01*
X041500Y028892D01*
X041650Y028892D01*
X041725Y028967D01*
X041264Y028967D02*
X041189Y028892D01*
X041039Y028892D01*
X040964Y028967D01*
X041039Y029117D02*
X041189Y029117D01*
X041264Y029042D01*
X041264Y028967D01*
X041039Y029117D02*
X040964Y029192D01*
X040964Y029267D01*
X041039Y029342D01*
X041189Y029342D01*
X041264Y029267D01*
X040804Y029342D02*
X040504Y028892D01*
X040344Y028892D02*
X040344Y029192D01*
X040193Y029342D01*
X040043Y029192D01*
X040043Y028892D01*
X039883Y028967D02*
X039883Y029267D01*
X039808Y029342D01*
X039583Y029342D01*
X039583Y028892D01*
X039808Y028892D01*
X039883Y028967D01*
X040043Y029117D02*
X040344Y029117D01*
X039423Y029042D02*
X039423Y028967D01*
X039348Y028892D01*
X039198Y028892D01*
X039123Y028967D01*
X039198Y029117D02*
X039123Y029192D01*
X039123Y029267D01*
X039198Y029342D01*
X039348Y029342D01*
X039423Y029267D01*
X039348Y029117D02*
X039423Y029042D01*
X039348Y029117D02*
X039198Y029117D01*
X038962Y029342D02*
X038662Y028892D01*
X038505Y029042D02*
X038505Y029192D01*
X038355Y029342D01*
X038505Y029042D02*
X038355Y028892D01*
X037735Y029117D02*
X037434Y029117D01*
X037585Y029267D02*
X037585Y028967D01*
X036817Y028892D02*
X036667Y029042D01*
X036667Y029192D01*
X036817Y029342D01*
X043573Y029117D02*
X043873Y029117D01*
X044494Y029342D02*
X044644Y029192D01*
X044644Y029042D01*
X044494Y028892D01*
D56*
X034642Y027170D02*
X034335Y026863D01*
X034412Y026787D01*
X034566Y026787D01*
X034642Y026863D01*
X034642Y027170D01*
X034566Y027247D01*
X034412Y027247D01*
X034335Y027170D01*
X034335Y026863D01*
X034182Y026787D02*
X033875Y026787D01*
X034028Y026787D02*
X034028Y027247D01*
X033875Y027094D01*
X033721Y026863D02*
X033721Y026787D01*
X033645Y026787D01*
X033645Y026863D01*
X033721Y026863D01*
X033491Y026863D02*
X033491Y027170D01*
X033415Y027247D01*
X033184Y027247D01*
X033184Y026787D01*
X033415Y026787D01*
X033491Y026863D01*
X025142Y031787D02*
X025142Y032247D01*
X024989Y032094D01*
X024835Y032247D01*
X024835Y031787D01*
X024682Y031787D02*
X024682Y032247D01*
X024375Y032247D02*
X024375Y031787D01*
X024528Y031940D01*
X024682Y031787D01*
X024221Y032017D02*
X024145Y031940D01*
X023915Y031940D01*
X023915Y031787D02*
X023915Y032247D01*
X024145Y032247D01*
X024221Y032170D01*
X024221Y032017D01*
X023301Y031940D02*
X023301Y031863D01*
X023224Y031787D01*
X023071Y031787D01*
X022994Y031863D01*
X022994Y032017D01*
X023224Y032017D01*
X023301Y031940D01*
X023147Y032170D02*
X023301Y032247D01*
X023147Y032170D02*
X022994Y032017D01*
X022840Y031863D02*
X022840Y031787D01*
X022764Y031787D01*
X022764Y031863D01*
X022840Y031863D01*
X022610Y031863D02*
X022610Y032170D01*
X022533Y032247D01*
X022303Y032247D01*
X022303Y031787D01*
X022533Y031787D01*
X022610Y031863D01*
X018642Y031940D02*
X018489Y031787D01*
X018642Y031940D02*
X018642Y032094D01*
X018489Y032247D01*
X017875Y032017D02*
X017568Y032017D01*
X017721Y032170D02*
X017721Y031863D01*
X016954Y031787D02*
X016801Y031940D01*
X016801Y032094D01*
X016954Y032247D01*
X011142Y032094D02*
X010989Y032247D01*
X011142Y032094D02*
X011142Y031940D01*
X010989Y031787D01*
X010375Y032017D02*
X010068Y032017D01*
X009454Y032247D02*
X009301Y032094D01*
X009301Y031940D01*
X009454Y031787D01*
X010145Y027247D02*
X010375Y027247D01*
X010452Y027170D01*
X010452Y026863D01*
X010375Y026787D01*
X010145Y026787D01*
X010145Y027247D01*
X010605Y026863D02*
X010682Y026863D01*
X010682Y026787D01*
X010605Y026787D01*
X010605Y026863D01*
X010835Y026863D02*
X010835Y026940D01*
X010912Y027017D01*
X011066Y027017D01*
X011142Y026940D01*
X011142Y026863D01*
X011066Y026787D01*
X010912Y026787D01*
X010835Y026863D01*
X010912Y027017D02*
X010835Y027094D01*
X010835Y027170D01*
X010912Y027247D01*
X011066Y027247D01*
X011142Y027170D01*
X011142Y027094D01*
X011066Y027017D01*
X015803Y027017D02*
X016110Y027017D01*
X016110Y027094D02*
X016110Y026787D01*
X016264Y026787D02*
X016340Y026787D01*
X016340Y026863D01*
X016264Y026863D01*
X016264Y026787D01*
X016494Y026863D02*
X016494Y026940D01*
X016571Y027017D01*
X016724Y027017D01*
X016801Y026940D01*
X016801Y026863D01*
X016724Y026787D01*
X016571Y026787D01*
X016494Y026863D01*
X016571Y027017D02*
X016494Y027094D01*
X016494Y027170D01*
X016571Y027247D01*
X016724Y027247D01*
X016801Y027170D01*
X016801Y027094D01*
X016724Y027017D01*
X016110Y027094D02*
X015957Y027247D01*
X015803Y027094D01*
X015803Y026787D01*
X017415Y026787D02*
X017415Y027247D01*
X017568Y027094D01*
X017721Y027247D01*
X017721Y026787D01*
X017875Y026863D02*
X017952Y026787D01*
X018105Y026787D01*
X018182Y026863D01*
X018182Y027247D01*
X018335Y027247D02*
X018642Y026787D01*
X018335Y026787D02*
X018642Y027247D01*
X017875Y027247D02*
X017875Y026863D01*
X017915Y013247D02*
X018068Y013094D01*
X018221Y013247D01*
X018221Y012787D01*
X018375Y012863D02*
X018452Y012787D01*
X018605Y012787D01*
X018682Y012863D01*
X018682Y013247D01*
X018835Y013247D02*
X019142Y012787D01*
X018835Y012787D02*
X019142Y013247D01*
X018375Y013247D02*
X018375Y012863D01*
X017915Y012787D02*
X017915Y013247D01*
X017301Y013170D02*
X017301Y013094D01*
X017224Y013017D01*
X017071Y013017D01*
X016994Y013094D01*
X016994Y013170D01*
X017071Y013247D01*
X017224Y013247D01*
X017301Y013170D01*
X017224Y013017D02*
X017301Y012940D01*
X017301Y012863D01*
X017224Y012787D01*
X017071Y012787D01*
X016994Y012863D01*
X016994Y012940D01*
X017071Y013017D01*
X016840Y012863D02*
X016840Y012787D01*
X016764Y012787D01*
X016764Y012863D01*
X016840Y012863D01*
X016610Y012787D02*
X016610Y013094D01*
X016457Y013247D01*
X016303Y013094D01*
X016303Y012787D01*
X016303Y013017D02*
X016610Y013017D01*
X011142Y012940D02*
X011142Y013094D01*
X010989Y013247D01*
X011142Y012940D02*
X010989Y012787D01*
X010375Y013017D02*
X010068Y013017D01*
X009454Y013247D02*
X009301Y013094D01*
X009301Y012940D01*
X009454Y012787D01*
X009454Y008247D02*
X009301Y008094D01*
X009301Y007940D01*
X009454Y007787D01*
X010068Y008017D02*
X010375Y008017D01*
X010989Y008247D02*
X011142Y008094D01*
X011142Y007940D01*
X010989Y007787D01*
X016301Y007940D02*
X016301Y008094D01*
X016454Y008247D01*
X016301Y007940D02*
X016454Y007787D01*
X017068Y008017D02*
X017375Y008017D01*
X017989Y008247D02*
X018142Y008094D01*
X018142Y007940D01*
X017989Y007787D01*
X023301Y007940D02*
X023301Y008094D01*
X023454Y008247D01*
X023301Y007940D02*
X023454Y007787D01*
X024068Y008017D02*
X024375Y008017D01*
X024989Y008247D02*
X025142Y008094D01*
X025142Y007940D01*
X024989Y007787D01*
X032301Y007940D02*
X032301Y008094D01*
X032454Y008247D01*
X032301Y007940D02*
X032454Y007787D01*
X033068Y008017D02*
X033375Y008017D01*
X033221Y008170D02*
X033221Y007863D01*
X033989Y007787D02*
X034142Y007940D01*
X034142Y008094D01*
X033989Y008247D01*
X039301Y008094D02*
X039301Y007940D01*
X039454Y007787D01*
X039301Y008094D02*
X039454Y008247D01*
X040068Y008017D02*
X040375Y008017D01*
X040221Y008170D02*
X040221Y007863D01*
X040989Y007787D02*
X041142Y007940D01*
X041142Y008094D01*
X040989Y008247D01*
X047301Y008094D02*
X047301Y007940D01*
X047454Y007787D01*
X047301Y008094D02*
X047454Y008247D01*
X048068Y008017D02*
X048375Y008017D01*
X048989Y008247D02*
X049142Y008094D01*
X049142Y007940D01*
X048989Y007787D01*
X040989Y012787D02*
X040989Y013247D01*
X041142Y013247D02*
X040835Y013247D01*
X040682Y013247D02*
X040682Y012787D01*
X040375Y013247D01*
X040375Y012787D01*
X040221Y012787D02*
X040068Y012787D01*
X040145Y012787D02*
X040145Y013247D01*
X040221Y013247D02*
X040068Y013247D01*
X039454Y013170D02*
X039454Y013094D01*
X039377Y013017D01*
X039224Y013017D01*
X039147Y013094D01*
X039147Y013170D01*
X039224Y013247D01*
X039377Y013247D01*
X039454Y013170D01*
X039377Y013017D02*
X039454Y012940D01*
X039454Y012863D01*
X039377Y012787D01*
X039224Y012787D01*
X039147Y012863D01*
X039147Y012940D01*
X039224Y013017D01*
X038994Y012863D02*
X038994Y012787D01*
X038917Y012787D01*
X038917Y012863D01*
X038994Y012863D01*
X038764Y012863D02*
X038764Y013170D01*
X038687Y013247D01*
X038457Y013247D01*
X038457Y012787D01*
X038687Y012787D01*
X038764Y012863D01*
X033142Y013170D02*
X033142Y013247D01*
X033142Y013170D02*
X032989Y013017D01*
X032989Y012787D01*
X032989Y013017D02*
X032835Y013170D01*
X032835Y013247D01*
X032682Y013170D02*
X032605Y013247D01*
X032452Y013247D01*
X032375Y013170D01*
X032375Y013094D01*
X032452Y013017D01*
X032605Y013017D01*
X032682Y012940D01*
X032682Y012863D01*
X032605Y012787D01*
X032452Y012787D01*
X032375Y012863D01*
X032068Y012787D02*
X032068Y013247D01*
X031915Y013247D02*
X032221Y013247D01*
X031301Y013247D02*
X031147Y013170D01*
X030994Y013017D01*
X031224Y013017D01*
X031301Y012940D01*
X031301Y012863D01*
X031224Y012787D01*
X031071Y012787D01*
X030994Y012863D01*
X030994Y013017D01*
X030840Y012863D02*
X030840Y012787D01*
X030764Y012787D01*
X030764Y012863D01*
X030840Y012863D01*
X030610Y012787D02*
X030610Y013094D01*
X030457Y013247D01*
X030303Y013094D01*
X030303Y012787D01*
X030303Y013017D02*
X030610Y013017D01*
X025142Y012940D02*
X025142Y013094D01*
X024989Y013247D01*
X025142Y012940D02*
X024989Y012787D01*
X024375Y013017D02*
X024068Y013017D01*
X023454Y013247D02*
X023301Y013094D01*
X023301Y012940D01*
X023454Y012787D01*
D57*
X020837Y017202D02*
X020416Y017202D01*
X020416Y017832D01*
X020837Y017832D01*
X020626Y017517D02*
X020416Y017517D01*
X020192Y017622D02*
X020087Y017517D01*
X019772Y017517D01*
X019547Y017727D02*
X019127Y017307D01*
X019127Y017202D01*
X018903Y017307D02*
X018903Y017412D01*
X018798Y017517D01*
X018483Y017517D01*
X018483Y017307D01*
X018588Y017202D01*
X018798Y017202D01*
X018903Y017307D01*
X018693Y017727D02*
X018483Y017517D01*
X018693Y017727D02*
X018903Y017832D01*
X019127Y017832D02*
X019547Y017832D01*
X019547Y017727D01*
X019772Y017832D02*
X020087Y017832D01*
X020192Y017727D01*
X020192Y017622D01*
X020087Y017517D02*
X020192Y017412D01*
X020192Y017307D01*
X020087Y017202D01*
X019772Y017202D01*
X019772Y017832D01*
X018258Y017727D02*
X018258Y017307D01*
X018153Y017202D01*
X017943Y017202D01*
X017838Y017307D01*
X018258Y017727D01*
X018153Y017832D01*
X017943Y017832D01*
X017838Y017727D01*
X017838Y017307D01*
X017614Y017517D02*
X017193Y017517D01*
X017509Y017832D01*
X017509Y017202D01*
X016969Y017307D02*
X016969Y017727D01*
X016864Y017832D01*
X016549Y017832D01*
X016549Y017202D01*
X016864Y017202D01*
X016969Y017307D01*
X016325Y017307D02*
X016220Y017202D01*
X016009Y017202D01*
X015904Y017307D01*
X015904Y017727D01*
X016009Y017832D01*
X016220Y017832D01*
X016325Y017727D01*
M02*
