G75*
G70*
%OFA0B0*%
%FSLAX24Y24*%
%IPPOS*%
%LPD*%
%AMOC8*
5,1,8,0,0,1.08239X$1,22.5*
%
%ADD10C,0.0560*%
%ADD11OC8,0.0600*%
%ADD12C,0.0476*%
%ADD13C,0.0520*%
%ADD14R,0.0515X0.0515*%
%ADD15C,0.0160*%
D10*
X040776Y022737D02*
X040776Y023297D01*
X041776Y023297D02*
X041776Y022737D01*
X042776Y022737D02*
X042776Y023297D01*
X043776Y023297D02*
X043776Y022737D01*
X043776Y024737D02*
X043776Y025297D01*
X042776Y025297D02*
X042776Y024737D01*
X041776Y024737D02*
X041776Y025297D01*
X040776Y025297D02*
X040776Y024737D01*
X040776Y026737D02*
X040776Y027297D01*
X041776Y027297D02*
X041776Y026737D01*
X042776Y026737D02*
X042776Y027297D01*
X043776Y027297D02*
X043776Y026737D01*
X043996Y011017D02*
X044556Y011017D01*
X044556Y010017D02*
X043996Y010017D01*
X043056Y010017D02*
X042496Y010017D01*
X042496Y011017D02*
X043056Y011017D01*
D11*
X039276Y011017D03*
X038276Y011017D03*
X037276Y011017D03*
X036276Y011017D03*
X036276Y010017D03*
X037276Y010017D03*
X038276Y010017D03*
X039276Y010017D03*
X039276Y006017D03*
X038276Y006017D03*
X037276Y006017D03*
X036276Y006017D03*
X036276Y005017D03*
X037276Y005017D03*
X038276Y005017D03*
X039276Y005017D03*
X043776Y005017D03*
X044776Y005017D03*
X045776Y005017D03*
X046776Y005017D03*
X047776Y005017D03*
X047776Y006017D03*
X046776Y006017D03*
X045776Y006017D03*
X044776Y006017D03*
X043776Y006017D03*
X031276Y006017D03*
X030276Y006017D03*
X029276Y006017D03*
X029276Y005017D03*
X030276Y005017D03*
X031276Y005017D03*
X031276Y010017D03*
X030276Y010017D03*
X029276Y010017D03*
X029276Y011017D03*
X030276Y011017D03*
X031276Y011017D03*
X023276Y011017D03*
X022276Y011017D03*
X021276Y011017D03*
X021276Y010017D03*
X022276Y010017D03*
X023276Y010017D03*
X023276Y006017D03*
X022276Y006017D03*
X021276Y006017D03*
X021276Y005017D03*
X022276Y005017D03*
X023276Y005017D03*
X016776Y005017D03*
X015776Y005017D03*
X014776Y005017D03*
X013776Y005017D03*
X013776Y006017D03*
X014776Y006017D03*
X015776Y006017D03*
X016776Y006017D03*
X016776Y010017D03*
X015776Y010017D03*
X014776Y010017D03*
X013776Y010017D03*
X013776Y011017D03*
X014776Y011017D03*
X015776Y011017D03*
X016776Y011017D03*
X009276Y011017D03*
X008276Y011017D03*
X007276Y011017D03*
X006276Y011017D03*
X006276Y010017D03*
X007276Y010017D03*
X008276Y010017D03*
X009276Y010017D03*
X009276Y006017D03*
X008276Y006017D03*
X007276Y006017D03*
X006276Y006017D03*
X006276Y005017D03*
X007276Y005017D03*
X008276Y005017D03*
X009276Y005017D03*
X009276Y024017D03*
X008276Y024017D03*
X007276Y024017D03*
X006276Y024017D03*
X006276Y025017D03*
X007276Y025017D03*
X008276Y025017D03*
X009276Y025017D03*
X013776Y025017D03*
X014776Y025017D03*
X015776Y025017D03*
X016776Y025017D03*
X016776Y024017D03*
X015776Y024017D03*
X014776Y024017D03*
X013776Y024017D03*
X013776Y029017D03*
X014776Y029017D03*
X015776Y029017D03*
X016776Y029017D03*
X016776Y030017D03*
X015776Y030017D03*
X014776Y030017D03*
X013776Y030017D03*
X009276Y030017D03*
X008276Y030017D03*
X007276Y030017D03*
X006276Y030017D03*
X006276Y029017D03*
X007276Y029017D03*
X008276Y029017D03*
X009276Y029017D03*
X021276Y029017D03*
X022276Y029017D03*
X023276Y029017D03*
X023276Y030017D03*
X022276Y030017D03*
X021276Y030017D03*
X028776Y025017D03*
X029776Y025017D03*
X030776Y025017D03*
X031776Y025017D03*
X032776Y025017D03*
X032776Y024017D03*
X031776Y024017D03*
X030776Y024017D03*
X029776Y024017D03*
X028776Y024017D03*
D12*
X024776Y025517D03*
X023276Y025517D03*
X021776Y025517D03*
X021776Y022517D03*
X023276Y022517D03*
X024776Y022517D03*
X037776Y023517D03*
X039276Y023517D03*
X039276Y026517D03*
X037776Y026517D03*
X046276Y012017D03*
X047776Y012017D03*
X049276Y012017D03*
X049276Y009017D03*
X047776Y009017D03*
X046276Y009017D03*
D13*
X043776Y014257D02*
X043776Y014777D01*
X042776Y014777D02*
X042776Y014257D01*
X041776Y014257D02*
X041776Y014777D01*
X040776Y014777D02*
X040776Y014257D01*
X039776Y014257D02*
X039776Y014777D01*
X038776Y014777D02*
X038776Y014257D01*
X037776Y014257D02*
X037776Y014777D01*
X036776Y014777D02*
X036776Y014257D01*
X035776Y014257D02*
X035776Y014777D01*
X034776Y014777D02*
X034776Y014257D01*
X033776Y014257D02*
X033776Y014777D01*
X032776Y014777D02*
X032776Y014257D01*
X031776Y014257D02*
X031776Y014777D01*
X030776Y014777D02*
X030776Y014257D01*
X029776Y014257D02*
X029776Y014777D01*
X028776Y014777D02*
X028776Y014257D01*
X027776Y014257D02*
X027776Y014777D01*
X026776Y014777D02*
X026776Y014257D01*
X025776Y014257D02*
X025776Y014777D01*
X024776Y014777D02*
X024776Y014257D01*
X021776Y014257D02*
X021776Y014777D01*
X020776Y014777D02*
X020776Y014257D01*
X019776Y014257D02*
X019776Y014777D01*
X018776Y014777D02*
X018776Y014257D01*
X017776Y014257D02*
X017776Y014777D01*
X016776Y014777D02*
X016776Y014257D01*
X015776Y014257D02*
X015776Y014777D01*
X014776Y014777D02*
X014776Y014257D01*
X013776Y014257D02*
X013776Y014777D01*
X012776Y014777D02*
X012776Y014257D01*
X011776Y014257D02*
X011776Y014777D01*
X010776Y014777D02*
X010776Y014257D01*
X010776Y020257D02*
X010776Y020777D01*
X011776Y020777D02*
X011776Y020257D01*
X012776Y020257D02*
X012776Y020777D01*
X013776Y020777D02*
X013776Y020257D01*
X014776Y020257D02*
X014776Y020777D01*
X015776Y020777D02*
X015776Y020257D01*
X016776Y020257D02*
X016776Y020777D01*
X017776Y020777D02*
X017776Y020257D01*
X018776Y020257D02*
X018776Y020777D01*
X019776Y020777D02*
X019776Y020257D01*
X020776Y020257D02*
X020776Y020777D01*
X021776Y020777D02*
X021776Y020257D01*
X024776Y020257D02*
X024776Y020777D01*
X025776Y020777D02*
X025776Y020257D01*
X026776Y020257D02*
X026776Y020777D01*
X027776Y020777D02*
X027776Y020257D01*
X028776Y020257D02*
X028776Y020777D01*
X029776Y020777D02*
X029776Y020257D01*
X030776Y020257D02*
X030776Y020777D01*
X031776Y020777D02*
X031776Y020257D01*
X032776Y020257D02*
X032776Y020777D01*
X033776Y020777D02*
X033776Y020257D01*
X034776Y020257D02*
X034776Y020777D01*
X035776Y020777D02*
X035776Y020257D01*
X036776Y020257D02*
X036776Y020777D01*
X037776Y020777D02*
X037776Y020257D01*
X038776Y020257D02*
X038776Y020777D01*
X039776Y020777D02*
X039776Y020257D01*
X040776Y020257D02*
X040776Y020777D01*
X041776Y020777D02*
X041776Y020257D01*
X042776Y020257D02*
X042776Y020777D01*
X043776Y020777D02*
X043776Y020257D01*
D14*
X030776Y017517D03*
X029776Y017517D03*
X028776Y017517D03*
X027776Y017517D03*
X027776Y016517D03*
X028776Y016517D03*
X029776Y016517D03*
X030776Y016517D03*
D15*
X048510Y003285D02*
X005567Y003285D01*
X005475Y003443D02*
X048692Y003443D01*
X048776Y003517D02*
X048146Y002967D01*
X005746Y002977D01*
X005246Y003837D01*
X005276Y011517D01*
X005776Y012017D01*
X009276Y012017D01*
X009776Y012517D01*
X009776Y027017D01*
X008776Y028017D01*
X005776Y028017D01*
X005276Y028517D01*
X005276Y030517D01*
X005776Y031017D01*
X010776Y031017D01*
X011776Y030017D01*
X011776Y021356D01*
X011572Y021153D01*
X011569Y021146D01*
X011538Y021133D01*
X011420Y021015D01*
X011356Y020860D01*
X011356Y020173D01*
X011420Y020019D01*
X011538Y019901D01*
X011692Y019837D01*
X011776Y019837D01*
X011776Y015197D01*
X011692Y015197D01*
X011538Y015133D01*
X011420Y015015D01*
X011356Y014860D01*
X011356Y014173D01*
X011420Y014019D01*
X011538Y013901D01*
X011569Y013888D01*
X011572Y013881D01*
X011776Y013677D01*
X011776Y013356D01*
X011122Y014009D01*
X011132Y014019D01*
X011196Y014173D01*
X011196Y014860D01*
X011132Y015015D01*
X011014Y015133D01*
X010859Y015197D01*
X010692Y015197D01*
X010538Y015133D01*
X010420Y015015D01*
X010356Y014860D01*
X010356Y014173D01*
X010420Y014019D01*
X010538Y013901D01*
X010569Y013888D01*
X010572Y013881D01*
X011572Y012881D01*
X011640Y012813D01*
X011728Y012777D01*
X011776Y012777D01*
X011776Y007517D01*
X012276Y007017D01*
X019776Y007017D01*
X020276Y007517D01*
X020276Y011517D01*
X020776Y012017D01*
X023276Y012017D01*
X024276Y011017D01*
X024276Y005517D01*
X025276Y004517D01*
X042276Y004517D01*
X042776Y005017D01*
X042776Y009577D01*
X043143Y009577D01*
X043305Y009644D01*
X043429Y009767D01*
X043433Y009777D01*
X043619Y009777D01*
X043623Y009767D01*
X043747Y009644D01*
X043908Y009577D01*
X044643Y009577D01*
X044805Y009644D01*
X044929Y009767D01*
X044996Y009929D01*
X044996Y010104D01*
X044929Y010266D01*
X044805Y010390D01*
X044643Y010457D01*
X043908Y010457D01*
X043747Y010390D01*
X043623Y010266D01*
X043619Y010257D01*
X043433Y010257D01*
X043429Y010266D01*
X043305Y010390D01*
X043143Y010457D01*
X042776Y010457D01*
X042776Y010577D01*
X043143Y010577D01*
X043305Y010644D01*
X043429Y010767D01*
X043433Y010777D01*
X043619Y010777D01*
X043623Y010767D01*
X043747Y010644D01*
X043908Y010577D01*
X044643Y010577D01*
X044805Y010644D01*
X044929Y010767D01*
X044996Y010929D01*
X044996Y011104D01*
X044929Y011266D01*
X044805Y011390D01*
X044643Y011457D01*
X043908Y011457D01*
X043747Y011390D01*
X043623Y011266D01*
X043619Y011257D01*
X043433Y011257D01*
X043429Y011266D01*
X043305Y011390D01*
X043143Y011457D01*
X042776Y011457D01*
X042776Y013837D01*
X042859Y013837D01*
X043014Y013901D01*
X043132Y014019D01*
X043196Y014173D01*
X043196Y014860D01*
X043132Y015015D01*
X043014Y015133D01*
X042859Y015197D01*
X042776Y015197D01*
X042776Y019837D01*
X042859Y019837D01*
X043014Y019901D01*
X043132Y020019D01*
X043196Y020173D01*
X043196Y020860D01*
X043132Y021015D01*
X043014Y021133D01*
X042859Y021197D01*
X042776Y021197D01*
X042776Y022297D01*
X042863Y022297D01*
X043025Y022364D01*
X043149Y022487D01*
X043216Y022649D01*
X043216Y023384D01*
X043149Y023546D01*
X043025Y023670D01*
X043016Y023674D01*
X043016Y024360D01*
X043025Y024364D01*
X043149Y024487D01*
X043216Y024649D01*
X043216Y025384D01*
X043149Y025546D01*
X043025Y025670D01*
X043016Y025674D01*
X043016Y026360D01*
X043025Y026364D01*
X043149Y026487D01*
X043216Y026649D01*
X043216Y027384D01*
X043195Y027435D01*
X043776Y028017D01*
X045776Y028017D01*
X046276Y027517D01*
X046276Y012414D01*
X046197Y012414D01*
X046050Y012354D01*
X045939Y012242D01*
X045878Y012096D01*
X045878Y011938D01*
X045939Y011791D01*
X046050Y011679D01*
X046197Y011619D01*
X046276Y011619D01*
X046276Y009414D01*
X046197Y009414D01*
X046050Y009354D01*
X045939Y009242D01*
X045878Y009096D01*
X045878Y008938D01*
X045939Y008791D01*
X046050Y008679D01*
X046197Y008619D01*
X046276Y008619D01*
X046276Y008517D01*
X047276Y007517D01*
X048276Y007517D01*
X048776Y007017D01*
X048776Y003517D01*
X048776Y003602D02*
X005382Y003602D01*
X005290Y003760D02*
X048776Y003760D01*
X048776Y003919D02*
X005246Y003919D01*
X005247Y004077D02*
X048776Y004077D01*
X048776Y004236D02*
X005247Y004236D01*
X005248Y004394D02*
X048776Y004394D01*
X048776Y004553D02*
X047991Y004553D01*
X047975Y004537D02*
X048256Y004818D01*
X048256Y004997D01*
X047796Y004997D01*
X047796Y005037D01*
X047756Y005037D01*
X047756Y005497D01*
X047577Y005497D01*
X047296Y005215D01*
X047296Y005037D01*
X047756Y005037D01*
X047756Y004997D01*
X047296Y004997D01*
X047296Y004818D01*
X047577Y004537D01*
X047756Y004537D01*
X047756Y004997D01*
X047796Y004997D01*
X047796Y004537D01*
X047975Y004537D01*
X047796Y004553D02*
X047756Y004553D01*
X047756Y004711D02*
X047796Y004711D01*
X047796Y004870D02*
X047756Y004870D01*
X047756Y005028D02*
X046796Y005028D01*
X046796Y005037D02*
X047256Y005037D01*
X047256Y005215D01*
X046975Y005497D01*
X046796Y005497D01*
X046796Y005037D01*
X046756Y005037D01*
X046756Y005497D01*
X046577Y005497D01*
X046296Y005215D01*
X046296Y005037D01*
X046756Y005037D01*
X046756Y004997D01*
X046296Y004997D01*
X046296Y004818D01*
X046577Y004537D01*
X046756Y004537D01*
X046756Y004997D01*
X046796Y004997D01*
X046796Y005037D01*
X046796Y004997D02*
X047256Y004997D01*
X047256Y004818D01*
X046975Y004537D01*
X046796Y004537D01*
X046796Y004997D01*
X046756Y005028D02*
X045796Y005028D01*
X045796Y005037D02*
X046256Y005037D01*
X046256Y005215D01*
X045975Y005497D01*
X045796Y005497D01*
X045796Y005037D01*
X045756Y005037D01*
X045756Y005497D01*
X045577Y005497D01*
X045296Y005215D01*
X045296Y005037D01*
X045756Y005037D01*
X045756Y004997D01*
X045296Y004997D01*
X045296Y004818D01*
X045577Y004537D01*
X045756Y004537D01*
X045756Y004997D01*
X045796Y004997D01*
X045796Y005037D01*
X045796Y004997D02*
X046256Y004997D01*
X046256Y004818D01*
X045975Y004537D01*
X045796Y004537D01*
X045796Y004997D01*
X045756Y005028D02*
X044796Y005028D01*
X044796Y005037D02*
X045256Y005037D01*
X045256Y005215D01*
X044975Y005497D01*
X044796Y005497D01*
X044796Y005037D01*
X044756Y005037D01*
X044756Y005497D01*
X044577Y005497D01*
X044296Y005215D01*
X044296Y005037D01*
X044756Y005037D01*
X044756Y004997D01*
X044296Y004997D01*
X044296Y004818D01*
X044577Y004537D01*
X044756Y004537D01*
X044756Y004997D01*
X044796Y004997D01*
X044796Y005037D01*
X044796Y004997D02*
X045256Y004997D01*
X045256Y004818D01*
X044975Y004537D01*
X044796Y004537D01*
X044796Y004997D01*
X044756Y005028D02*
X043796Y005028D01*
X043796Y005037D02*
X044256Y005037D01*
X044256Y005215D01*
X043975Y005497D01*
X043796Y005497D01*
X043796Y005037D01*
X043756Y005037D01*
X043756Y005497D01*
X043577Y005497D01*
X043296Y005215D01*
X043296Y005037D01*
X043756Y005037D01*
X043756Y004997D01*
X043296Y004997D01*
X043296Y004818D01*
X043577Y004537D01*
X043756Y004537D01*
X043756Y004997D01*
X043796Y004997D01*
X043796Y005037D01*
X043796Y004997D02*
X044256Y004997D01*
X044256Y004818D01*
X043975Y004537D01*
X043796Y004537D01*
X043796Y004997D01*
X043756Y005028D02*
X042776Y005028D01*
X042776Y005187D02*
X043296Y005187D01*
X043425Y005345D02*
X042776Y005345D01*
X042776Y005504D02*
X048776Y005504D01*
X048776Y005662D02*
X048100Y005662D01*
X047975Y005537D02*
X048256Y005818D01*
X048256Y005997D01*
X047796Y005997D01*
X047796Y006037D01*
X047756Y006037D01*
X047756Y006497D01*
X047577Y006497D01*
X047296Y006215D01*
X047296Y006037D01*
X047756Y006037D01*
X047756Y005997D01*
X047296Y005997D01*
X047296Y005818D01*
X047577Y005537D01*
X047756Y005537D01*
X047756Y005997D01*
X047796Y005997D01*
X047796Y005537D01*
X047975Y005537D01*
X047975Y005497D02*
X047796Y005497D01*
X047796Y005037D01*
X048256Y005037D01*
X048256Y005215D01*
X047975Y005497D01*
X048126Y005345D02*
X048776Y005345D01*
X048776Y005187D02*
X048256Y005187D01*
X048256Y004870D02*
X048776Y004870D01*
X048776Y005028D02*
X047796Y005028D01*
X047796Y005187D02*
X047756Y005187D01*
X047756Y005345D02*
X047796Y005345D01*
X047796Y005662D02*
X047756Y005662D01*
X047756Y005821D02*
X047796Y005821D01*
X047796Y005979D02*
X047756Y005979D01*
X047796Y006037D02*
X048256Y006037D01*
X048256Y006215D01*
X047975Y006497D01*
X047796Y006497D01*
X047796Y006037D01*
X047796Y006138D02*
X047756Y006138D01*
X047756Y006296D02*
X047796Y006296D01*
X047796Y006455D02*
X047756Y006455D01*
X047535Y006455D02*
X047017Y006455D01*
X046975Y006497D02*
X046796Y006497D01*
X046796Y006037D01*
X046756Y006037D01*
X046756Y006497D01*
X046577Y006497D01*
X046296Y006215D01*
X046296Y006037D01*
X046756Y006037D01*
X046756Y005997D01*
X046296Y005997D01*
X046296Y005818D01*
X046577Y005537D01*
X046756Y005537D01*
X046756Y005997D01*
X046796Y005997D01*
X046796Y006037D01*
X047256Y006037D01*
X047256Y006215D01*
X046975Y006497D01*
X046796Y006455D02*
X046756Y006455D01*
X046756Y006296D02*
X046796Y006296D01*
X046796Y006138D02*
X046756Y006138D01*
X046796Y005997D02*
X047256Y005997D01*
X047256Y005818D01*
X046975Y005537D01*
X046796Y005537D01*
X046796Y005997D01*
X046796Y005979D02*
X046756Y005979D01*
X046756Y005821D02*
X046796Y005821D01*
X046796Y005662D02*
X046756Y005662D01*
X046451Y005662D02*
X046100Y005662D01*
X045975Y005537D02*
X046256Y005818D01*
X046256Y005997D01*
X045796Y005997D01*
X045796Y006037D01*
X045756Y006037D01*
X045756Y006497D01*
X045577Y006497D01*
X045296Y006215D01*
X045296Y006037D01*
X045756Y006037D01*
X045756Y005997D01*
X045296Y005997D01*
X045296Y005818D01*
X045577Y005537D01*
X045756Y005537D01*
X045756Y005997D01*
X045796Y005997D01*
X045796Y005537D01*
X045975Y005537D01*
X045796Y005662D02*
X045756Y005662D01*
X045756Y005821D02*
X045796Y005821D01*
X045796Y005979D02*
X045756Y005979D01*
X045796Y006037D02*
X046256Y006037D01*
X046256Y006215D01*
X045975Y006497D01*
X045796Y006497D01*
X045796Y006037D01*
X045796Y006138D02*
X045756Y006138D01*
X045756Y006296D02*
X045796Y006296D01*
X045796Y006455D02*
X045756Y006455D01*
X045535Y006455D02*
X045017Y006455D01*
X044975Y006497D02*
X044796Y006497D01*
X044796Y006037D01*
X044756Y006037D01*
X044756Y006497D01*
X044577Y006497D01*
X044296Y006215D01*
X044296Y006037D01*
X044756Y006037D01*
X044756Y005997D01*
X044296Y005997D01*
X044296Y005818D01*
X044577Y005537D01*
X044756Y005537D01*
X044756Y005997D01*
X044796Y005997D01*
X044796Y006037D01*
X045256Y006037D01*
X045256Y006215D01*
X044975Y006497D01*
X044796Y006455D02*
X044756Y006455D01*
X044756Y006296D02*
X044796Y006296D01*
X044796Y006138D02*
X044756Y006138D01*
X044796Y005997D02*
X045256Y005997D01*
X045256Y005818D01*
X044975Y005537D01*
X044796Y005537D01*
X044796Y005997D01*
X044796Y005979D02*
X044756Y005979D01*
X044756Y005821D02*
X044796Y005821D01*
X044796Y005662D02*
X044756Y005662D01*
X044451Y005662D02*
X044100Y005662D01*
X043975Y005537D02*
X044256Y005818D01*
X044256Y005997D01*
X043796Y005997D01*
X043796Y006037D01*
X043756Y006037D01*
X043756Y006497D01*
X043577Y006497D01*
X043296Y006215D01*
X043296Y006037D01*
X043756Y006037D01*
X043756Y005997D01*
X043296Y005997D01*
X043296Y005818D01*
X043577Y005537D01*
X043756Y005537D01*
X043756Y005997D01*
X043796Y005997D01*
X043796Y005537D01*
X043975Y005537D01*
X043796Y005662D02*
X043756Y005662D01*
X043756Y005821D02*
X043796Y005821D01*
X043796Y005979D02*
X043756Y005979D01*
X043796Y006037D02*
X044256Y006037D01*
X044256Y006215D01*
X043975Y006497D01*
X043796Y006497D01*
X043796Y006037D01*
X043796Y006138D02*
X043756Y006138D01*
X043756Y006296D02*
X043796Y006296D01*
X043796Y006455D02*
X043756Y006455D01*
X043535Y006455D02*
X042776Y006455D01*
X042776Y006613D02*
X048776Y006613D01*
X048776Y006455D02*
X048017Y006455D01*
X048175Y006296D02*
X048776Y006296D01*
X048776Y006138D02*
X048256Y006138D01*
X048256Y005979D02*
X048776Y005979D01*
X048776Y005821D02*
X048256Y005821D01*
X047451Y005662D02*
X047100Y005662D01*
X047256Y005821D02*
X047296Y005821D01*
X047296Y005979D02*
X047256Y005979D01*
X047256Y006138D02*
X047296Y006138D01*
X047376Y006296D02*
X047175Y006296D01*
X046535Y006455D02*
X046017Y006455D01*
X046175Y006296D02*
X046376Y006296D01*
X046296Y006138D02*
X046256Y006138D01*
X046256Y005979D02*
X046296Y005979D01*
X046296Y005821D02*
X046256Y005821D01*
X046126Y005345D02*
X046425Y005345D01*
X046296Y005187D02*
X046256Y005187D01*
X046256Y004870D02*
X046296Y004870D01*
X046402Y004711D02*
X046149Y004711D01*
X045991Y004553D02*
X046561Y004553D01*
X046756Y004553D02*
X046796Y004553D01*
X046796Y004711D02*
X046756Y004711D01*
X046756Y004870D02*
X046796Y004870D01*
X046796Y005187D02*
X046756Y005187D01*
X046756Y005345D02*
X046796Y005345D01*
X047126Y005345D02*
X047425Y005345D01*
X047296Y005187D02*
X047256Y005187D01*
X047256Y004870D02*
X047296Y004870D01*
X047402Y004711D02*
X047149Y004711D01*
X046991Y004553D02*
X047561Y004553D01*
X048149Y004711D02*
X048776Y004711D01*
X048328Y003126D02*
X005659Y003126D01*
X006077Y004537D02*
X006256Y004537D01*
X006256Y004997D01*
X005796Y004997D01*
X005796Y004818D01*
X006077Y004537D01*
X006061Y004553D02*
X005249Y004553D01*
X005249Y004711D02*
X005902Y004711D01*
X005796Y004870D02*
X005250Y004870D01*
X005250Y005028D02*
X006256Y005028D01*
X006256Y005037D02*
X006256Y004997D01*
X006296Y004997D01*
X006296Y005037D01*
X006256Y005037D01*
X006256Y005497D01*
X006077Y005497D01*
X005796Y005215D01*
X005796Y005037D01*
X006256Y005037D01*
X006296Y005037D02*
X006296Y005497D01*
X006475Y005497D01*
X006756Y005215D01*
X006756Y005037D01*
X006296Y005037D01*
X006296Y005028D02*
X007256Y005028D01*
X007256Y005037D02*
X007256Y004997D01*
X006796Y004997D01*
X006796Y004818D01*
X007077Y004537D01*
X007256Y004537D01*
X007256Y004997D01*
X007296Y004997D01*
X007296Y005037D01*
X007256Y005037D01*
X007256Y005497D01*
X007077Y005497D01*
X006796Y005215D01*
X006796Y005037D01*
X007256Y005037D01*
X007296Y005037D02*
X007296Y005497D01*
X007475Y005497D01*
X007756Y005215D01*
X007756Y005037D01*
X007296Y005037D01*
X007296Y005028D02*
X008256Y005028D01*
X008256Y005037D02*
X008256Y004997D01*
X007796Y004997D01*
X007796Y004818D01*
X008077Y004537D01*
X008256Y004537D01*
X008256Y004997D01*
X008296Y004997D01*
X008296Y005037D01*
X008256Y005037D01*
X008256Y005497D01*
X008077Y005497D01*
X007796Y005215D01*
X007796Y005037D01*
X008256Y005037D01*
X008296Y005037D02*
X008296Y005497D01*
X008475Y005497D01*
X008756Y005215D01*
X008756Y005037D01*
X008296Y005037D01*
X008296Y005028D02*
X009256Y005028D01*
X009256Y005037D02*
X009256Y004997D01*
X008796Y004997D01*
X008796Y004818D01*
X009077Y004537D01*
X009256Y004537D01*
X009256Y004997D01*
X009296Y004997D01*
X009296Y005037D01*
X009256Y005037D01*
X009256Y005497D01*
X009077Y005497D01*
X008796Y005215D01*
X008796Y005037D01*
X009256Y005037D01*
X009296Y005037D02*
X009296Y005497D01*
X009475Y005497D01*
X009756Y005215D01*
X009756Y005037D01*
X009296Y005037D01*
X009296Y005028D02*
X013756Y005028D01*
X013756Y005037D02*
X013756Y004997D01*
X013296Y004997D01*
X013296Y004818D01*
X013577Y004537D01*
X013756Y004537D01*
X013756Y004997D01*
X013796Y004997D01*
X013796Y005037D01*
X013756Y005037D01*
X013756Y005497D01*
X013577Y005497D01*
X013296Y005215D01*
X013296Y005037D01*
X013756Y005037D01*
X013796Y005037D02*
X013796Y005497D01*
X013975Y005497D01*
X014256Y005215D01*
X014256Y005037D01*
X013796Y005037D01*
X013796Y005028D02*
X014756Y005028D01*
X014756Y005037D02*
X014756Y004997D01*
X014296Y004997D01*
X014296Y004818D01*
X014577Y004537D01*
X014756Y004537D01*
X014756Y004997D01*
X014796Y004997D01*
X014796Y005037D01*
X014756Y005037D01*
X014756Y005497D01*
X014577Y005497D01*
X014296Y005215D01*
X014296Y005037D01*
X014756Y005037D01*
X014796Y005037D02*
X014796Y005497D01*
X014975Y005497D01*
X015256Y005215D01*
X015256Y005037D01*
X014796Y005037D01*
X014796Y005028D02*
X015756Y005028D01*
X015756Y005037D02*
X015756Y004997D01*
X015296Y004997D01*
X015296Y004818D01*
X015577Y004537D01*
X015756Y004537D01*
X015756Y004997D01*
X015796Y004997D01*
X015796Y005037D01*
X015756Y005037D01*
X015756Y005497D01*
X015577Y005497D01*
X015296Y005215D01*
X015296Y005037D01*
X015756Y005037D01*
X015796Y005037D02*
X015796Y005497D01*
X015975Y005497D01*
X016256Y005215D01*
X016256Y005037D01*
X015796Y005037D01*
X015796Y005028D02*
X016756Y005028D01*
X016756Y005037D02*
X016756Y004997D01*
X016296Y004997D01*
X016296Y004818D01*
X016577Y004537D01*
X016756Y004537D01*
X016756Y004997D01*
X016796Y004997D01*
X016796Y005037D01*
X016756Y005037D01*
X016756Y005497D01*
X016577Y005497D01*
X016296Y005215D01*
X016296Y005037D01*
X016756Y005037D01*
X016796Y005037D02*
X016796Y005497D01*
X016975Y005497D01*
X017256Y005215D01*
X017256Y005037D01*
X016796Y005037D01*
X016796Y005028D02*
X021256Y005028D01*
X021256Y005037D02*
X021256Y004997D01*
X020796Y004997D01*
X020796Y004818D01*
X021077Y004537D01*
X021256Y004537D01*
X021256Y004997D01*
X021296Y004997D01*
X021296Y005037D01*
X021256Y005037D01*
X021256Y005497D01*
X021077Y005497D01*
X020796Y005215D01*
X020796Y005037D01*
X021256Y005037D01*
X021296Y005037D02*
X021296Y005497D01*
X021475Y005497D01*
X021756Y005215D01*
X021756Y005037D01*
X021296Y005037D01*
X021296Y005028D02*
X022256Y005028D01*
X022256Y005037D02*
X022256Y004997D01*
X021796Y004997D01*
X021796Y004818D01*
X022077Y004537D01*
X022256Y004537D01*
X022256Y004997D01*
X022296Y004997D01*
X022296Y005037D01*
X022256Y005037D01*
X022256Y005497D01*
X022077Y005497D01*
X021796Y005215D01*
X021796Y005037D01*
X022256Y005037D01*
X022296Y005037D02*
X022296Y005497D01*
X022475Y005497D01*
X022756Y005215D01*
X022756Y005037D01*
X022296Y005037D01*
X022296Y005028D02*
X023256Y005028D01*
X023256Y005037D02*
X023256Y004997D01*
X022796Y004997D01*
X022796Y004818D01*
X023077Y004537D01*
X023256Y004537D01*
X023256Y004997D01*
X023296Y004997D01*
X023296Y005037D01*
X023256Y005037D01*
X023256Y005497D01*
X023077Y005497D01*
X022796Y005215D01*
X022796Y005037D01*
X023256Y005037D01*
X023296Y005037D02*
X023296Y005497D01*
X023475Y005497D01*
X023756Y005215D01*
X023756Y005037D01*
X023296Y005037D01*
X023296Y005028D02*
X024764Y005028D01*
X024606Y005187D02*
X023756Y005187D01*
X023756Y004997D02*
X023296Y004997D01*
X023296Y004537D01*
X023475Y004537D01*
X023756Y004818D01*
X023756Y004997D01*
X023756Y004870D02*
X024923Y004870D01*
X025081Y004711D02*
X023649Y004711D01*
X023491Y004553D02*
X025240Y004553D01*
X024447Y005345D02*
X023626Y005345D01*
X023475Y005537D02*
X023756Y005818D01*
X023756Y005997D01*
X023296Y005997D01*
X023296Y006037D01*
X023256Y006037D01*
X023256Y006497D01*
X023077Y006497D01*
X022796Y006215D01*
X022796Y006037D01*
X023256Y006037D01*
X023256Y005997D01*
X022796Y005997D01*
X022796Y005818D01*
X023077Y005537D01*
X023256Y005537D01*
X023256Y005997D01*
X023296Y005997D01*
X023296Y005537D01*
X023475Y005537D01*
X023600Y005662D02*
X024276Y005662D01*
X024276Y005821D02*
X023756Y005821D01*
X023756Y005979D02*
X024276Y005979D01*
X024276Y006138D02*
X023756Y006138D01*
X023756Y006215D02*
X023475Y006497D01*
X023296Y006497D01*
X023296Y006037D01*
X023756Y006037D01*
X023756Y006215D01*
X023675Y006296D02*
X024276Y006296D01*
X024276Y006455D02*
X023517Y006455D01*
X023296Y006455D02*
X023256Y006455D01*
X023256Y006296D02*
X023296Y006296D01*
X023296Y006138D02*
X023256Y006138D01*
X023256Y005979D02*
X023296Y005979D01*
X023296Y005821D02*
X023256Y005821D01*
X023256Y005662D02*
X023296Y005662D01*
X023296Y005345D02*
X023256Y005345D01*
X023256Y005187D02*
X023296Y005187D01*
X023296Y004870D02*
X023256Y004870D01*
X023256Y004711D02*
X023296Y004711D01*
X023296Y004553D02*
X023256Y004553D01*
X023061Y004553D02*
X022491Y004553D01*
X022475Y004537D02*
X022756Y004818D01*
X022756Y004997D01*
X022296Y004997D01*
X022296Y004537D01*
X022475Y004537D01*
X022296Y004553D02*
X022256Y004553D01*
X022256Y004711D02*
X022296Y004711D01*
X022296Y004870D02*
X022256Y004870D01*
X022256Y005187D02*
X022296Y005187D01*
X022296Y005345D02*
X022256Y005345D01*
X022256Y005537D02*
X022256Y005997D01*
X021796Y005997D01*
X021796Y005818D01*
X022077Y005537D01*
X022256Y005537D01*
X022296Y005537D02*
X022475Y005537D01*
X022756Y005818D01*
X022756Y005997D01*
X022296Y005997D01*
X022296Y006037D01*
X022256Y006037D01*
X022256Y006497D01*
X022077Y006497D01*
X021796Y006215D01*
X021796Y006037D01*
X022256Y006037D01*
X022256Y005997D01*
X022296Y005997D01*
X022296Y005537D01*
X022296Y005662D02*
X022256Y005662D01*
X022256Y005821D02*
X022296Y005821D01*
X022296Y005979D02*
X022256Y005979D01*
X022296Y006037D02*
X022756Y006037D01*
X022756Y006215D01*
X022475Y006497D01*
X022296Y006497D01*
X022296Y006037D01*
X022296Y006138D02*
X022256Y006138D01*
X022256Y006296D02*
X022296Y006296D01*
X022296Y006455D02*
X022256Y006455D01*
X022035Y006455D02*
X021517Y006455D01*
X021475Y006497D02*
X021296Y006497D01*
X021296Y006037D01*
X021256Y006037D01*
X021256Y006497D01*
X021077Y006497D01*
X020796Y006215D01*
X020796Y006037D01*
X021256Y006037D01*
X021256Y005997D01*
X020796Y005997D01*
X020796Y005818D01*
X021077Y005537D01*
X021256Y005537D01*
X021256Y005997D01*
X021296Y005997D01*
X021296Y006037D01*
X021756Y006037D01*
X021756Y006215D01*
X021475Y006497D01*
X021296Y006455D02*
X021256Y006455D01*
X021256Y006296D02*
X021296Y006296D01*
X021296Y006138D02*
X021256Y006138D01*
X021296Y005997D02*
X021756Y005997D01*
X021756Y005818D01*
X021475Y005537D01*
X021296Y005537D01*
X021296Y005997D01*
X021296Y005979D02*
X021256Y005979D01*
X021256Y005821D02*
X021296Y005821D01*
X021296Y005662D02*
X021256Y005662D01*
X020951Y005662D02*
X017100Y005662D01*
X016975Y005537D02*
X017256Y005818D01*
X017256Y005997D01*
X016796Y005997D01*
X016796Y006037D01*
X016756Y006037D01*
X016756Y006497D01*
X016577Y006497D01*
X016296Y006215D01*
X016296Y006037D01*
X016756Y006037D01*
X016756Y005997D01*
X016296Y005997D01*
X016296Y005818D01*
X016577Y005537D01*
X016756Y005537D01*
X016756Y005997D01*
X016796Y005997D01*
X016796Y005537D01*
X016975Y005537D01*
X016796Y005662D02*
X016756Y005662D01*
X016756Y005821D02*
X016796Y005821D01*
X016796Y005979D02*
X016756Y005979D01*
X016796Y006037D02*
X017256Y006037D01*
X017256Y006215D01*
X016975Y006497D01*
X016796Y006497D01*
X016796Y006037D01*
X016796Y006138D02*
X016756Y006138D01*
X016756Y006296D02*
X016796Y006296D01*
X016796Y006455D02*
X016756Y006455D01*
X016535Y006455D02*
X016017Y006455D01*
X015975Y006497D02*
X015796Y006497D01*
X015796Y006037D01*
X015756Y006037D01*
X015756Y006497D01*
X015577Y006497D01*
X015296Y006215D01*
X015296Y006037D01*
X015756Y006037D01*
X015756Y005997D01*
X015296Y005997D01*
X015296Y005818D01*
X015577Y005537D01*
X015756Y005537D01*
X015756Y005997D01*
X015796Y005997D01*
X015796Y006037D01*
X016256Y006037D01*
X016256Y006215D01*
X015975Y006497D01*
X015796Y006455D02*
X015756Y006455D01*
X015756Y006296D02*
X015796Y006296D01*
X015796Y006138D02*
X015756Y006138D01*
X015796Y005997D02*
X016256Y005997D01*
X016256Y005818D01*
X015975Y005537D01*
X015796Y005537D01*
X015796Y005997D01*
X015796Y005979D02*
X015756Y005979D01*
X015756Y005821D02*
X015796Y005821D01*
X015796Y005662D02*
X015756Y005662D01*
X015451Y005662D02*
X015100Y005662D01*
X014975Y005537D02*
X015256Y005818D01*
X015256Y005997D01*
X014796Y005997D01*
X014796Y006037D01*
X014756Y006037D01*
X014756Y006497D01*
X014577Y006497D01*
X014296Y006215D01*
X014296Y006037D01*
X014756Y006037D01*
X014756Y005997D01*
X014296Y005997D01*
X014296Y005818D01*
X014577Y005537D01*
X014756Y005537D01*
X014756Y005997D01*
X014796Y005997D01*
X014796Y005537D01*
X014975Y005537D01*
X014796Y005662D02*
X014756Y005662D01*
X014756Y005821D02*
X014796Y005821D01*
X014796Y005979D02*
X014756Y005979D01*
X014796Y006037D02*
X015256Y006037D01*
X015256Y006215D01*
X014975Y006497D01*
X014796Y006497D01*
X014796Y006037D01*
X014796Y006138D02*
X014756Y006138D01*
X014756Y006296D02*
X014796Y006296D01*
X014796Y006455D02*
X014756Y006455D01*
X014535Y006455D02*
X014017Y006455D01*
X013975Y006497D02*
X013796Y006497D01*
X013796Y006037D01*
X013756Y006037D01*
X013756Y006497D01*
X013577Y006497D01*
X013296Y006215D01*
X013296Y006037D01*
X013756Y006037D01*
X013756Y005997D01*
X013296Y005997D01*
X013296Y005818D01*
X013577Y005537D01*
X013756Y005537D01*
X013756Y005997D01*
X013796Y005997D01*
X013796Y006037D01*
X014256Y006037D01*
X014256Y006215D01*
X013975Y006497D01*
X013796Y006455D02*
X013756Y006455D01*
X013756Y006296D02*
X013796Y006296D01*
X013796Y006138D02*
X013756Y006138D01*
X013796Y005997D02*
X014256Y005997D01*
X014256Y005818D01*
X013975Y005537D01*
X013796Y005537D01*
X013796Y005997D01*
X013796Y005979D02*
X013756Y005979D01*
X013756Y005821D02*
X013796Y005821D01*
X013796Y005662D02*
X013756Y005662D01*
X013451Y005662D02*
X009600Y005662D01*
X009475Y005537D02*
X009756Y005818D01*
X009756Y005997D01*
X009296Y005997D01*
X009296Y006037D01*
X009256Y006037D01*
X009256Y006497D01*
X009077Y006497D01*
X008796Y006215D01*
X008796Y006037D01*
X009256Y006037D01*
X009256Y005997D01*
X008796Y005997D01*
X008796Y005818D01*
X009077Y005537D01*
X009256Y005537D01*
X009256Y005997D01*
X009296Y005997D01*
X009296Y005537D01*
X009475Y005537D01*
X009296Y005662D02*
X009256Y005662D01*
X009256Y005821D02*
X009296Y005821D01*
X009296Y005979D02*
X009256Y005979D01*
X009296Y006037D02*
X009756Y006037D01*
X009756Y006215D01*
X009475Y006497D01*
X009296Y006497D01*
X009296Y006037D01*
X009296Y006138D02*
X009256Y006138D01*
X009256Y006296D02*
X009296Y006296D01*
X009296Y006455D02*
X009256Y006455D01*
X009035Y006455D02*
X008517Y006455D01*
X008475Y006497D02*
X008296Y006497D01*
X008296Y006037D01*
X008256Y006037D01*
X008256Y006497D01*
X008077Y006497D01*
X007796Y006215D01*
X007796Y006037D01*
X008256Y006037D01*
X008256Y005997D01*
X007796Y005997D01*
X007796Y005818D01*
X008077Y005537D01*
X008256Y005537D01*
X008256Y005997D01*
X008296Y005997D01*
X008296Y006037D01*
X008756Y006037D01*
X008756Y006215D01*
X008475Y006497D01*
X008296Y006455D02*
X008256Y006455D01*
X008256Y006296D02*
X008296Y006296D01*
X008296Y006138D02*
X008256Y006138D01*
X008296Y005997D02*
X008756Y005997D01*
X008756Y005818D01*
X008475Y005537D01*
X008296Y005537D01*
X008296Y005997D01*
X008296Y005979D02*
X008256Y005979D01*
X008256Y005821D02*
X008296Y005821D01*
X008296Y005662D02*
X008256Y005662D01*
X007951Y005662D02*
X007600Y005662D01*
X007475Y005537D02*
X007756Y005818D01*
X007756Y005997D01*
X007296Y005997D01*
X007296Y006037D01*
X007256Y006037D01*
X007256Y006497D01*
X007077Y006497D01*
X006796Y006215D01*
X006796Y006037D01*
X007256Y006037D01*
X007256Y005997D01*
X006796Y005997D01*
X006796Y005818D01*
X007077Y005537D01*
X007256Y005537D01*
X007256Y005997D01*
X007296Y005997D01*
X007296Y005537D01*
X007475Y005537D01*
X007296Y005662D02*
X007256Y005662D01*
X007256Y005821D02*
X007296Y005821D01*
X007296Y005979D02*
X007256Y005979D01*
X007296Y006037D02*
X007756Y006037D01*
X007756Y006215D01*
X007475Y006497D01*
X007296Y006497D01*
X007296Y006037D01*
X007296Y006138D02*
X007256Y006138D01*
X007256Y006296D02*
X007296Y006296D01*
X007296Y006455D02*
X007256Y006455D01*
X007035Y006455D02*
X006517Y006455D01*
X006475Y006497D02*
X006296Y006497D01*
X006296Y006037D01*
X006256Y006037D01*
X006256Y006497D01*
X006077Y006497D01*
X005796Y006215D01*
X005796Y006037D01*
X006256Y006037D01*
X006256Y005997D01*
X005796Y005997D01*
X005796Y005818D01*
X006077Y005537D01*
X006256Y005537D01*
X006256Y005997D01*
X006296Y005997D01*
X006296Y006037D01*
X006756Y006037D01*
X006756Y006215D01*
X006475Y006497D01*
X006296Y006455D02*
X006256Y006455D01*
X006256Y006296D02*
X006296Y006296D01*
X006296Y006138D02*
X006256Y006138D01*
X006296Y005997D02*
X006756Y005997D01*
X006756Y005818D01*
X006475Y005537D01*
X006296Y005537D01*
X006296Y005997D01*
X006296Y005979D02*
X006256Y005979D01*
X006256Y005821D02*
X006296Y005821D01*
X006296Y005662D02*
X006256Y005662D01*
X005951Y005662D02*
X005253Y005662D01*
X005252Y005504D02*
X024289Y005504D01*
X022951Y005662D02*
X022600Y005662D01*
X022756Y005821D02*
X022796Y005821D01*
X022796Y005979D02*
X022756Y005979D01*
X022756Y006138D02*
X022796Y006138D01*
X022876Y006296D02*
X022675Y006296D01*
X022517Y006455D02*
X023035Y006455D01*
X021876Y006296D02*
X021675Y006296D01*
X021756Y006138D02*
X021796Y006138D01*
X021796Y005979D02*
X021756Y005979D01*
X021756Y005821D02*
X021796Y005821D01*
X021951Y005662D02*
X021600Y005662D01*
X021626Y005345D02*
X021925Y005345D01*
X021796Y005187D02*
X021756Y005187D01*
X021756Y004997D02*
X021296Y004997D01*
X021296Y004537D01*
X021475Y004537D01*
X021756Y004818D01*
X021756Y004997D01*
X021756Y004870D02*
X021796Y004870D01*
X021902Y004711D02*
X021649Y004711D01*
X021491Y004553D02*
X022061Y004553D01*
X022649Y004711D02*
X022902Y004711D01*
X022796Y004870D02*
X022756Y004870D01*
X022756Y005187D02*
X022796Y005187D01*
X022925Y005345D02*
X022626Y005345D01*
X021296Y005345D02*
X021256Y005345D01*
X021256Y005187D02*
X021296Y005187D01*
X021296Y004870D02*
X021256Y004870D01*
X021256Y004711D02*
X021296Y004711D01*
X021296Y004553D02*
X021256Y004553D01*
X021061Y004553D02*
X016991Y004553D01*
X016975Y004537D02*
X017256Y004818D01*
X017256Y004997D01*
X016796Y004997D01*
X016796Y004537D01*
X016975Y004537D01*
X016796Y004553D02*
X016756Y004553D01*
X016756Y004711D02*
X016796Y004711D01*
X016796Y004870D02*
X016756Y004870D01*
X016756Y005187D02*
X016796Y005187D01*
X016796Y005345D02*
X016756Y005345D01*
X016425Y005345D02*
X016126Y005345D01*
X016256Y005187D02*
X016296Y005187D01*
X016256Y004997D02*
X015796Y004997D01*
X015796Y004537D01*
X015975Y004537D01*
X016256Y004818D01*
X016256Y004997D01*
X016256Y004870D02*
X016296Y004870D01*
X016402Y004711D02*
X016149Y004711D01*
X015991Y004553D02*
X016561Y004553D01*
X017149Y004711D02*
X020902Y004711D01*
X020796Y004870D02*
X017256Y004870D01*
X017256Y005187D02*
X020796Y005187D01*
X020925Y005345D02*
X017126Y005345D01*
X017256Y005821D02*
X020796Y005821D01*
X020796Y005979D02*
X017256Y005979D01*
X017256Y006138D02*
X020796Y006138D01*
X020876Y006296D02*
X017175Y006296D01*
X017017Y006455D02*
X021035Y006455D01*
X020006Y007247D02*
X024276Y007247D01*
X024276Y007089D02*
X019848Y007089D01*
X020165Y007406D02*
X024276Y007406D01*
X024276Y007564D02*
X020276Y007564D01*
X020276Y007723D02*
X024276Y007723D01*
X024276Y007881D02*
X020276Y007881D01*
X020276Y008040D02*
X024276Y008040D01*
X024276Y008198D02*
X020276Y008198D01*
X020276Y008357D02*
X024276Y008357D01*
X024276Y008515D02*
X020276Y008515D01*
X020276Y008674D02*
X024276Y008674D01*
X024276Y008832D02*
X020276Y008832D01*
X020276Y008991D02*
X024276Y008991D01*
X024276Y009149D02*
X020276Y009149D01*
X020276Y009308D02*
X024276Y009308D01*
X024276Y009466D02*
X020276Y009466D01*
X020276Y009625D02*
X020989Y009625D01*
X021077Y009537D02*
X020796Y009818D01*
X020796Y009997D01*
X021256Y009997D01*
X021256Y010037D01*
X021256Y010497D01*
X021077Y010497D01*
X020796Y010215D01*
X020796Y010037D01*
X021256Y010037D01*
X021296Y010037D01*
X021296Y010497D01*
X021475Y010497D01*
X021756Y010215D01*
X021756Y010037D01*
X021296Y010037D01*
X021296Y009997D01*
X021756Y009997D01*
X021756Y009818D01*
X021475Y009537D01*
X021296Y009537D01*
X021296Y009997D01*
X021256Y009997D01*
X021256Y009537D01*
X021077Y009537D01*
X021256Y009625D02*
X021296Y009625D01*
X021296Y009783D02*
X021256Y009783D01*
X021256Y009942D02*
X021296Y009942D01*
X021296Y010100D02*
X021256Y010100D01*
X021256Y010259D02*
X021296Y010259D01*
X021296Y010417D02*
X021256Y010417D01*
X021256Y010537D02*
X021256Y010997D01*
X020796Y010997D01*
X020796Y010818D01*
X021077Y010537D01*
X021256Y010537D01*
X021256Y010576D02*
X021296Y010576D01*
X021296Y010537D02*
X021475Y010537D01*
X021756Y010818D01*
X021756Y010997D01*
X021296Y010997D01*
X021296Y011037D01*
X021256Y011037D01*
X021256Y011497D01*
X021077Y011497D01*
X020796Y011215D01*
X020796Y011037D01*
X021256Y011037D01*
X021256Y010997D01*
X021296Y010997D01*
X021296Y010537D01*
X021296Y010734D02*
X021256Y010734D01*
X021256Y010893D02*
X021296Y010893D01*
X021296Y011037D02*
X021756Y011037D01*
X021756Y011215D01*
X021475Y011497D01*
X021296Y011497D01*
X021296Y011037D01*
X021296Y011051D02*
X021256Y011051D01*
X021256Y011210D02*
X021296Y011210D01*
X021296Y011368D02*
X021256Y011368D01*
X020948Y011368D02*
X020276Y011368D01*
X020276Y011210D02*
X020796Y011210D01*
X020796Y011051D02*
X020276Y011051D01*
X020276Y010893D02*
X020796Y010893D01*
X020879Y010734D02*
X020276Y010734D01*
X020276Y010576D02*
X021038Y010576D01*
X020997Y010417D02*
X020276Y010417D01*
X020276Y010259D02*
X020839Y010259D01*
X020796Y010100D02*
X020276Y010100D01*
X020276Y009942D02*
X020796Y009942D01*
X020830Y009783D02*
X020276Y009783D01*
X021563Y009625D02*
X021989Y009625D01*
X022077Y009537D02*
X022256Y009537D01*
X022256Y009997D01*
X021796Y009997D01*
X021796Y009818D01*
X022077Y009537D01*
X022256Y009625D02*
X022296Y009625D01*
X022296Y009537D02*
X022475Y009537D01*
X022756Y009818D01*
X022756Y009997D01*
X022296Y009997D01*
X022296Y010037D01*
X022256Y010037D01*
X022256Y010497D01*
X022077Y010497D01*
X021796Y010215D01*
X021796Y010037D01*
X022256Y010037D01*
X022256Y009997D01*
X022296Y009997D01*
X022296Y009537D01*
X022296Y009783D02*
X022256Y009783D01*
X022256Y009942D02*
X022296Y009942D01*
X022296Y010037D02*
X022756Y010037D01*
X022756Y010215D01*
X022475Y010497D01*
X022296Y010497D01*
X022296Y010037D01*
X022296Y010100D02*
X022256Y010100D01*
X022256Y010259D02*
X022296Y010259D01*
X022296Y010417D02*
X022256Y010417D01*
X022256Y010537D02*
X022077Y010537D01*
X021796Y010818D01*
X021796Y010997D01*
X022256Y010997D01*
X022256Y011037D01*
X022256Y011497D01*
X022077Y011497D01*
X021796Y011215D01*
X021796Y011037D01*
X022256Y011037D01*
X022296Y011037D01*
X022296Y011497D01*
X022475Y011497D01*
X022756Y011215D01*
X022756Y011037D01*
X022296Y011037D01*
X022296Y010997D01*
X022756Y010997D01*
X022756Y010818D01*
X022475Y010537D01*
X022296Y010537D01*
X022296Y010997D01*
X022256Y010997D01*
X022256Y010537D01*
X022256Y010576D02*
X022296Y010576D01*
X022296Y010734D02*
X022256Y010734D01*
X022256Y010893D02*
X022296Y010893D01*
X022296Y011051D02*
X022256Y011051D01*
X022256Y011210D02*
X022296Y011210D01*
X022296Y011368D02*
X022256Y011368D01*
X021948Y011368D02*
X021603Y011368D01*
X021756Y011210D02*
X021796Y011210D01*
X021796Y011051D02*
X021756Y011051D01*
X021756Y010893D02*
X021796Y010893D01*
X021879Y010734D02*
X021672Y010734D01*
X021514Y010576D02*
X022038Y010576D01*
X021997Y010417D02*
X021554Y010417D01*
X021713Y010259D02*
X021839Y010259D01*
X021796Y010100D02*
X021756Y010100D01*
X021756Y009942D02*
X021796Y009942D01*
X021830Y009783D02*
X021721Y009783D01*
X022563Y009625D02*
X022989Y009625D01*
X023077Y009537D02*
X023256Y009537D01*
X023256Y009997D01*
X022796Y009997D01*
X022796Y009818D01*
X023077Y009537D01*
X023256Y009625D02*
X023296Y009625D01*
X023296Y009537D02*
X023475Y009537D01*
X023756Y009818D01*
X023756Y009997D01*
X023296Y009997D01*
X023296Y010037D01*
X023256Y010037D01*
X023256Y010497D01*
X023077Y010497D01*
X022796Y010215D01*
X022796Y010037D01*
X023256Y010037D01*
X023256Y009997D01*
X023296Y009997D01*
X023296Y009537D01*
X023296Y009783D02*
X023256Y009783D01*
X023256Y009942D02*
X023296Y009942D01*
X023296Y010037D02*
X023756Y010037D01*
X023756Y010215D01*
X023475Y010497D01*
X023296Y010497D01*
X023296Y010037D01*
X023296Y010100D02*
X023256Y010100D01*
X023256Y010259D02*
X023296Y010259D01*
X023296Y010417D02*
X023256Y010417D01*
X023256Y010537D02*
X023256Y010997D01*
X022796Y010997D01*
X022796Y010818D01*
X023077Y010537D01*
X023256Y010537D01*
X023256Y010576D02*
X023296Y010576D01*
X023296Y010537D02*
X023475Y010537D01*
X023756Y010818D01*
X023756Y010997D01*
X023296Y010997D01*
X023296Y011037D01*
X023256Y011037D01*
X023256Y011497D01*
X023077Y011497D01*
X022796Y011215D01*
X022796Y011037D01*
X023256Y011037D01*
X023256Y010997D01*
X023296Y010997D01*
X023296Y010537D01*
X023296Y010734D02*
X023256Y010734D01*
X023256Y010893D02*
X023296Y010893D01*
X023296Y011037D02*
X023756Y011037D01*
X023756Y011215D01*
X023475Y011497D01*
X023296Y011497D01*
X023296Y011037D01*
X023296Y011051D02*
X023256Y011051D01*
X023256Y011210D02*
X023296Y011210D01*
X023296Y011368D02*
X023256Y011368D01*
X022948Y011368D02*
X022603Y011368D01*
X022756Y011210D02*
X022796Y011210D01*
X022796Y011051D02*
X022756Y011051D01*
X022756Y010893D02*
X022796Y010893D01*
X022879Y010734D02*
X022672Y010734D01*
X022514Y010576D02*
X023038Y010576D01*
X022997Y010417D02*
X022554Y010417D01*
X022713Y010259D02*
X022839Y010259D01*
X022796Y010100D02*
X022756Y010100D01*
X022756Y009942D02*
X022796Y009942D01*
X022830Y009783D02*
X022721Y009783D01*
X023563Y009625D02*
X024276Y009625D01*
X024276Y009783D02*
X023721Y009783D01*
X023756Y009942D02*
X024276Y009942D01*
X024276Y010100D02*
X023756Y010100D01*
X023713Y010259D02*
X024276Y010259D01*
X024276Y010417D02*
X023554Y010417D01*
X023514Y010576D02*
X024276Y010576D01*
X024276Y010734D02*
X023672Y010734D01*
X023756Y010893D02*
X024276Y010893D01*
X024241Y011051D02*
X023756Y011051D01*
X023756Y011210D02*
X024083Y011210D01*
X023924Y011368D02*
X023603Y011368D01*
X023766Y011527D02*
X020286Y011527D01*
X020444Y011685D02*
X023607Y011685D01*
X023449Y011844D02*
X020603Y011844D01*
X020761Y012002D02*
X023290Y012002D01*
X024276Y006930D02*
X005258Y006930D01*
X005257Y006772D02*
X024276Y006772D01*
X024276Y006613D02*
X005257Y006613D01*
X005256Y006455D02*
X006035Y006455D01*
X005876Y006296D02*
X005255Y006296D01*
X005255Y006138D02*
X005796Y006138D01*
X005796Y005979D02*
X005254Y005979D01*
X005253Y005821D02*
X005796Y005821D01*
X005925Y005345D02*
X005252Y005345D01*
X005251Y005187D02*
X005796Y005187D01*
X006256Y005187D02*
X006296Y005187D01*
X006296Y005345D02*
X006256Y005345D01*
X006296Y004997D02*
X006756Y004997D01*
X006756Y004818D01*
X006475Y004537D01*
X006296Y004537D01*
X006296Y004997D01*
X006296Y004870D02*
X006256Y004870D01*
X006256Y004711D02*
X006296Y004711D01*
X006296Y004553D02*
X006256Y004553D01*
X006491Y004553D02*
X007061Y004553D01*
X007256Y004553D02*
X007296Y004553D01*
X007296Y004537D02*
X007475Y004537D01*
X007756Y004818D01*
X007756Y004997D01*
X007296Y004997D01*
X007296Y004537D01*
X007296Y004711D02*
X007256Y004711D01*
X007256Y004870D02*
X007296Y004870D01*
X007296Y005187D02*
X007256Y005187D01*
X007256Y005345D02*
X007296Y005345D01*
X007626Y005345D02*
X007925Y005345D01*
X007796Y005187D02*
X007756Y005187D01*
X007756Y004870D02*
X007796Y004870D01*
X007902Y004711D02*
X007649Y004711D01*
X007491Y004553D02*
X008061Y004553D01*
X008256Y004553D02*
X008296Y004553D01*
X008296Y004537D02*
X008475Y004537D01*
X008756Y004818D01*
X008756Y004997D01*
X008296Y004997D01*
X008296Y004537D01*
X008296Y004711D02*
X008256Y004711D01*
X008256Y004870D02*
X008296Y004870D01*
X008296Y005187D02*
X008256Y005187D01*
X008256Y005345D02*
X008296Y005345D01*
X008626Y005345D02*
X008925Y005345D01*
X008796Y005187D02*
X008756Y005187D01*
X008756Y004870D02*
X008796Y004870D01*
X008902Y004711D02*
X008649Y004711D01*
X008491Y004553D02*
X009061Y004553D01*
X009256Y004553D02*
X009296Y004553D01*
X009296Y004537D02*
X009475Y004537D01*
X009756Y004818D01*
X009756Y004997D01*
X009296Y004997D01*
X009296Y004537D01*
X009296Y004711D02*
X009256Y004711D01*
X009256Y004870D02*
X009296Y004870D01*
X009296Y005187D02*
X009256Y005187D01*
X009256Y005345D02*
X009296Y005345D01*
X009626Y005345D02*
X013425Y005345D01*
X013296Y005187D02*
X009756Y005187D01*
X009756Y004870D02*
X013296Y004870D01*
X013402Y004711D02*
X009649Y004711D01*
X009491Y004553D02*
X013561Y004553D01*
X013756Y004553D02*
X013796Y004553D01*
X013796Y004537D02*
X013975Y004537D01*
X014256Y004818D01*
X014256Y004997D01*
X013796Y004997D01*
X013796Y004537D01*
X013796Y004711D02*
X013756Y004711D01*
X013756Y004870D02*
X013796Y004870D01*
X013796Y005187D02*
X013756Y005187D01*
X013756Y005345D02*
X013796Y005345D01*
X014126Y005345D02*
X014425Y005345D01*
X014296Y005187D02*
X014256Y005187D01*
X014256Y004870D02*
X014296Y004870D01*
X014402Y004711D02*
X014149Y004711D01*
X013991Y004553D02*
X014561Y004553D01*
X014756Y004553D02*
X014796Y004553D01*
X014796Y004537D02*
X014975Y004537D01*
X015256Y004818D01*
X015256Y004997D01*
X014796Y004997D01*
X014796Y004537D01*
X014796Y004711D02*
X014756Y004711D01*
X014756Y004870D02*
X014796Y004870D01*
X014796Y005187D02*
X014756Y005187D01*
X014756Y005345D02*
X014796Y005345D01*
X015126Y005345D02*
X015425Y005345D01*
X015296Y005187D02*
X015256Y005187D01*
X015256Y004870D02*
X015296Y004870D01*
X015402Y004711D02*
X015149Y004711D01*
X014991Y004553D02*
X015561Y004553D01*
X015756Y004553D02*
X015796Y004553D01*
X015796Y004711D02*
X015756Y004711D01*
X015756Y004870D02*
X015796Y004870D01*
X015796Y005187D02*
X015756Y005187D01*
X015756Y005345D02*
X015796Y005345D01*
X016100Y005662D02*
X016451Y005662D01*
X016296Y005821D02*
X016256Y005821D01*
X016256Y005979D02*
X016296Y005979D01*
X016296Y006138D02*
X016256Y006138D01*
X016175Y006296D02*
X016376Y006296D01*
X015535Y006455D02*
X015017Y006455D01*
X015175Y006296D02*
X015376Y006296D01*
X015296Y006138D02*
X015256Y006138D01*
X015256Y005979D02*
X015296Y005979D01*
X015296Y005821D02*
X015256Y005821D01*
X014451Y005662D02*
X014100Y005662D01*
X014256Y005821D02*
X014296Y005821D01*
X014296Y005979D02*
X014256Y005979D01*
X014256Y006138D02*
X014296Y006138D01*
X014376Y006296D02*
X014175Y006296D01*
X013535Y006455D02*
X009517Y006455D01*
X009675Y006296D02*
X013376Y006296D01*
X013296Y006138D02*
X009756Y006138D01*
X009756Y005979D02*
X013296Y005979D01*
X013296Y005821D02*
X009756Y005821D01*
X008951Y005662D02*
X008600Y005662D01*
X008756Y005821D02*
X008796Y005821D01*
X008796Y005979D02*
X008756Y005979D01*
X008756Y006138D02*
X008796Y006138D01*
X008876Y006296D02*
X008675Y006296D01*
X008035Y006455D02*
X007517Y006455D01*
X007675Y006296D02*
X007876Y006296D01*
X007796Y006138D02*
X007756Y006138D01*
X007756Y005979D02*
X007796Y005979D01*
X007796Y005821D02*
X007756Y005821D01*
X006951Y005662D02*
X006600Y005662D01*
X006756Y005821D02*
X006796Y005821D01*
X006796Y005979D02*
X006756Y005979D01*
X006756Y006138D02*
X006796Y006138D01*
X006876Y006296D02*
X006675Y006296D01*
X006626Y005345D02*
X006925Y005345D01*
X006796Y005187D02*
X006756Y005187D01*
X006756Y004870D02*
X006796Y004870D01*
X006902Y004711D02*
X006649Y004711D01*
X005258Y007089D02*
X012204Y007089D01*
X012045Y007247D02*
X005259Y007247D01*
X005260Y007406D02*
X011887Y007406D01*
X011776Y007564D02*
X005260Y007564D01*
X005261Y007723D02*
X011776Y007723D01*
X011776Y007881D02*
X005262Y007881D01*
X005262Y008040D02*
X011776Y008040D01*
X011776Y008198D02*
X005263Y008198D01*
X005263Y008357D02*
X011776Y008357D01*
X011776Y008515D02*
X005264Y008515D01*
X005265Y008674D02*
X011776Y008674D01*
X011776Y008832D02*
X005265Y008832D01*
X005266Y008991D02*
X011776Y008991D01*
X011776Y009149D02*
X005267Y009149D01*
X005267Y009308D02*
X011776Y009308D01*
X011776Y009466D02*
X005268Y009466D01*
X005268Y009625D02*
X005989Y009625D01*
X006077Y009537D02*
X006256Y009537D01*
X006256Y009997D01*
X005796Y009997D01*
X005796Y009818D01*
X006077Y009537D01*
X006256Y009625D02*
X006296Y009625D01*
X006296Y009537D02*
X006475Y009537D01*
X006756Y009818D01*
X006756Y009997D01*
X006296Y009997D01*
X006296Y010037D01*
X006256Y010037D01*
X006256Y010497D01*
X006077Y010497D01*
X005796Y010215D01*
X005796Y010037D01*
X006256Y010037D01*
X006256Y009997D01*
X006296Y009997D01*
X006296Y009537D01*
X006296Y009783D02*
X006256Y009783D01*
X006256Y009942D02*
X006296Y009942D01*
X006296Y010037D02*
X006756Y010037D01*
X006756Y010215D01*
X006475Y010497D01*
X006296Y010497D01*
X006296Y010037D01*
X006296Y010100D02*
X006256Y010100D01*
X006256Y010259D02*
X006296Y010259D01*
X006296Y010417D02*
X006256Y010417D01*
X006256Y010537D02*
X006077Y010537D01*
X005796Y010818D01*
X005796Y010997D01*
X006256Y010997D01*
X006256Y011037D01*
X006256Y011497D01*
X006077Y011497D01*
X005796Y011215D01*
X005796Y011037D01*
X006256Y011037D01*
X006296Y011037D01*
X006296Y011497D01*
X006475Y011497D01*
X006756Y011215D01*
X006756Y011037D01*
X006296Y011037D01*
X006296Y010997D01*
X006756Y010997D01*
X006756Y010818D01*
X006475Y010537D01*
X006296Y010537D01*
X006296Y010997D01*
X006256Y010997D01*
X006256Y010537D01*
X006256Y010576D02*
X006296Y010576D01*
X006296Y010734D02*
X006256Y010734D01*
X006256Y010893D02*
X006296Y010893D01*
X006296Y011051D02*
X006256Y011051D01*
X006256Y011210D02*
X006296Y011210D01*
X006296Y011368D02*
X006256Y011368D01*
X005948Y011368D02*
X005275Y011368D01*
X005275Y011210D02*
X005796Y011210D01*
X005796Y011051D02*
X005274Y011051D01*
X005273Y010893D02*
X005796Y010893D01*
X005879Y010734D02*
X005273Y010734D01*
X005272Y010576D02*
X006038Y010576D01*
X005997Y010417D02*
X005271Y010417D01*
X005271Y010259D02*
X005839Y010259D01*
X005796Y010100D02*
X005270Y010100D01*
X005270Y009942D02*
X005796Y009942D01*
X005830Y009783D02*
X005269Y009783D01*
X006563Y009625D02*
X006989Y009625D01*
X007077Y009537D02*
X007256Y009537D01*
X007256Y009997D01*
X006796Y009997D01*
X006796Y009818D01*
X007077Y009537D01*
X007256Y009625D02*
X007296Y009625D01*
X007296Y009537D02*
X007475Y009537D01*
X007756Y009818D01*
X007756Y009997D01*
X007296Y009997D01*
X007296Y010037D01*
X007256Y010037D01*
X007256Y010497D01*
X007077Y010497D01*
X006796Y010215D01*
X006796Y010037D01*
X007256Y010037D01*
X007256Y009997D01*
X007296Y009997D01*
X007296Y009537D01*
X007296Y009783D02*
X007256Y009783D01*
X007256Y009942D02*
X007296Y009942D01*
X007296Y010037D02*
X007756Y010037D01*
X007756Y010215D01*
X007475Y010497D01*
X007296Y010497D01*
X007296Y010037D01*
X007296Y010100D02*
X007256Y010100D01*
X007256Y010259D02*
X007296Y010259D01*
X007296Y010417D02*
X007256Y010417D01*
X007256Y010537D02*
X007256Y010997D01*
X006796Y010997D01*
X006796Y010818D01*
X007077Y010537D01*
X007256Y010537D01*
X007256Y010576D02*
X007296Y010576D01*
X007296Y010537D02*
X007475Y010537D01*
X007756Y010818D01*
X007756Y010997D01*
X007296Y010997D01*
X007296Y011037D01*
X007256Y011037D01*
X007256Y011497D01*
X007077Y011497D01*
X006796Y011215D01*
X006796Y011037D01*
X007256Y011037D01*
X007256Y010997D01*
X007296Y010997D01*
X007296Y010537D01*
X007296Y010734D02*
X007256Y010734D01*
X007256Y010893D02*
X007296Y010893D01*
X007296Y011037D02*
X007756Y011037D01*
X007756Y011215D01*
X007475Y011497D01*
X007296Y011497D01*
X007296Y011037D01*
X007296Y011051D02*
X007256Y011051D01*
X007256Y011210D02*
X007296Y011210D01*
X007296Y011368D02*
X007256Y011368D01*
X006948Y011368D02*
X006603Y011368D01*
X006756Y011210D02*
X006796Y011210D01*
X006796Y011051D02*
X006756Y011051D01*
X006756Y010893D02*
X006796Y010893D01*
X006879Y010734D02*
X006672Y010734D01*
X006514Y010576D02*
X007038Y010576D01*
X006997Y010417D02*
X006554Y010417D01*
X006713Y010259D02*
X006839Y010259D01*
X006796Y010100D02*
X006756Y010100D01*
X006756Y009942D02*
X006796Y009942D01*
X006830Y009783D02*
X006721Y009783D01*
X007563Y009625D02*
X007989Y009625D01*
X008077Y009537D02*
X008256Y009537D01*
X008256Y009997D01*
X007796Y009997D01*
X007796Y009818D01*
X008077Y009537D01*
X008256Y009625D02*
X008296Y009625D01*
X008296Y009537D02*
X008475Y009537D01*
X008756Y009818D01*
X008756Y009997D01*
X008296Y009997D01*
X008296Y010037D01*
X008256Y010037D01*
X008256Y010497D01*
X008077Y010497D01*
X007796Y010215D01*
X007796Y010037D01*
X008256Y010037D01*
X008256Y009997D01*
X008296Y009997D01*
X008296Y009537D01*
X008296Y009783D02*
X008256Y009783D01*
X008256Y009942D02*
X008296Y009942D01*
X008296Y010037D02*
X008756Y010037D01*
X008756Y010215D01*
X008475Y010497D01*
X008296Y010497D01*
X008296Y010037D01*
X008296Y010100D02*
X008256Y010100D01*
X008256Y010259D02*
X008296Y010259D01*
X008296Y010417D02*
X008256Y010417D01*
X008256Y010537D02*
X008256Y010997D01*
X007796Y010997D01*
X007796Y010818D01*
X008077Y010537D01*
X008256Y010537D01*
X008256Y010576D02*
X008296Y010576D01*
X008296Y010537D02*
X008475Y010537D01*
X008756Y010818D01*
X008756Y010997D01*
X008296Y010997D01*
X008296Y011037D01*
X008256Y011037D01*
X008256Y011497D01*
X008077Y011497D01*
X007796Y011215D01*
X007796Y011037D01*
X008256Y011037D01*
X008256Y010997D01*
X008296Y010997D01*
X008296Y010537D01*
X008296Y010734D02*
X008256Y010734D01*
X008256Y010893D02*
X008296Y010893D01*
X008296Y011037D02*
X008756Y011037D01*
X008756Y011215D01*
X008475Y011497D01*
X008296Y011497D01*
X008296Y011037D01*
X008296Y011051D02*
X008256Y011051D01*
X008256Y011210D02*
X008296Y011210D01*
X008296Y011368D02*
X008256Y011368D01*
X007948Y011368D02*
X007603Y011368D01*
X007756Y011210D02*
X007796Y011210D01*
X007796Y011051D02*
X007756Y011051D01*
X007756Y010893D02*
X007796Y010893D01*
X007879Y010734D02*
X007672Y010734D01*
X007514Y010576D02*
X008038Y010576D01*
X007997Y010417D02*
X007554Y010417D01*
X007713Y010259D02*
X007839Y010259D01*
X007796Y010100D02*
X007756Y010100D01*
X007756Y009942D02*
X007796Y009942D01*
X007830Y009783D02*
X007721Y009783D01*
X008563Y009625D02*
X008989Y009625D01*
X009077Y009537D02*
X009256Y009537D01*
X009256Y009997D01*
X008796Y009997D01*
X008796Y009818D01*
X009077Y009537D01*
X009256Y009625D02*
X009296Y009625D01*
X009296Y009537D02*
X009475Y009537D01*
X009756Y009818D01*
X009756Y009997D01*
X009296Y009997D01*
X009296Y010037D01*
X009256Y010037D01*
X009256Y010497D01*
X009077Y010497D01*
X008796Y010215D01*
X008796Y010037D01*
X009256Y010037D01*
X009256Y009997D01*
X009296Y009997D01*
X009296Y009537D01*
X009296Y009783D02*
X009256Y009783D01*
X009256Y009942D02*
X009296Y009942D01*
X009296Y010037D02*
X009756Y010037D01*
X009756Y010215D01*
X009475Y010497D01*
X009296Y010497D01*
X009296Y010037D01*
X009296Y010100D02*
X009256Y010100D01*
X009256Y010259D02*
X009296Y010259D01*
X009296Y010417D02*
X009256Y010417D01*
X009256Y010537D02*
X009077Y010537D01*
X008796Y010818D01*
X008796Y010997D01*
X009256Y010997D01*
X009256Y011037D01*
X009256Y011497D01*
X009077Y011497D01*
X008796Y011215D01*
X008796Y011037D01*
X009256Y011037D01*
X009296Y011037D01*
X009296Y011497D01*
X009475Y011497D01*
X009756Y011215D01*
X009756Y011037D01*
X009296Y011037D01*
X009296Y010997D01*
X009756Y010997D01*
X009756Y010818D01*
X009475Y010537D01*
X009296Y010537D01*
X009296Y010997D01*
X009256Y010997D01*
X009256Y010537D01*
X009256Y010576D02*
X009296Y010576D01*
X009296Y010734D02*
X009256Y010734D01*
X009256Y010893D02*
X009296Y010893D01*
X009296Y011051D02*
X009256Y011051D01*
X009256Y011210D02*
X009296Y011210D01*
X009296Y011368D02*
X009256Y011368D01*
X008948Y011368D02*
X008603Y011368D01*
X008756Y011210D02*
X008796Y011210D01*
X008796Y011051D02*
X008756Y011051D01*
X008756Y010893D02*
X008796Y010893D01*
X008879Y010734D02*
X008672Y010734D01*
X008514Y010576D02*
X009038Y010576D01*
X008997Y010417D02*
X008554Y010417D01*
X008713Y010259D02*
X008839Y010259D01*
X008796Y010100D02*
X008756Y010100D01*
X008756Y009942D02*
X008796Y009942D01*
X008830Y009783D02*
X008721Y009783D01*
X009563Y009625D02*
X011776Y009625D01*
X011776Y009783D02*
X009721Y009783D01*
X009756Y009942D02*
X011776Y009942D01*
X011776Y010100D02*
X009756Y010100D01*
X009713Y010259D02*
X011776Y010259D01*
X011776Y010417D02*
X009554Y010417D01*
X009514Y010576D02*
X011776Y010576D01*
X011776Y010734D02*
X009672Y010734D01*
X009756Y010893D02*
X011776Y010893D01*
X011776Y011051D02*
X009756Y011051D01*
X009756Y011210D02*
X011776Y011210D01*
X011776Y011368D02*
X009603Y011368D01*
X009420Y012161D02*
X011776Y012161D01*
X011776Y012319D02*
X009578Y012319D01*
X009737Y012478D02*
X011776Y012478D01*
X011776Y012636D02*
X009776Y012636D01*
X009776Y012795D02*
X011685Y012795D01*
X011776Y013017D02*
X039276Y013017D01*
X039776Y013517D01*
X039776Y014517D01*
X038776Y014517D02*
X038776Y014017D01*
X038276Y013517D01*
X012276Y013517D01*
X011776Y014017D01*
X011776Y014517D01*
X011356Y014538D02*
X011196Y014538D01*
X011196Y014380D02*
X011356Y014380D01*
X011356Y014221D02*
X011196Y014221D01*
X011150Y014063D02*
X011401Y014063D01*
X011534Y013904D02*
X011228Y013904D01*
X011386Y013746D02*
X011707Y013746D01*
X011776Y013587D02*
X011545Y013587D01*
X011703Y013429D02*
X011776Y013429D01*
X011776Y013017D02*
X010776Y014017D01*
X010776Y014517D01*
X010356Y014538D02*
X009776Y014538D01*
X009776Y014380D02*
X010356Y014380D01*
X010356Y014221D02*
X009776Y014221D01*
X009776Y014063D02*
X010401Y014063D01*
X010534Y013904D02*
X009776Y013904D01*
X009776Y013746D02*
X010707Y013746D01*
X010866Y013587D02*
X009776Y013587D01*
X009776Y013429D02*
X011024Y013429D01*
X011183Y013270D02*
X009776Y013270D01*
X009776Y013112D02*
X011341Y013112D01*
X011500Y012953D02*
X009776Y012953D01*
X011776Y012002D02*
X005761Y012002D01*
X005603Y011844D02*
X011776Y011844D01*
X011776Y011685D02*
X005444Y011685D01*
X005286Y011527D02*
X011776Y011527D01*
X012776Y014517D02*
X012776Y019017D01*
X013276Y019517D01*
X024276Y019517D01*
X024776Y020017D01*
X024776Y020517D01*
X024776Y025517D02*
X023776Y026517D01*
X023776Y029517D01*
X023276Y030017D01*
X022276Y030017D02*
X021776Y029517D01*
X021776Y027017D01*
X023276Y025517D01*
X021776Y025517D02*
X020776Y026517D01*
X020776Y029517D01*
X021276Y030017D01*
X011776Y029913D02*
X009756Y029913D01*
X009756Y029997D02*
X009296Y029997D01*
X009296Y030037D01*
X009256Y030037D01*
X009256Y030497D01*
X009077Y030497D01*
X008796Y030215D01*
X008796Y030037D01*
X009256Y030037D01*
X009256Y029997D01*
X008796Y029997D01*
X008796Y029818D01*
X009077Y029537D01*
X009256Y029537D01*
X009256Y029997D01*
X009296Y029997D01*
X009296Y029537D01*
X009475Y029537D01*
X009756Y029818D01*
X009756Y029997D01*
X009756Y030037D02*
X009756Y030215D01*
X009475Y030497D01*
X009296Y030497D01*
X009296Y030037D01*
X009756Y030037D01*
X009756Y030071D02*
X011721Y030071D01*
X011563Y030230D02*
X009742Y030230D01*
X009583Y030388D02*
X011404Y030388D01*
X011246Y030547D02*
X005306Y030547D01*
X005276Y030388D02*
X005968Y030388D01*
X006077Y030497D02*
X005796Y030215D01*
X005796Y030037D01*
X006256Y030037D01*
X006256Y030497D01*
X006077Y030497D01*
X006256Y030388D02*
X006296Y030388D01*
X006296Y030497D02*
X006475Y030497D01*
X006756Y030215D01*
X006756Y030037D01*
X006296Y030037D01*
X006256Y030037D01*
X006256Y029997D01*
X005796Y029997D01*
X005796Y029818D01*
X006077Y029537D01*
X006256Y029537D01*
X006256Y029997D01*
X006296Y029997D01*
X006296Y030037D01*
X006296Y030497D01*
X006296Y030230D02*
X006256Y030230D01*
X006256Y030071D02*
X006296Y030071D01*
X006296Y029997D02*
X006756Y029997D01*
X006756Y029818D01*
X006475Y029537D01*
X006296Y029537D01*
X006296Y029997D01*
X006296Y029913D02*
X006256Y029913D01*
X006256Y029754D02*
X006296Y029754D01*
X006296Y029596D02*
X006256Y029596D01*
X006256Y029497D02*
X006077Y029497D01*
X005796Y029215D01*
X005796Y029037D01*
X006256Y029037D01*
X006256Y029497D01*
X006296Y029497D02*
X006475Y029497D01*
X006756Y029215D01*
X006756Y029037D01*
X006296Y029037D01*
X006256Y029037D01*
X006256Y028997D01*
X005796Y028997D01*
X005796Y028818D01*
X006077Y028537D01*
X006256Y028537D01*
X006256Y028997D01*
X006296Y028997D01*
X006296Y029037D01*
X006296Y029497D01*
X006296Y029437D02*
X006256Y029437D01*
X006256Y029279D02*
X006296Y029279D01*
X006296Y029120D02*
X006256Y029120D01*
X006296Y028997D02*
X006756Y028997D01*
X006756Y028818D01*
X006475Y028537D01*
X006296Y028537D01*
X006296Y028997D01*
X006296Y028962D02*
X006256Y028962D01*
X006256Y028803D02*
X006296Y028803D01*
X006296Y028645D02*
X006256Y028645D01*
X005969Y028645D02*
X005276Y028645D01*
X005276Y028803D02*
X005810Y028803D01*
X005796Y028962D02*
X005276Y028962D01*
X005276Y029120D02*
X005796Y029120D01*
X005859Y029279D02*
X005276Y029279D01*
X005276Y029437D02*
X006017Y029437D01*
X006018Y029596D02*
X005276Y029596D01*
X005276Y029754D02*
X005859Y029754D01*
X005796Y029913D02*
X005276Y029913D01*
X005276Y030071D02*
X005796Y030071D01*
X005810Y030230D02*
X005276Y030230D01*
X005464Y030705D02*
X011087Y030705D01*
X010929Y030864D02*
X005623Y030864D01*
X006583Y030388D02*
X006968Y030388D01*
X007077Y030497D02*
X006796Y030215D01*
X006796Y030037D01*
X007256Y030037D01*
X007256Y030497D01*
X007077Y030497D01*
X007256Y030388D02*
X007296Y030388D01*
X007296Y030497D02*
X007475Y030497D01*
X007756Y030215D01*
X007756Y030037D01*
X007296Y030037D01*
X007256Y030037D01*
X007256Y029997D01*
X006796Y029997D01*
X006796Y029818D01*
X007077Y029537D01*
X007256Y029537D01*
X007256Y029997D01*
X007296Y029997D01*
X007296Y030037D01*
X007296Y030497D01*
X007296Y030230D02*
X007256Y030230D01*
X007256Y030071D02*
X007296Y030071D01*
X007296Y029997D02*
X007756Y029997D01*
X007756Y029818D01*
X007475Y029537D01*
X007296Y029537D01*
X007296Y029997D01*
X007296Y029913D02*
X007256Y029913D01*
X007256Y029754D02*
X007296Y029754D01*
X007296Y029596D02*
X007256Y029596D01*
X007256Y029497D02*
X007077Y029497D01*
X006796Y029215D01*
X006796Y029037D01*
X007256Y029037D01*
X007256Y029497D01*
X007296Y029497D02*
X007475Y029497D01*
X007756Y029215D01*
X007756Y029037D01*
X007296Y029037D01*
X007256Y029037D01*
X007256Y028997D01*
X006796Y028997D01*
X006796Y028818D01*
X007077Y028537D01*
X007256Y028537D01*
X007256Y028997D01*
X007296Y028997D01*
X007296Y029037D01*
X007296Y029497D01*
X007296Y029437D02*
X007256Y029437D01*
X007256Y029279D02*
X007296Y029279D01*
X007296Y029120D02*
X007256Y029120D01*
X007296Y028997D02*
X007756Y028997D01*
X007756Y028818D01*
X007475Y028537D01*
X007296Y028537D01*
X007296Y028997D01*
X007296Y028962D02*
X007256Y028962D01*
X007256Y028803D02*
X007296Y028803D01*
X007296Y028645D02*
X007256Y028645D01*
X006969Y028645D02*
X006583Y028645D01*
X006741Y028803D02*
X006810Y028803D01*
X006796Y028962D02*
X006756Y028962D01*
X006756Y029120D02*
X006796Y029120D01*
X006859Y029279D02*
X006693Y029279D01*
X006534Y029437D02*
X007017Y029437D01*
X007018Y029596D02*
X006534Y029596D01*
X006692Y029754D02*
X006859Y029754D01*
X006796Y029913D02*
X006756Y029913D01*
X006756Y030071D02*
X006796Y030071D01*
X006810Y030230D02*
X006742Y030230D01*
X007583Y030388D02*
X007968Y030388D01*
X008077Y030497D02*
X007796Y030215D01*
X007796Y030037D01*
X008256Y030037D01*
X008256Y030497D01*
X008077Y030497D01*
X008256Y030388D02*
X008296Y030388D01*
X008296Y030497D02*
X008475Y030497D01*
X008756Y030215D01*
X008756Y030037D01*
X008296Y030037D01*
X008256Y030037D01*
X008256Y029997D01*
X007796Y029997D01*
X007796Y029818D01*
X008077Y029537D01*
X008256Y029537D01*
X008256Y029997D01*
X008296Y029997D01*
X008296Y030037D01*
X008296Y030497D01*
X008296Y030230D02*
X008256Y030230D01*
X008256Y030071D02*
X008296Y030071D01*
X008296Y029997D02*
X008756Y029997D01*
X008756Y029818D01*
X008475Y029537D01*
X008296Y029537D01*
X008296Y029997D01*
X008296Y029913D02*
X008256Y029913D01*
X008256Y029754D02*
X008296Y029754D01*
X008296Y029596D02*
X008256Y029596D01*
X008256Y029497D02*
X008077Y029497D01*
X007796Y029215D01*
X007796Y029037D01*
X008256Y029037D01*
X008256Y029497D01*
X008296Y029497D02*
X008475Y029497D01*
X008756Y029215D01*
X008756Y029037D01*
X008296Y029037D01*
X008256Y029037D01*
X008256Y028997D01*
X007796Y028997D01*
X007796Y028818D01*
X008077Y028537D01*
X008256Y028537D01*
X008256Y028997D01*
X008296Y028997D01*
X008296Y029037D01*
X008296Y029497D01*
X008296Y029437D02*
X008256Y029437D01*
X008256Y029279D02*
X008296Y029279D01*
X008296Y029120D02*
X008256Y029120D01*
X008296Y028997D02*
X008756Y028997D01*
X008756Y028818D01*
X008475Y028537D01*
X008296Y028537D01*
X008296Y028997D01*
X008296Y028962D02*
X008256Y028962D01*
X008256Y028803D02*
X008296Y028803D01*
X008296Y028645D02*
X008256Y028645D01*
X007969Y028645D02*
X007583Y028645D01*
X007741Y028803D02*
X007810Y028803D01*
X007796Y028962D02*
X007756Y028962D01*
X007756Y029120D02*
X007796Y029120D01*
X007859Y029279D02*
X007693Y029279D01*
X007534Y029437D02*
X008017Y029437D01*
X008018Y029596D02*
X007534Y029596D01*
X007692Y029754D02*
X007859Y029754D01*
X007796Y029913D02*
X007756Y029913D01*
X007756Y030071D02*
X007796Y030071D01*
X007810Y030230D02*
X007742Y030230D01*
X008583Y030388D02*
X008968Y030388D01*
X008810Y030230D02*
X008742Y030230D01*
X008756Y030071D02*
X008796Y030071D01*
X008796Y029913D02*
X008756Y029913D01*
X008692Y029754D02*
X008859Y029754D01*
X009018Y029596D02*
X008534Y029596D01*
X008534Y029437D02*
X009017Y029437D01*
X009077Y029497D02*
X008796Y029215D01*
X008796Y029037D01*
X009256Y029037D01*
X009256Y029497D01*
X009077Y029497D01*
X009256Y029437D02*
X009296Y029437D01*
X009296Y029497D02*
X009296Y029037D01*
X009256Y029037D01*
X009256Y028997D01*
X008796Y028997D01*
X008796Y028818D01*
X009077Y028537D01*
X009256Y028537D01*
X009256Y028997D01*
X009296Y028997D01*
X009296Y029037D01*
X009756Y029037D01*
X009756Y029215D01*
X009475Y029497D01*
X009296Y029497D01*
X009296Y029596D02*
X009256Y029596D01*
X009256Y029754D02*
X009296Y029754D01*
X009296Y029913D02*
X009256Y029913D01*
X009256Y030071D02*
X009296Y030071D01*
X009296Y030230D02*
X009256Y030230D01*
X009256Y030388D02*
X009296Y030388D01*
X009692Y029754D02*
X011776Y029754D01*
X011776Y029596D02*
X009534Y029596D01*
X009534Y029437D02*
X011776Y029437D01*
X011776Y029279D02*
X009693Y029279D01*
X009756Y029120D02*
X011776Y029120D01*
X011776Y028962D02*
X009756Y028962D01*
X009756Y028997D02*
X009296Y028997D01*
X009296Y028537D01*
X009475Y028537D01*
X009756Y028818D01*
X009756Y028997D01*
X009741Y028803D02*
X011776Y028803D01*
X011776Y028645D02*
X009583Y028645D01*
X009296Y028645D02*
X009256Y028645D01*
X009256Y028803D02*
X009296Y028803D01*
X009296Y028962D02*
X009256Y028962D01*
X009256Y029120D02*
X009296Y029120D01*
X009296Y029279D02*
X009256Y029279D01*
X008859Y029279D02*
X008693Y029279D01*
X008756Y029120D02*
X008796Y029120D01*
X008796Y028962D02*
X008756Y028962D01*
X008741Y028803D02*
X008810Y028803D01*
X008969Y028645D02*
X008583Y028645D01*
X008782Y028011D02*
X011776Y028011D01*
X011776Y028169D02*
X005623Y028169D01*
X005465Y028328D02*
X011776Y028328D01*
X011776Y028486D02*
X005306Y028486D01*
X008940Y027852D02*
X011776Y027852D01*
X011776Y027694D02*
X009099Y027694D01*
X009257Y027535D02*
X011776Y027535D01*
X011776Y027377D02*
X009416Y027377D01*
X009574Y027218D02*
X011776Y027218D01*
X011776Y027060D02*
X009733Y027060D01*
X009776Y026901D02*
X011776Y026901D01*
X011776Y026743D02*
X009776Y026743D01*
X009776Y026584D02*
X011776Y026584D01*
X011776Y026426D02*
X009776Y026426D01*
X009776Y026267D02*
X011776Y026267D01*
X011776Y026109D02*
X009776Y026109D01*
X009776Y025950D02*
X011776Y025950D01*
X011776Y025792D02*
X009776Y025792D01*
X009776Y025633D02*
X011776Y025633D01*
X011776Y025475D02*
X009776Y025475D01*
X009776Y025316D02*
X011776Y025316D01*
X011776Y025158D02*
X009776Y025158D01*
X009776Y024999D02*
X011776Y024999D01*
X011776Y024841D02*
X009776Y024841D01*
X009776Y024682D02*
X011776Y024682D01*
X011776Y024524D02*
X009776Y024524D01*
X009776Y024365D02*
X011776Y024365D01*
X011776Y024207D02*
X009776Y024207D01*
X009776Y024048D02*
X011776Y024048D01*
X011776Y023890D02*
X009776Y023890D01*
X009776Y023731D02*
X011776Y023731D01*
X011776Y023573D02*
X009776Y023573D01*
X009776Y023414D02*
X011776Y023414D01*
X011776Y023256D02*
X009776Y023256D01*
X009776Y023097D02*
X011776Y023097D01*
X011776Y022939D02*
X009776Y022939D01*
X009776Y022780D02*
X011776Y022780D01*
X011776Y022622D02*
X009776Y022622D01*
X009776Y022463D02*
X011776Y022463D01*
X011776Y022305D02*
X009776Y022305D01*
X009776Y022146D02*
X011776Y022146D01*
X011776Y021988D02*
X009776Y021988D01*
X009776Y021829D02*
X011776Y021829D01*
X011776Y021671D02*
X009776Y021671D01*
X009776Y021512D02*
X011776Y021512D01*
X011773Y021354D02*
X009776Y021354D01*
X009776Y021195D02*
X010640Y021195D01*
X010673Y021206D02*
X010607Y021184D01*
X010545Y021153D01*
X010489Y021112D01*
X010440Y021063D01*
X010399Y021007D01*
X010368Y020946D01*
X010347Y020880D01*
X010336Y020811D01*
X010336Y020517D01*
X010776Y020517D01*
X010776Y020517D01*
X010776Y021217D01*
X010810Y021217D01*
X010879Y021206D01*
X010945Y021184D01*
X011006Y021153D01*
X011062Y021112D01*
X011111Y021063D01*
X011152Y021007D01*
X011184Y020946D01*
X011205Y020880D01*
X011216Y020811D01*
X011216Y020517D01*
X010776Y020517D01*
X010776Y020517D01*
X010776Y021217D01*
X010741Y021217D01*
X010673Y021206D01*
X010776Y021195D02*
X010776Y021195D01*
X010912Y021195D02*
X011615Y021195D01*
X011442Y021037D02*
X011131Y021037D01*
X011205Y020878D02*
X011363Y020878D01*
X011356Y020720D02*
X011216Y020720D01*
X011216Y020561D02*
X011356Y020561D01*
X011216Y020517D02*
X010776Y020517D01*
X010776Y020517D01*
X010776Y019817D01*
X010810Y019817D01*
X010879Y019828D01*
X010945Y019849D01*
X011006Y019880D01*
X011062Y019921D01*
X011111Y019970D01*
X011152Y020026D01*
X011184Y020088D01*
X011205Y020154D01*
X011216Y020222D01*
X011216Y020517D01*
X011216Y020403D02*
X011356Y020403D01*
X011356Y020244D02*
X011216Y020244D01*
X011182Y020086D02*
X011392Y020086D01*
X011511Y019927D02*
X011069Y019927D01*
X010776Y019927D02*
X010776Y019927D01*
X010776Y019817D02*
X010776Y020517D01*
X010776Y020517D01*
X010336Y020517D01*
X010336Y020222D01*
X010347Y020154D01*
X010368Y020088D01*
X010399Y020026D01*
X010440Y019970D01*
X010489Y019921D01*
X010545Y019880D01*
X010607Y019849D01*
X010673Y019828D01*
X010741Y019817D01*
X010776Y019817D01*
X010776Y020086D02*
X010776Y020086D01*
X010776Y020244D02*
X010776Y020244D01*
X010776Y020403D02*
X010776Y020403D01*
X010776Y020561D02*
X010776Y020561D01*
X010776Y020720D02*
X010776Y020720D01*
X010776Y020878D02*
X010776Y020878D01*
X010776Y021037D02*
X010776Y021037D01*
X010421Y021037D02*
X009776Y021037D01*
X009776Y020878D02*
X010346Y020878D01*
X010336Y020720D02*
X009776Y020720D01*
X009776Y020561D02*
X010336Y020561D01*
X010336Y020403D02*
X009776Y020403D01*
X009776Y020244D02*
X010336Y020244D01*
X010369Y020086D02*
X009776Y020086D01*
X009776Y019927D02*
X010483Y019927D01*
X009776Y019769D02*
X011776Y019769D01*
X011776Y019610D02*
X009776Y019610D01*
X009776Y019452D02*
X011776Y019452D01*
X011776Y019293D02*
X009776Y019293D01*
X009776Y019135D02*
X011776Y019135D01*
X011776Y018976D02*
X009776Y018976D01*
X009776Y018818D02*
X011776Y018818D01*
X011776Y018659D02*
X009776Y018659D01*
X009776Y018501D02*
X011776Y018501D01*
X011776Y018342D02*
X009776Y018342D01*
X009776Y018184D02*
X011776Y018184D01*
X011776Y018025D02*
X009776Y018025D01*
X009776Y017867D02*
X011776Y017867D01*
X011776Y017708D02*
X009776Y017708D01*
X009776Y017550D02*
X011776Y017550D01*
X011776Y017391D02*
X009776Y017391D01*
X009776Y017233D02*
X011776Y017233D01*
X011776Y017074D02*
X009776Y017074D01*
X009776Y016916D02*
X011776Y016916D01*
X011776Y016757D02*
X009776Y016757D01*
X009776Y016599D02*
X011776Y016599D01*
X011776Y016440D02*
X009776Y016440D01*
X009776Y016282D02*
X011776Y016282D01*
X011776Y016123D02*
X009776Y016123D01*
X009776Y015965D02*
X011776Y015965D01*
X011776Y015806D02*
X009776Y015806D01*
X009776Y015648D02*
X011776Y015648D01*
X011776Y015489D02*
X009776Y015489D01*
X009776Y015331D02*
X011776Y015331D01*
X011633Y015172D02*
X010918Y015172D01*
X011132Y015014D02*
X011419Y015014D01*
X011356Y014855D02*
X011196Y014855D01*
X011196Y014697D02*
X011356Y014697D01*
X010419Y015014D02*
X009776Y015014D01*
X009776Y015172D02*
X010633Y015172D01*
X010356Y014855D02*
X009776Y014855D01*
X009776Y014697D02*
X010356Y014697D01*
X011776Y020517D02*
X011776Y021017D01*
X012776Y022017D01*
X036776Y022017D01*
X037276Y021517D01*
X037276Y017017D01*
X037776Y016517D01*
X037776Y014517D01*
X036776Y014517D02*
X036776Y016517D01*
X036276Y017017D01*
X036276Y021017D01*
X035776Y021517D01*
X013276Y021517D01*
X012776Y021017D01*
X012776Y020517D01*
X037276Y011017D02*
X037776Y010517D01*
X037776Y009517D01*
X038276Y009017D01*
X039776Y009017D01*
X040276Y009517D01*
X040276Y010517D01*
X040776Y011017D01*
X042776Y011017D01*
X044276Y011017D01*
X044826Y011368D02*
X046276Y011368D01*
X046276Y011210D02*
X044952Y011210D01*
X044996Y011051D02*
X046276Y011051D01*
X046276Y010893D02*
X044981Y010893D01*
X044896Y010734D02*
X046276Y010734D01*
X046276Y010576D02*
X042776Y010576D01*
X043239Y010417D02*
X043813Y010417D01*
X043620Y010259D02*
X043432Y010259D01*
X043396Y010734D02*
X043656Y010734D01*
X043725Y011368D02*
X043326Y011368D01*
X042776Y011527D02*
X046276Y011527D01*
X046045Y011685D02*
X042776Y011685D01*
X042776Y011844D02*
X045917Y011844D01*
X045878Y012002D02*
X042776Y012002D01*
X042776Y012161D02*
X045905Y012161D01*
X046016Y012319D02*
X042776Y012319D01*
X042776Y012478D02*
X046276Y012478D01*
X046276Y012636D02*
X042776Y012636D01*
X042776Y012795D02*
X046276Y012795D01*
X046276Y012953D02*
X042776Y012953D01*
X042776Y013112D02*
X046276Y013112D01*
X046276Y013270D02*
X042776Y013270D01*
X042776Y013429D02*
X046276Y013429D01*
X046276Y013587D02*
X042776Y013587D01*
X042776Y013746D02*
X046276Y013746D01*
X046276Y013904D02*
X044017Y013904D01*
X044014Y013901D02*
X044132Y014019D01*
X044196Y014173D01*
X044196Y014860D01*
X044132Y015015D01*
X044014Y015133D01*
X043859Y015197D01*
X043692Y015197D01*
X043538Y015133D01*
X043420Y015015D01*
X043356Y014860D01*
X043356Y014173D01*
X043420Y014019D01*
X043538Y013901D01*
X043692Y013837D01*
X043859Y013837D01*
X044014Y013901D01*
X044150Y014063D02*
X046276Y014063D01*
X046276Y014221D02*
X044196Y014221D01*
X044196Y014380D02*
X046276Y014380D01*
X046276Y014538D02*
X044196Y014538D01*
X044196Y014697D02*
X046276Y014697D01*
X046276Y014855D02*
X044196Y014855D01*
X044132Y015014D02*
X046276Y015014D01*
X046276Y015172D02*
X043918Y015172D01*
X043633Y015172D02*
X042918Y015172D01*
X042776Y015331D02*
X046276Y015331D01*
X046276Y015489D02*
X042776Y015489D01*
X042776Y015648D02*
X046276Y015648D01*
X046276Y015806D02*
X042776Y015806D01*
X042776Y015965D02*
X046276Y015965D01*
X046276Y016123D02*
X042776Y016123D01*
X042776Y016282D02*
X046276Y016282D01*
X046276Y016440D02*
X042776Y016440D01*
X042776Y016599D02*
X046276Y016599D01*
X046276Y016757D02*
X042776Y016757D01*
X042776Y016916D02*
X046276Y016916D01*
X046276Y017074D02*
X042776Y017074D01*
X042776Y017233D02*
X046276Y017233D01*
X046276Y017391D02*
X042776Y017391D01*
X042776Y017550D02*
X046276Y017550D01*
X046276Y017708D02*
X042776Y017708D01*
X042776Y017867D02*
X046276Y017867D01*
X046276Y018025D02*
X042776Y018025D01*
X042776Y018184D02*
X046276Y018184D01*
X046276Y018342D02*
X042776Y018342D01*
X042776Y018501D02*
X046276Y018501D01*
X046276Y018659D02*
X042776Y018659D01*
X042776Y018818D02*
X046276Y018818D01*
X046276Y018976D02*
X042776Y018976D01*
X042776Y019135D02*
X046276Y019135D01*
X046276Y019293D02*
X042776Y019293D01*
X042776Y019452D02*
X046276Y019452D01*
X046276Y019610D02*
X042776Y019610D01*
X042776Y019769D02*
X046276Y019769D01*
X046276Y019927D02*
X044069Y019927D01*
X044062Y019921D02*
X044111Y019970D01*
X044152Y020026D01*
X044184Y020088D01*
X044205Y020154D01*
X044216Y020222D01*
X044216Y020517D01*
X044216Y020811D01*
X044205Y020880D01*
X044184Y020946D01*
X044152Y021007D01*
X044111Y021063D01*
X044062Y021112D01*
X044006Y021153D01*
X043945Y021184D01*
X043879Y021206D01*
X043810Y021217D01*
X043776Y021217D01*
X043776Y020517D01*
X043776Y020517D01*
X044216Y020517D01*
X043776Y020517D01*
X043776Y020517D01*
X043776Y021217D01*
X043741Y021217D01*
X043673Y021206D01*
X043607Y021184D01*
X043545Y021153D01*
X043489Y021112D01*
X043440Y021063D01*
X043399Y021007D01*
X043368Y020946D01*
X043347Y020880D01*
X043336Y020811D01*
X043336Y020517D01*
X043776Y020517D01*
X043776Y020517D01*
X043776Y019817D01*
X043810Y019817D01*
X043879Y019828D01*
X043945Y019849D01*
X044006Y019880D01*
X044062Y019921D01*
X044182Y020086D02*
X046276Y020086D01*
X046276Y020244D02*
X044216Y020244D01*
X044216Y020403D02*
X046276Y020403D01*
X046276Y020561D02*
X044216Y020561D01*
X044216Y020720D02*
X046276Y020720D01*
X046276Y020878D02*
X044205Y020878D01*
X044131Y021037D02*
X046276Y021037D01*
X046276Y021195D02*
X043912Y021195D01*
X043776Y021195D02*
X043776Y021195D01*
X043640Y021195D02*
X042863Y021195D01*
X042776Y021354D02*
X046276Y021354D01*
X046276Y021512D02*
X042776Y021512D01*
X042776Y021671D02*
X046276Y021671D01*
X046276Y021829D02*
X042776Y021829D01*
X042776Y021988D02*
X046276Y021988D01*
X046276Y022146D02*
X042776Y022146D01*
X042883Y022305D02*
X043617Y022305D01*
X043599Y022310D02*
X043668Y022288D01*
X043740Y022277D01*
X043766Y022277D01*
X043766Y023007D01*
X043316Y023007D01*
X043316Y022700D01*
X043327Y022629D01*
X043349Y022560D01*
X043382Y022496D01*
X043425Y022437D01*
X043476Y022386D01*
X043535Y022343D01*
X043599Y022310D01*
X043766Y022305D02*
X043786Y022305D01*
X043786Y022277D02*
X043812Y022277D01*
X043883Y022288D01*
X043952Y022310D01*
X044017Y022343D01*
X044075Y022386D01*
X044127Y022437D01*
X044169Y022496D01*
X044202Y022560D01*
X044224Y022629D01*
X044236Y022700D01*
X044236Y023007D01*
X043786Y023007D01*
X043786Y023027D01*
X043766Y023027D01*
X043766Y023757D01*
X043740Y023757D01*
X043668Y023745D01*
X043599Y023723D01*
X043535Y023690D01*
X043476Y023648D01*
X043425Y023596D01*
X043382Y023538D01*
X043349Y023473D01*
X043327Y023404D01*
X043316Y023333D01*
X043316Y023027D01*
X043766Y023027D01*
X043766Y023007D01*
X043786Y023007D01*
X043786Y022277D01*
X043935Y022305D02*
X046276Y022305D01*
X046276Y022463D02*
X044146Y022463D01*
X044222Y022622D02*
X046276Y022622D01*
X046276Y022780D02*
X044236Y022780D01*
X044236Y022939D02*
X046276Y022939D01*
X046276Y023097D02*
X044236Y023097D01*
X044236Y023027D02*
X044236Y023333D01*
X044224Y023404D01*
X044202Y023473D01*
X044169Y023538D01*
X044127Y023596D01*
X044075Y023648D01*
X044017Y023690D01*
X043952Y023723D01*
X043883Y023745D01*
X043812Y023757D01*
X043786Y023757D01*
X043786Y023027D01*
X044236Y023027D01*
X044236Y023256D02*
X046276Y023256D01*
X046276Y023414D02*
X044221Y023414D01*
X044144Y023573D02*
X046276Y023573D01*
X046276Y023731D02*
X043927Y023731D01*
X043786Y023731D02*
X043766Y023731D01*
X043625Y023731D02*
X043016Y023731D01*
X043016Y023890D02*
X046276Y023890D01*
X046276Y024048D02*
X043016Y024048D01*
X043016Y024207D02*
X046276Y024207D01*
X046276Y024365D02*
X044047Y024365D01*
X044075Y024386D02*
X044127Y024437D01*
X044169Y024496D01*
X044202Y024560D01*
X044224Y024629D01*
X044236Y024700D01*
X044236Y025007D01*
X043786Y025007D01*
X043786Y025027D01*
X043766Y025027D01*
X043766Y025757D01*
X043740Y025757D01*
X043668Y025745D01*
X043599Y025723D01*
X043535Y025690D01*
X043476Y025648D01*
X043425Y025596D01*
X043382Y025538D01*
X043349Y025473D01*
X043327Y025404D01*
X043316Y025333D01*
X043316Y025027D01*
X043766Y025027D01*
X043766Y025007D01*
X043316Y025007D01*
X043316Y024700D01*
X043327Y024629D01*
X043349Y024560D01*
X043382Y024496D01*
X043425Y024437D01*
X043476Y024386D01*
X043535Y024343D01*
X043599Y024310D01*
X043668Y024288D01*
X043740Y024277D01*
X043766Y024277D01*
X043766Y025007D01*
X043786Y025007D01*
X043786Y024277D01*
X043812Y024277D01*
X043883Y024288D01*
X043952Y024310D01*
X044017Y024343D01*
X044075Y024386D01*
X044184Y024524D02*
X046276Y024524D01*
X046276Y024682D02*
X044233Y024682D01*
X044236Y024841D02*
X046276Y024841D01*
X046276Y024999D02*
X044236Y024999D01*
X044236Y025027D02*
X044236Y025333D01*
X044224Y025404D01*
X044202Y025473D01*
X044169Y025538D01*
X044127Y025596D01*
X044075Y025648D01*
X044017Y025690D01*
X043952Y025723D01*
X043883Y025745D01*
X043812Y025757D01*
X043786Y025757D01*
X043786Y025027D01*
X044236Y025027D01*
X044236Y025158D02*
X046276Y025158D01*
X046276Y025316D02*
X044236Y025316D01*
X044201Y025475D02*
X046276Y025475D01*
X046276Y025633D02*
X044090Y025633D01*
X043786Y025633D02*
X043766Y025633D01*
X043766Y025475D02*
X043786Y025475D01*
X043786Y025316D02*
X043766Y025316D01*
X043766Y025158D02*
X043786Y025158D01*
X043786Y024999D02*
X043766Y024999D01*
X043766Y024841D02*
X043786Y024841D01*
X043786Y024682D02*
X043766Y024682D01*
X043766Y024524D02*
X043786Y024524D01*
X043786Y024365D02*
X043766Y024365D01*
X043504Y024365D02*
X043027Y024365D01*
X043164Y024524D02*
X043368Y024524D01*
X043319Y024682D02*
X043216Y024682D01*
X043216Y024841D02*
X043316Y024841D01*
X043316Y024999D02*
X043216Y024999D01*
X043216Y025158D02*
X043316Y025158D01*
X043316Y025316D02*
X043216Y025316D01*
X043178Y025475D02*
X043350Y025475D01*
X043462Y025633D02*
X043061Y025633D01*
X043016Y025792D02*
X046276Y025792D01*
X046276Y025950D02*
X043016Y025950D01*
X043016Y026109D02*
X046276Y026109D01*
X046276Y026267D02*
X043016Y026267D01*
X043087Y026426D02*
X043436Y026426D01*
X043425Y026437D02*
X043476Y026386D01*
X043535Y026343D01*
X043599Y026310D01*
X043668Y026288D01*
X043740Y026277D01*
X043766Y026277D01*
X043766Y027007D01*
X043316Y027007D01*
X043316Y026700D01*
X043327Y026629D01*
X043349Y026560D01*
X043382Y026496D01*
X043425Y026437D01*
X043342Y026584D02*
X043189Y026584D01*
X043216Y026743D02*
X043316Y026743D01*
X043316Y026901D02*
X043216Y026901D01*
X043216Y027060D02*
X043316Y027060D01*
X043316Y027027D02*
X043766Y027027D01*
X043766Y027757D01*
X043740Y027757D01*
X043668Y027745D01*
X043599Y027723D01*
X043535Y027690D01*
X043476Y027648D01*
X043425Y027596D01*
X043382Y027538D01*
X043349Y027473D01*
X043327Y027404D01*
X043316Y027333D01*
X043316Y027027D01*
X043316Y027218D02*
X043216Y027218D01*
X043216Y027377D02*
X043323Y027377D01*
X043294Y027535D02*
X043381Y027535D01*
X043453Y027694D02*
X043542Y027694D01*
X043611Y027852D02*
X045940Y027852D01*
X045782Y028011D02*
X043770Y028011D01*
X043786Y027757D02*
X043786Y027027D01*
X043766Y027027D01*
X043766Y027007D01*
X043786Y027007D01*
X043786Y027027D01*
X044236Y027027D01*
X044236Y027333D01*
X044224Y027404D01*
X044202Y027473D01*
X044169Y027538D01*
X044127Y027596D01*
X044075Y027648D01*
X044017Y027690D01*
X043952Y027723D01*
X043883Y027745D01*
X043812Y027757D01*
X043786Y027757D01*
X043786Y027694D02*
X043766Y027694D01*
X043766Y027535D02*
X043786Y027535D01*
X043786Y027377D02*
X043766Y027377D01*
X043766Y027218D02*
X043786Y027218D01*
X043786Y027060D02*
X043766Y027060D01*
X043786Y027007D02*
X044236Y027007D01*
X044236Y026700D01*
X044224Y026629D01*
X044202Y026560D01*
X044169Y026496D01*
X044127Y026437D01*
X044075Y026386D01*
X044017Y026343D01*
X043952Y026310D01*
X043883Y026288D01*
X043812Y026277D01*
X043786Y026277D01*
X043786Y027007D01*
X043786Y026901D02*
X043766Y026901D01*
X043766Y026743D02*
X043786Y026743D01*
X043786Y026584D02*
X043766Y026584D01*
X043766Y026426D02*
X043786Y026426D01*
X044115Y026426D02*
X046276Y026426D01*
X046276Y026584D02*
X044210Y026584D01*
X044236Y026743D02*
X046276Y026743D01*
X046276Y026901D02*
X044236Y026901D01*
X044236Y027060D02*
X046276Y027060D01*
X046276Y027218D02*
X044236Y027218D01*
X044229Y027377D02*
X046276Y027377D01*
X046257Y027535D02*
X044170Y027535D01*
X044010Y027694D02*
X046099Y027694D01*
X042776Y028017D02*
X042776Y027017D01*
X042776Y025017D01*
X042776Y023017D01*
X042276Y022517D01*
X042276Y021017D01*
X041776Y020517D01*
X041776Y016017D01*
X041276Y015517D01*
X041276Y013017D01*
X039276Y010017D01*
X040776Y009517D02*
X041276Y010017D01*
X042776Y010017D01*
X044276Y010017D01*
X044739Y010417D02*
X046276Y010417D01*
X046276Y010259D02*
X044932Y010259D01*
X044996Y010100D02*
X046276Y010100D01*
X046276Y009942D02*
X044996Y009942D01*
X044935Y009783D02*
X046276Y009783D01*
X046276Y009625D02*
X044759Y009625D01*
X043792Y009625D02*
X043259Y009625D01*
X042776Y009466D02*
X046276Y009466D01*
X046004Y009308D02*
X042776Y009308D01*
X042776Y009149D02*
X045900Y009149D01*
X045878Y008991D02*
X042776Y008991D01*
X042776Y008832D02*
X045922Y008832D01*
X046064Y008674D02*
X042776Y008674D01*
X042776Y008515D02*
X046277Y008515D01*
X046436Y008357D02*
X042776Y008357D01*
X042776Y008198D02*
X046594Y008198D01*
X046753Y008040D02*
X042776Y008040D01*
X042776Y007881D02*
X046911Y007881D01*
X047070Y007723D02*
X042776Y007723D01*
X042776Y007564D02*
X047228Y007564D01*
X048387Y007406D02*
X042776Y007406D01*
X042776Y007247D02*
X048545Y007247D01*
X048704Y007089D02*
X042776Y007089D01*
X042776Y006930D02*
X048776Y006930D01*
X048776Y006772D02*
X042776Y006772D01*
X042776Y006296D02*
X043376Y006296D01*
X043296Y006138D02*
X042776Y006138D01*
X042776Y005979D02*
X043296Y005979D01*
X043296Y005821D02*
X042776Y005821D01*
X042776Y005662D02*
X043451Y005662D01*
X043756Y005345D02*
X043796Y005345D01*
X043796Y005187D02*
X043756Y005187D01*
X043756Y004870D02*
X043796Y004870D01*
X043796Y004711D02*
X043756Y004711D01*
X043756Y004553D02*
X043796Y004553D01*
X043991Y004553D02*
X044561Y004553D01*
X044756Y004553D02*
X044796Y004553D01*
X044796Y004711D02*
X044756Y004711D01*
X044756Y004870D02*
X044796Y004870D01*
X044796Y005187D02*
X044756Y005187D01*
X044756Y005345D02*
X044796Y005345D01*
X045126Y005345D02*
X045425Y005345D01*
X045296Y005187D02*
X045256Y005187D01*
X045256Y004870D02*
X045296Y004870D01*
X045402Y004711D02*
X045149Y004711D01*
X044991Y004553D02*
X045561Y004553D01*
X045756Y004553D02*
X045796Y004553D01*
X045796Y004711D02*
X045756Y004711D01*
X045756Y004870D02*
X045796Y004870D01*
X045796Y005187D02*
X045756Y005187D01*
X045756Y005345D02*
X045796Y005345D01*
X045451Y005662D02*
X045100Y005662D01*
X045256Y005821D02*
X045296Y005821D01*
X045296Y005979D02*
X045256Y005979D01*
X045256Y006138D02*
X045296Y006138D01*
X045376Y006296D02*
X045175Y006296D01*
X044535Y006455D02*
X044017Y006455D01*
X044175Y006296D02*
X044376Y006296D01*
X044296Y006138D02*
X044256Y006138D01*
X044256Y005979D02*
X044296Y005979D01*
X044296Y005821D02*
X044256Y005821D01*
X044126Y005345D02*
X044425Y005345D01*
X044296Y005187D02*
X044256Y005187D01*
X044256Y004870D02*
X044296Y004870D01*
X044402Y004711D02*
X044149Y004711D01*
X043561Y004553D02*
X042312Y004553D01*
X042470Y004711D02*
X043402Y004711D01*
X043296Y004870D02*
X042629Y004870D01*
X043899Y002968D02*
X048147Y002968D01*
X040776Y009017D02*
X040276Y008517D01*
X037776Y008517D01*
X037276Y009017D01*
X037276Y010017D01*
X039276Y011017D02*
X040276Y013017D01*
X040276Y016017D01*
X040776Y016517D01*
X040776Y020517D01*
X041276Y021017D01*
X041276Y022517D01*
X041776Y023017D01*
X041776Y025017D01*
X041776Y027017D01*
X041776Y027517D01*
X041276Y028017D01*
X040276Y028017D01*
X039276Y027017D01*
X039276Y026517D01*
X037805Y027046D02*
X037793Y027031D01*
X037784Y027013D01*
X037778Y026995D01*
X037776Y026975D01*
X037776Y026517D01*
X037805Y027046D02*
X039276Y028517D01*
X042234Y028517D01*
X042305Y028487D02*
X042776Y028017D01*
X042305Y028488D02*
X042290Y028500D01*
X042272Y028509D01*
X042254Y028515D01*
X042234Y028517D01*
X043122Y023573D02*
X043408Y023573D01*
X043330Y023414D02*
X043203Y023414D01*
X043216Y023256D02*
X043316Y023256D01*
X043316Y023097D02*
X043216Y023097D01*
X043216Y022939D02*
X043316Y022939D01*
X043316Y022780D02*
X043216Y022780D01*
X043204Y022622D02*
X043329Y022622D01*
X043406Y022463D02*
X043125Y022463D01*
X043766Y022463D02*
X043786Y022463D01*
X043786Y022622D02*
X043766Y022622D01*
X043766Y022780D02*
X043786Y022780D01*
X043786Y022939D02*
X043766Y022939D01*
X043766Y023097D02*
X043786Y023097D01*
X043786Y023256D02*
X043766Y023256D01*
X043766Y023414D02*
X043786Y023414D01*
X043786Y023573D02*
X043766Y023573D01*
X043776Y021037D02*
X043776Y021037D01*
X043776Y020878D02*
X043776Y020878D01*
X043776Y020720D02*
X043776Y020720D01*
X043776Y020561D02*
X043776Y020561D01*
X043776Y020517D02*
X043336Y020517D01*
X043336Y020222D01*
X043347Y020154D01*
X043368Y020088D01*
X043399Y020026D01*
X043440Y019970D01*
X043489Y019921D01*
X043545Y019880D01*
X043607Y019849D01*
X043673Y019828D01*
X043741Y019817D01*
X043776Y019817D01*
X043776Y020517D01*
X043776Y020517D01*
X043776Y020403D02*
X043776Y020403D01*
X043776Y020244D02*
X043776Y020244D01*
X043776Y020086D02*
X043776Y020086D01*
X043776Y019927D02*
X043776Y019927D01*
X043483Y019927D02*
X043040Y019927D01*
X043160Y020086D02*
X043369Y020086D01*
X043336Y020244D02*
X043196Y020244D01*
X043196Y020403D02*
X043336Y020403D01*
X043336Y020561D02*
X043196Y020561D01*
X043196Y020720D02*
X043336Y020720D01*
X043346Y020878D02*
X043188Y020878D01*
X043110Y021037D02*
X043421Y021037D01*
X043419Y015014D02*
X043132Y015014D01*
X043196Y014855D02*
X043356Y014855D01*
X043356Y014697D02*
X043196Y014697D01*
X043196Y014538D02*
X043356Y014538D01*
X043356Y014380D02*
X043196Y014380D01*
X043196Y014221D02*
X043356Y014221D01*
X043401Y014063D02*
X043150Y014063D01*
X043017Y013904D02*
X043534Y013904D01*
X040776Y009517D02*
X040776Y009017D01*
M02*
