%
M48
M72
T01C0.0276
T02C0.0315
T03C0.0320
T04C0.0360
T05C0.0400
T06C0.1260
%
T01
X21776Y22517
X23276Y22517
X24776Y22517
X24776Y25517
X23276Y25517
X21776Y25517
X37776Y26517
X39276Y26517
X39276Y23517
X37776Y23517
X46276Y12017
X47776Y12017
X49276Y12017
X49276Y9017
X47776Y9017
X46276Y9017
T02
X30776Y16517
X30776Y17517
X29776Y17517
X28776Y17517
X27776Y17517
X27776Y16517
X28776Y16517
X29776Y16517
T03
X29776Y14517
X30776Y14517
X31776Y14517
X32776Y14517
X33776Y14517
X34776Y14517
X35776Y14517
X36776Y14517
X37776Y14517
X38776Y14517
X39776Y14517
X40776Y14517
X41776Y14517
X42776Y14517
X43776Y14517
X43776Y20517
X42776Y20517
X41776Y20517
X40776Y20517
X39776Y20517
X38776Y20517
X37776Y20517
X36776Y20517
X35776Y20517
X34776Y20517
X33776Y20517
X32776Y20517
X31776Y20517
X30776Y20517
X29776Y20517
X28776Y20517
X27776Y20517
X26776Y20517
X25776Y20517
X24776Y20517
X21776Y20517
X20776Y20517
X19776Y20517
X18776Y20517
X17776Y20517
X16776Y20517
X15776Y20517
X14776Y20517
X13776Y20517
X12776Y20517
X11776Y20517
X10776Y20517
X10776Y14517
X11776Y14517
X12776Y14517
X13776Y14517
X14776Y14517
X15776Y14517
X16776Y14517
X17776Y14517
X18776Y14517
X19776Y14517
X20776Y14517
X21776Y14517
X24776Y14517
X25776Y14517
X26776Y14517
X27776Y14517
X28776Y14517
T04
X40776Y23017
X41776Y23017
X42776Y23017
X43776Y23017
X43776Y25017
X42776Y25017
X41776Y25017
X40776Y25017
X40776Y27017
X41776Y27017
X42776Y27017
X43776Y27017
X44276Y11017
X42776Y11017
X42776Y10017
X44276Y10017
T05
X39276Y10017
X38276Y10017
X37276Y10017
X36276Y10017
X36276Y11017
X37276Y11017
X38276Y11017
X39276Y11017
X39276Y6017
X38276Y6017
X37276Y6017
X36276Y6017
X36276Y5017
X37276Y5017
X38276Y5017
X39276Y5017
X43776Y5017
X44776Y5017
X45776Y5017
X46776Y5017
X47776Y5017
X47776Y6017
X46776Y6017
X45776Y6017
X44776Y6017
X43776Y6017
X31276Y6017
X30276Y6017
X29276Y6017
X29276Y5017
X30276Y5017
X31276Y5017
X31276Y10017
X30276Y10017
X29276Y10017
X29276Y11017
X30276Y11017
X31276Y11017
X23276Y11017
X22276Y11017
X21276Y11017
X21276Y10017
X22276Y10017
X23276Y10017
X23276Y6017
X22276Y6017
X21276Y6017
X21276Y5017
X22276Y5017
X23276Y5017
X16776Y5017
X15776Y5017
X14776Y5017
X13776Y5017
X13776Y6017
X14776Y6017
X15776Y6017
X16776Y6017
X16776Y10017
X15776Y10017
X14776Y10017
X13776Y10017
X13776Y11017
X14776Y11017
X15776Y11017
X16776Y11017
X9276Y11017
X8276Y11017
X7276Y11017
X6276Y11017
X6276Y10017
X7276Y10017
X8276Y10017
X9276Y10017
X9276Y6017
X8276Y6017
X7276Y6017
X6276Y6017
X6276Y5017
X7276Y5017
X8276Y5017
X9276Y5017
X9276Y24017
X8276Y24017
X7276Y24017
X6276Y24017
X6276Y25017
X7276Y25017
X8276Y25017
X9276Y25017
X13776Y25017
X14776Y25017
X15776Y25017
X16776Y25017
X16776Y24017
X15776Y24017
X14776Y24017
X13776Y24017
X13776Y29017
X14776Y29017
X15776Y29017
X16776Y29017
X16776Y30017
X15776Y30017
X14776Y30017
X13776Y30017
X9276Y30017
X8276Y30017
X7276Y30017
X6276Y30017
X6276Y29017
X7276Y29017
X8276Y29017
X9276Y29017
X21276Y29017
X22276Y29017
X23276Y29017
X23276Y30017
X22276Y30017
X21276Y30017
X28776Y25017
X29776Y25017
X30776Y25017
X31776Y25017
X32776Y25017
X32776Y24017
X31776Y24017
X30776Y24017
X29776Y24017
X28776Y24017
T06
X4669Y1910
X49882Y1910
X49882Y33123
X4669Y33123
M30
