G75*
G70*
%OFA0B0*%
%FSLAX24Y24*%
%IPPOS*%
%LPD*%
%AMOC8*
5,1,8,0,0,1.08239X$1,22.5*
%
%ADD10C,0.0560*%
%ADD11OC8,0.0600*%
%ADD12C,0.0476*%
%ADD13C,0.0520*%
%ADD14R,0.0515X0.0515*%
%ADD15C,0.0160*%
D10*
X040776Y022737D02*
X040776Y023297D01*
X041776Y023297D02*
X041776Y022737D01*
X042776Y022737D02*
X042776Y023297D01*
X043776Y023297D02*
X043776Y022737D01*
X043776Y024737D02*
X043776Y025297D01*
X042776Y025297D02*
X042776Y024737D01*
X041776Y024737D02*
X041776Y025297D01*
X040776Y025297D02*
X040776Y024737D01*
X040776Y026737D02*
X040776Y027297D01*
X041776Y027297D02*
X041776Y026737D01*
X042776Y026737D02*
X042776Y027297D01*
X043776Y027297D02*
X043776Y026737D01*
X043996Y011017D02*
X044556Y011017D01*
X044556Y010017D02*
X043996Y010017D01*
X043056Y010017D02*
X042496Y010017D01*
X042496Y011017D02*
X043056Y011017D01*
D11*
X006276Y005017D03*
X007276Y005017D03*
X008276Y005017D03*
X009276Y005017D03*
X009276Y006017D03*
X008276Y006017D03*
X007276Y006017D03*
X006276Y006017D03*
X006276Y010017D03*
X007276Y010017D03*
X008276Y010017D03*
X009276Y010017D03*
X009276Y011017D03*
X008276Y011017D03*
X007276Y011017D03*
X006276Y011017D03*
X013776Y011017D03*
X014776Y011017D03*
X015776Y011017D03*
X016776Y011017D03*
X016776Y010017D03*
X015776Y010017D03*
X014776Y010017D03*
X013776Y010017D03*
X013776Y006017D03*
X014776Y006017D03*
X015776Y006017D03*
X016776Y006017D03*
X016776Y005017D03*
X015776Y005017D03*
X014776Y005017D03*
X013776Y005017D03*
X021276Y005017D03*
X022276Y005017D03*
X023276Y005017D03*
X023276Y006017D03*
X022276Y006017D03*
X021276Y006017D03*
X021276Y010017D03*
X022276Y010017D03*
X023276Y010017D03*
X023276Y011017D03*
X022276Y011017D03*
X021276Y011017D03*
X029276Y011017D03*
X030276Y011017D03*
X031276Y011017D03*
X031276Y010017D03*
X030276Y010017D03*
X029276Y010017D03*
X029276Y006017D03*
X030276Y006017D03*
X031276Y006017D03*
X031276Y005017D03*
X030276Y005017D03*
X029276Y005017D03*
X036276Y005017D03*
X037276Y005017D03*
X038276Y005017D03*
X039276Y005017D03*
X039276Y006017D03*
X038276Y006017D03*
X037276Y006017D03*
X036276Y006017D03*
X036276Y010017D03*
X037276Y010017D03*
X038276Y010017D03*
X039276Y010017D03*
X039276Y011017D03*
X038276Y011017D03*
X037276Y011017D03*
X036276Y011017D03*
X043776Y006017D03*
X044776Y006017D03*
X045776Y006017D03*
X046776Y006017D03*
X047776Y006017D03*
X047776Y005017D03*
X046776Y005017D03*
X045776Y005017D03*
X044776Y005017D03*
X043776Y005017D03*
X032776Y024017D03*
X031776Y024017D03*
X030776Y024017D03*
X029776Y024017D03*
X028776Y024017D03*
X028776Y025017D03*
X029776Y025017D03*
X030776Y025017D03*
X031776Y025017D03*
X032776Y025017D03*
X023276Y029017D03*
X022276Y029017D03*
X021276Y029017D03*
X021276Y030017D03*
X022276Y030017D03*
X023276Y030017D03*
X016776Y030017D03*
X015776Y030017D03*
X014776Y030017D03*
X013776Y030017D03*
X013776Y029017D03*
X014776Y029017D03*
X015776Y029017D03*
X016776Y029017D03*
X016776Y025017D03*
X015776Y025017D03*
X014776Y025017D03*
X013776Y025017D03*
X013776Y024017D03*
X014776Y024017D03*
X015776Y024017D03*
X016776Y024017D03*
X009276Y024017D03*
X008276Y024017D03*
X007276Y024017D03*
X006276Y024017D03*
X006276Y025017D03*
X007276Y025017D03*
X008276Y025017D03*
X009276Y025017D03*
X009276Y029017D03*
X008276Y029017D03*
X007276Y029017D03*
X006276Y029017D03*
X006276Y030017D03*
X007276Y030017D03*
X008276Y030017D03*
X009276Y030017D03*
D12*
X021776Y025517D03*
X023276Y025517D03*
X024776Y025517D03*
X024776Y022517D03*
X023276Y022517D03*
X021776Y022517D03*
X037776Y023517D03*
X039276Y023517D03*
X039276Y026517D03*
X037776Y026517D03*
X046276Y012017D03*
X047776Y012017D03*
X049276Y012017D03*
X049276Y009017D03*
X047776Y009017D03*
X046276Y009017D03*
D13*
X043776Y014257D02*
X043776Y014777D01*
X042776Y014777D02*
X042776Y014257D01*
X041776Y014257D02*
X041776Y014777D01*
X040776Y014777D02*
X040776Y014257D01*
X039776Y014257D02*
X039776Y014777D01*
X038776Y014777D02*
X038776Y014257D01*
X037776Y014257D02*
X037776Y014777D01*
X036776Y014777D02*
X036776Y014257D01*
X035776Y014257D02*
X035776Y014777D01*
X034776Y014777D02*
X034776Y014257D01*
X033776Y014257D02*
X033776Y014777D01*
X032776Y014777D02*
X032776Y014257D01*
X031776Y014257D02*
X031776Y014777D01*
X030776Y014777D02*
X030776Y014257D01*
X029776Y014257D02*
X029776Y014777D01*
X028776Y014777D02*
X028776Y014257D01*
X027776Y014257D02*
X027776Y014777D01*
X026776Y014777D02*
X026776Y014257D01*
X025776Y014257D02*
X025776Y014777D01*
X024776Y014777D02*
X024776Y014257D01*
X021776Y014257D02*
X021776Y014777D01*
X020776Y014777D02*
X020776Y014257D01*
X019776Y014257D02*
X019776Y014777D01*
X018776Y014777D02*
X018776Y014257D01*
X017776Y014257D02*
X017776Y014777D01*
X016776Y014777D02*
X016776Y014257D01*
X015776Y014257D02*
X015776Y014777D01*
X014776Y014777D02*
X014776Y014257D01*
X013776Y014257D02*
X013776Y014777D01*
X012776Y014777D02*
X012776Y014257D01*
X011776Y014257D02*
X011776Y014777D01*
X010776Y014777D02*
X010776Y014257D01*
X010776Y020257D02*
X010776Y020777D01*
X011776Y020777D02*
X011776Y020257D01*
X012776Y020257D02*
X012776Y020777D01*
X013776Y020777D02*
X013776Y020257D01*
X014776Y020257D02*
X014776Y020777D01*
X015776Y020777D02*
X015776Y020257D01*
X016776Y020257D02*
X016776Y020777D01*
X017776Y020777D02*
X017776Y020257D01*
X018776Y020257D02*
X018776Y020777D01*
X019776Y020777D02*
X019776Y020257D01*
X020776Y020257D02*
X020776Y020777D01*
X021776Y020777D02*
X021776Y020257D01*
X024776Y020257D02*
X024776Y020777D01*
X025776Y020777D02*
X025776Y020257D01*
X026776Y020257D02*
X026776Y020777D01*
X027776Y020777D02*
X027776Y020257D01*
X028776Y020257D02*
X028776Y020777D01*
X029776Y020777D02*
X029776Y020257D01*
X030776Y020257D02*
X030776Y020777D01*
X031776Y020777D02*
X031776Y020257D01*
X032776Y020257D02*
X032776Y020777D01*
X033776Y020777D02*
X033776Y020257D01*
X034776Y020257D02*
X034776Y020777D01*
X035776Y020777D02*
X035776Y020257D01*
X036776Y020257D02*
X036776Y020777D01*
X037776Y020777D02*
X037776Y020257D01*
X038776Y020257D02*
X038776Y020777D01*
X039776Y020777D02*
X039776Y020257D01*
X040776Y020257D02*
X040776Y020777D01*
X041776Y020777D02*
X041776Y020257D01*
X042776Y020257D02*
X042776Y020777D01*
X043776Y020777D02*
X043776Y020257D01*
D14*
X030776Y017517D03*
X029776Y017517D03*
X028776Y017517D03*
X027776Y017517D03*
X027776Y016517D03*
X028776Y016517D03*
X029776Y016517D03*
X030776Y016517D03*
D15*
X030276Y017017D01*
X020776Y017017D01*
X020276Y017517D01*
X008776Y017517D01*
X007776Y018517D01*
X007776Y024517D01*
X007276Y025017D01*
X006776Y024517D02*
X006276Y025017D01*
X006776Y024517D02*
X006776Y017517D01*
X007776Y016517D01*
X019776Y016517D01*
X020276Y016017D01*
X028276Y016017D01*
X028776Y016517D01*
X028776Y017517D02*
X028276Y018017D01*
X020776Y018017D01*
X020276Y018517D01*
X009776Y018517D01*
X008776Y019517D01*
X008776Y024517D01*
X008276Y025017D01*
X009276Y025017D02*
X009776Y024517D01*
X009776Y020517D01*
X010776Y019517D01*
X021276Y019517D01*
X021776Y019017D01*
X029276Y019017D01*
X030776Y017517D01*
X029776Y017517D02*
X028776Y018517D01*
X021276Y018517D01*
X020776Y019017D01*
X010276Y019017D01*
X009276Y020017D01*
X009276Y024017D01*
X008276Y024017D02*
X008276Y019017D01*
X009276Y018017D01*
X020276Y018017D01*
X020776Y017517D01*
X027776Y017517D01*
X027776Y016517D02*
X020776Y016517D01*
X020276Y017017D01*
X008276Y017017D01*
X007276Y018017D01*
X007276Y024017D01*
X006276Y024017D02*
X006276Y017017D01*
X007276Y016017D01*
X019276Y016017D01*
X019776Y015517D01*
X028776Y015517D01*
X029776Y016517D01*
X029776Y014517D02*
X029776Y014017D01*
X030276Y013517D01*
X030776Y013517D01*
X032276Y012017D01*
X032276Y010017D01*
X031776Y009517D01*
X030776Y009517D01*
X030276Y010017D01*
X031276Y010017D02*
X031776Y010517D01*
X031776Y011517D01*
X030276Y013017D01*
X029276Y013017D01*
X028776Y013517D01*
X028776Y014517D01*
X027776Y014517D02*
X027776Y013017D01*
X028276Y012517D01*
X029776Y012517D01*
X031276Y011017D01*
X030276Y011017D02*
X029276Y012017D01*
X027276Y012017D01*
X026776Y012517D01*
X026776Y014517D01*
X025776Y014517D02*
X025776Y012017D01*
X026276Y011517D01*
X028776Y011517D01*
X029276Y011017D01*
X029276Y010017D02*
X030276Y009017D01*
X032276Y009017D01*
X032776Y009517D01*
X032776Y012517D01*
X030776Y014517D01*
X031776Y014517D02*
X031776Y019017D01*
X031276Y019517D01*
X022276Y019517D01*
X021776Y020017D01*
X021776Y020517D01*
X020776Y020517D02*
X020776Y021017D01*
X020276Y021517D01*
X020276Y025017D01*
X018276Y027017D01*
X015276Y027017D01*
X013776Y025517D01*
X013776Y025017D01*
X014776Y025017D02*
X014776Y025517D01*
X015776Y026517D01*
X017776Y026517D01*
X019276Y025017D01*
X019276Y021517D01*
X019776Y021017D01*
X019776Y020517D01*
X018776Y020517D02*
X018776Y021017D01*
X018276Y021517D01*
X018276Y025017D01*
X017276Y026017D01*
X016276Y026017D01*
X015776Y025517D01*
X015776Y025017D01*
X016776Y025017D02*
X017276Y025017D01*
X017776Y024517D01*
X017776Y020517D01*
X016776Y020517D02*
X016776Y024017D01*
X015776Y024017D02*
X015776Y020517D01*
X014776Y020517D02*
X014776Y024017D01*
X013776Y024017D02*
X013776Y020517D01*
X021776Y022017D02*
X021776Y022517D01*
X021776Y022017D02*
X022276Y021517D01*
X024776Y021517D01*
X025776Y020517D01*
X026776Y020517D02*
X026776Y021017D01*
X026276Y021517D01*
X025276Y021517D01*
X024776Y022017D01*
X023776Y022017D01*
X023276Y022517D01*
X024776Y022517D02*
X025276Y022017D01*
X026776Y022017D01*
X027776Y021017D01*
X027776Y020517D01*
X028776Y020517D02*
X028776Y024017D01*
X029776Y024017D02*
X029776Y020517D01*
X030776Y020517D02*
X030776Y024017D01*
X031776Y024017D02*
X031776Y020517D01*
X032776Y020517D02*
X032776Y024017D01*
X033276Y025017D02*
X033776Y024517D01*
X033776Y020517D01*
X034776Y020517D02*
X034776Y025017D01*
X033776Y026017D01*
X032276Y026017D01*
X031776Y025517D01*
X031776Y025017D01*
X030776Y025017D02*
X030776Y025517D01*
X031776Y026517D01*
X034276Y026517D01*
X035276Y025517D01*
X035276Y022017D01*
X035776Y021517D01*
X036276Y021517D01*
X036776Y021017D01*
X036776Y020517D01*
X037276Y020561D02*
X037356Y020561D01*
X037356Y020403D02*
X037276Y020403D01*
X037276Y020244D02*
X037356Y020244D01*
X037356Y020173D02*
X037420Y020019D01*
X037538Y019901D01*
X037692Y019837D01*
X037859Y019837D01*
X038014Y019901D01*
X038132Y020019D01*
X038196Y020173D01*
X038196Y020860D01*
X038132Y021015D01*
X038016Y021131D01*
X038016Y021564D01*
X037979Y021653D01*
X037912Y021720D01*
X037412Y022220D01*
X037323Y022257D01*
X037276Y022257D01*
X037276Y022277D01*
X037676Y022277D01*
X038640Y021313D01*
X038728Y021277D01*
X042176Y021277D01*
X042429Y021024D01*
X042420Y021015D01*
X042356Y020860D01*
X042356Y020173D01*
X042420Y020019D01*
X042538Y019901D01*
X042692Y019837D01*
X042859Y019837D01*
X043014Y019901D01*
X043132Y020019D01*
X043196Y020173D01*
X043196Y020860D01*
X043132Y021015D01*
X043014Y021133D01*
X042982Y021146D01*
X042979Y021153D01*
X042912Y021220D01*
X042912Y021220D01*
X042412Y021720D01*
X042323Y021757D01*
X038875Y021757D01*
X037912Y022720D01*
X037823Y022757D01*
X037276Y022757D01*
X037276Y026517D01*
X036776Y027017D01*
X036115Y027017D01*
X035412Y027720D01*
X035323Y027757D01*
X030728Y027757D01*
X030640Y027720D01*
X030572Y027653D01*
X029936Y027017D01*
X018615Y027017D01*
X018479Y027153D01*
X018412Y027220D01*
X018323Y027257D01*
X015228Y027257D01*
X015140Y027220D01*
X014936Y027017D01*
X013276Y027017D01*
X012776Y027517D01*
X012776Y030517D01*
X013276Y031017D01*
X017276Y031017D01*
X017776Y030517D01*
X017776Y029017D01*
X018276Y028517D01*
X043054Y028517D01*
X044020Y027672D01*
X043863Y027737D01*
X043688Y027737D01*
X043527Y027670D01*
X043403Y027546D01*
X043336Y027384D01*
X043336Y026649D01*
X043403Y026487D01*
X043527Y026364D01*
X043688Y026297D01*
X043863Y026297D01*
X044025Y026364D01*
X044149Y026487D01*
X044216Y026649D01*
X044216Y027384D01*
X044149Y027546D01*
X044045Y027650D01*
X044827Y026965D01*
X045276Y026517D01*
X045276Y014517D01*
X044776Y014017D01*
X044145Y014017D01*
X044152Y014026D01*
X044184Y014088D01*
X044205Y014154D01*
X044216Y014222D01*
X044216Y014517D01*
X044216Y014811D01*
X044205Y014880D01*
X044184Y014946D01*
X044152Y015007D01*
X044111Y015063D01*
X044062Y015112D01*
X044006Y015153D01*
X043945Y015184D01*
X043879Y015206D01*
X043810Y015217D01*
X043776Y015217D01*
X043776Y014517D01*
X043776Y014517D01*
X044216Y014517D01*
X043776Y014517D01*
X043776Y014517D01*
X043776Y015217D01*
X043741Y015217D01*
X043673Y015206D01*
X043607Y015184D01*
X043545Y015153D01*
X043489Y015112D01*
X043440Y015063D01*
X043399Y015007D01*
X043368Y014946D01*
X043347Y014880D01*
X043336Y014811D01*
X043336Y014517D01*
X043776Y014517D01*
X043776Y014517D01*
X043336Y014517D01*
X043336Y014222D01*
X043347Y014154D01*
X043368Y014088D01*
X043399Y014026D01*
X043406Y014017D01*
X043130Y014017D01*
X043132Y014019D01*
X043196Y014173D01*
X043196Y014860D01*
X043132Y015015D01*
X043014Y015133D01*
X042859Y015197D01*
X042692Y015197D01*
X042538Y015133D01*
X042420Y015015D01*
X042356Y014860D01*
X042356Y014173D01*
X042420Y014019D01*
X042422Y014017D01*
X042130Y014017D01*
X042132Y014019D01*
X042196Y014173D01*
X042196Y014860D01*
X042132Y015015D01*
X042014Y015133D01*
X041859Y015197D01*
X041692Y015197D01*
X041538Y015133D01*
X041420Y015015D01*
X041356Y014860D01*
X041356Y014173D01*
X041420Y014019D01*
X041536Y013903D01*
X041536Y013777D01*
X041016Y013257D01*
X041016Y013903D01*
X041132Y014019D01*
X041196Y014173D01*
X041196Y014860D01*
X041132Y015015D01*
X041014Y015133D01*
X040859Y015197D01*
X040692Y015197D01*
X040538Y015133D01*
X040420Y015015D01*
X040356Y014860D01*
X040356Y014173D01*
X040420Y014019D01*
X040536Y013903D01*
X040536Y009469D01*
X040572Y009381D01*
X040640Y009313D01*
X040776Y009177D01*
X040776Y004517D01*
X040276Y004017D01*
X024776Y004017D01*
X024276Y004517D01*
X024276Y011017D01*
X023276Y012017D01*
X021276Y012017D01*
X021016Y012537D01*
X021016Y013903D01*
X021132Y014019D01*
X021196Y014173D01*
X021196Y014860D01*
X021132Y015015D01*
X021014Y015133D01*
X020927Y015168D01*
X021036Y015277D01*
X025016Y015277D01*
X025276Y015017D01*
X025276Y011517D01*
X030776Y007517D01*
X036776Y007517D01*
X037276Y008017D01*
X037276Y009557D01*
X037466Y009557D01*
X037736Y009826D01*
X037736Y010207D01*
X037466Y010477D01*
X037276Y010477D01*
X037276Y010557D01*
X037466Y010557D01*
X037736Y010826D01*
X037736Y011207D01*
X037466Y011477D01*
X037276Y011477D01*
X037276Y012177D01*
X038031Y011422D01*
X037816Y011207D01*
X037816Y010826D01*
X038085Y010557D01*
X038466Y010557D01*
X038536Y010626D01*
X038536Y010616D01*
X038396Y010477D01*
X038085Y010477D01*
X037816Y010207D01*
X037816Y009826D01*
X038085Y009557D01*
X038466Y009557D01*
X038736Y009826D01*
X038736Y010137D01*
X038912Y010313D01*
X038979Y010381D01*
X039016Y010469D01*
X039016Y010626D01*
X039085Y010557D01*
X039466Y010557D01*
X039736Y010826D01*
X039736Y011207D01*
X039466Y011477D01*
X039085Y011477D01*
X039016Y011407D01*
X039016Y012064D01*
X038979Y012153D01*
X038516Y012616D01*
X038516Y013923D01*
X038538Y013901D01*
X038692Y013837D01*
X038859Y013837D01*
X039014Y013901D01*
X039132Y014019D01*
X039196Y014173D01*
X039196Y014860D01*
X039132Y015015D01*
X039014Y015133D01*
X038859Y015197D01*
X038795Y015197D01*
X039979Y016381D01*
X040016Y016469D01*
X040016Y019903D01*
X040132Y020019D01*
X040196Y020173D01*
X040196Y020860D01*
X040132Y021015D01*
X040014Y021133D01*
X039859Y021197D01*
X039692Y021197D01*
X039538Y021133D01*
X039420Y021015D01*
X039356Y020860D01*
X039356Y020173D01*
X039420Y020019D01*
X039536Y019903D01*
X039536Y016616D01*
X038072Y015153D01*
X038049Y015097D01*
X038014Y015133D01*
X037859Y015197D01*
X037795Y015197D01*
X038912Y016313D01*
X038979Y016381D01*
X039016Y016469D01*
X039016Y019903D01*
X039132Y020019D01*
X039196Y020173D01*
X039196Y020860D01*
X039132Y021015D01*
X039014Y021133D01*
X038859Y021197D01*
X038692Y021197D01*
X038538Y021133D01*
X038420Y021015D01*
X038356Y020860D01*
X038356Y020173D01*
X038420Y020019D01*
X038536Y019903D01*
X038536Y016616D01*
X037276Y015356D01*
X037276Y021677D01*
X037536Y021417D01*
X037536Y021131D01*
X037420Y021015D01*
X037356Y020860D01*
X037356Y020173D01*
X037392Y020086D02*
X037276Y020086D01*
X037276Y019927D02*
X037511Y019927D01*
X037276Y019769D02*
X038536Y019769D01*
X038536Y019610D02*
X037276Y019610D01*
X037276Y019452D02*
X038536Y019452D01*
X038536Y019293D02*
X037276Y019293D01*
X037276Y019135D02*
X038536Y019135D01*
X038536Y018976D02*
X037276Y018976D01*
X037276Y018818D02*
X038536Y018818D01*
X038536Y018659D02*
X037276Y018659D01*
X037276Y018501D02*
X038536Y018501D01*
X038536Y018342D02*
X037276Y018342D01*
X037276Y018184D02*
X038536Y018184D01*
X038536Y018025D02*
X037276Y018025D01*
X037276Y017867D02*
X038536Y017867D01*
X038536Y017708D02*
X037276Y017708D01*
X037276Y017550D02*
X038536Y017550D01*
X038536Y017391D02*
X037276Y017391D01*
X037276Y017233D02*
X038536Y017233D01*
X038536Y017074D02*
X037276Y017074D01*
X037276Y016916D02*
X038536Y016916D01*
X038536Y016757D02*
X037276Y016757D01*
X037276Y016599D02*
X038518Y016599D01*
X038360Y016440D02*
X037276Y016440D01*
X037276Y016282D02*
X038201Y016282D01*
X038043Y016123D02*
X037276Y016123D01*
X037276Y015965D02*
X037884Y015965D01*
X037726Y015806D02*
X037276Y015806D01*
X037276Y015648D02*
X037567Y015648D01*
X037409Y015489D02*
X037276Y015489D01*
X037929Y015331D02*
X038250Y015331D01*
X038092Y015172D02*
X037918Y015172D01*
X038088Y015489D02*
X038409Y015489D01*
X038567Y015648D02*
X038246Y015648D01*
X038405Y015806D02*
X038726Y015806D01*
X038884Y015965D02*
X038563Y015965D01*
X038722Y016123D02*
X039043Y016123D01*
X039201Y016282D02*
X038880Y016282D01*
X039004Y016440D02*
X039360Y016440D01*
X039518Y016599D02*
X039016Y016599D01*
X039016Y016757D02*
X039536Y016757D01*
X039536Y016916D02*
X039016Y016916D01*
X039016Y017074D02*
X039536Y017074D01*
X039536Y017233D02*
X039016Y017233D01*
X039016Y017391D02*
X039536Y017391D01*
X039536Y017550D02*
X039016Y017550D01*
X039016Y017708D02*
X039536Y017708D01*
X039536Y017867D02*
X039016Y017867D01*
X039016Y018025D02*
X039536Y018025D01*
X039536Y018184D02*
X039016Y018184D01*
X039016Y018342D02*
X039536Y018342D01*
X039536Y018501D02*
X039016Y018501D01*
X039016Y018659D02*
X039536Y018659D01*
X039536Y018818D02*
X039016Y018818D01*
X039016Y018976D02*
X039536Y018976D01*
X039536Y019135D02*
X039016Y019135D01*
X039016Y019293D02*
X039536Y019293D01*
X039536Y019452D02*
X039016Y019452D01*
X039016Y019610D02*
X039536Y019610D01*
X039536Y019769D02*
X039016Y019769D01*
X039040Y019927D02*
X039511Y019927D01*
X039392Y020086D02*
X039160Y020086D01*
X039196Y020244D02*
X039356Y020244D01*
X039356Y020403D02*
X039196Y020403D01*
X039196Y020561D02*
X039356Y020561D01*
X039356Y020720D02*
X039196Y020720D01*
X039188Y020878D02*
X039363Y020878D01*
X039442Y021037D02*
X039110Y021037D01*
X038863Y021195D02*
X039689Y021195D01*
X039863Y021195D02*
X040689Y021195D01*
X040692Y021197D02*
X040538Y021133D01*
X040420Y021015D01*
X040356Y020860D01*
X040356Y020173D01*
X040420Y020019D01*
X040538Y019901D01*
X040692Y019837D01*
X040859Y019837D01*
X041014Y019901D01*
X041132Y020019D01*
X041196Y020173D01*
X041196Y020860D01*
X041132Y021015D01*
X041014Y021133D01*
X040859Y021197D01*
X040692Y021197D01*
X040863Y021195D02*
X041689Y021195D01*
X041692Y021197D02*
X041538Y021133D01*
X041420Y021015D01*
X041356Y020860D01*
X041356Y020173D01*
X041420Y020019D01*
X041538Y019901D01*
X041692Y019837D01*
X041859Y019837D01*
X042014Y019901D01*
X042132Y020019D01*
X042196Y020173D01*
X042196Y020860D01*
X042132Y021015D01*
X042014Y021133D01*
X041859Y021197D01*
X041692Y021197D01*
X041863Y021195D02*
X042258Y021195D01*
X042110Y021037D02*
X042416Y021037D01*
X042363Y020878D02*
X042188Y020878D01*
X042196Y020720D02*
X042356Y020720D01*
X042356Y020561D02*
X042196Y020561D01*
X042196Y020403D02*
X042356Y020403D01*
X042356Y020244D02*
X042196Y020244D01*
X042160Y020086D02*
X042392Y020086D01*
X042511Y019927D02*
X042040Y019927D01*
X041511Y019927D02*
X041040Y019927D01*
X041160Y020086D02*
X041392Y020086D01*
X041356Y020244D02*
X041196Y020244D01*
X041196Y020403D02*
X041356Y020403D01*
X041356Y020561D02*
X041196Y020561D01*
X041196Y020720D02*
X041356Y020720D01*
X041363Y020878D02*
X041188Y020878D01*
X041110Y021037D02*
X041442Y021037D01*
X040442Y021037D02*
X040110Y021037D01*
X040188Y020878D02*
X040363Y020878D01*
X040356Y020720D02*
X040196Y020720D01*
X040196Y020561D02*
X040356Y020561D01*
X040356Y020403D02*
X040196Y020403D01*
X040196Y020244D02*
X040356Y020244D01*
X040392Y020086D02*
X040160Y020086D01*
X040040Y019927D02*
X040511Y019927D01*
X040016Y019769D02*
X045276Y019769D01*
X045276Y019927D02*
X044040Y019927D01*
X044014Y019901D02*
X044132Y020019D01*
X044196Y020173D01*
X044196Y020860D01*
X044132Y021015D01*
X044014Y021133D01*
X043859Y021197D01*
X043692Y021197D01*
X043538Y021133D01*
X043420Y021015D01*
X043356Y020860D01*
X043356Y020173D01*
X043420Y020019D01*
X043538Y019901D01*
X043692Y019837D01*
X043859Y019837D01*
X044014Y019901D01*
X044160Y020086D02*
X045276Y020086D01*
X045276Y020244D02*
X044196Y020244D01*
X044196Y020403D02*
X045276Y020403D01*
X045276Y020561D02*
X044196Y020561D01*
X044196Y020720D02*
X045276Y020720D01*
X045276Y020878D02*
X044188Y020878D01*
X044110Y021037D02*
X045276Y021037D01*
X045276Y021195D02*
X043863Y021195D01*
X043689Y021195D02*
X042937Y021195D01*
X042778Y021354D02*
X045276Y021354D01*
X045276Y021512D02*
X042620Y021512D01*
X042461Y021671D02*
X045276Y021671D01*
X045276Y021829D02*
X038803Y021829D01*
X038644Y021988D02*
X045276Y021988D01*
X045276Y022146D02*
X038486Y022146D01*
X038327Y022305D02*
X040617Y022305D01*
X040599Y022310D02*
X040668Y022288D01*
X040740Y022277D01*
X040766Y022277D01*
X040766Y023007D01*
X040316Y023007D01*
X040316Y022700D01*
X040327Y022629D01*
X040349Y022560D01*
X040382Y022496D01*
X040425Y022437D01*
X040476Y022386D01*
X040535Y022343D01*
X040599Y022310D01*
X040766Y022305D02*
X040786Y022305D01*
X040786Y022277D02*
X040812Y022277D01*
X040883Y022288D01*
X040952Y022310D01*
X041017Y022343D01*
X041075Y022386D01*
X041127Y022437D01*
X041169Y022496D01*
X041202Y022560D01*
X041224Y022629D01*
X041236Y022700D01*
X041236Y023007D01*
X040786Y023007D01*
X040786Y023027D01*
X040766Y023027D01*
X040766Y023757D01*
X040740Y023757D01*
X040668Y023745D01*
X040599Y023723D01*
X040535Y023690D01*
X040476Y023648D01*
X040425Y023596D01*
X040382Y023538D01*
X040349Y023473D01*
X040327Y023404D01*
X040316Y023333D01*
X040316Y023027D01*
X040766Y023027D01*
X040766Y023007D01*
X040786Y023007D01*
X040786Y022277D01*
X040935Y022305D02*
X041669Y022305D01*
X041688Y022297D02*
X041863Y022297D01*
X042025Y022364D01*
X042149Y022487D01*
X042216Y022649D01*
X042216Y023384D01*
X042149Y023546D01*
X042025Y023670D01*
X041863Y023737D01*
X041688Y023737D01*
X041527Y023670D01*
X041403Y023546D01*
X041336Y023384D01*
X041336Y022649D01*
X041403Y022487D01*
X041527Y022364D01*
X041688Y022297D01*
X041883Y022305D02*
X042669Y022305D01*
X042688Y022297D02*
X042863Y022297D01*
X043025Y022364D01*
X043149Y022487D01*
X043216Y022649D01*
X043216Y023384D01*
X043149Y023546D01*
X043025Y023670D01*
X042863Y023737D01*
X042688Y023737D01*
X042527Y023670D01*
X042403Y023546D01*
X042336Y023384D01*
X042336Y022649D01*
X042403Y022487D01*
X042527Y022364D01*
X042688Y022297D01*
X042883Y022305D02*
X043669Y022305D01*
X043688Y022297D02*
X043863Y022297D01*
X044025Y022364D01*
X044149Y022487D01*
X044216Y022649D01*
X044216Y023384D01*
X044149Y023546D01*
X044025Y023670D01*
X043863Y023737D01*
X043688Y023737D01*
X043527Y023670D01*
X043403Y023546D01*
X043336Y023384D01*
X043336Y022649D01*
X043403Y022487D01*
X043527Y022364D01*
X043688Y022297D01*
X043883Y022305D02*
X045276Y022305D01*
X045276Y022463D02*
X044125Y022463D01*
X044204Y022622D02*
X045276Y022622D01*
X045276Y022780D02*
X044216Y022780D01*
X044216Y022939D02*
X045276Y022939D01*
X045276Y023097D02*
X044216Y023097D01*
X044216Y023256D02*
X045276Y023256D01*
X045276Y023414D02*
X044203Y023414D01*
X044122Y023573D02*
X045276Y023573D01*
X045276Y023731D02*
X043876Y023731D01*
X043675Y023731D02*
X042876Y023731D01*
X042675Y023731D02*
X041876Y023731D01*
X041675Y023731D02*
X040927Y023731D01*
X040952Y023723D02*
X040883Y023745D01*
X040812Y023757D01*
X040786Y023757D01*
X040786Y023027D01*
X041236Y023027D01*
X041236Y023333D01*
X041224Y023404D01*
X041202Y023473D01*
X041169Y023538D01*
X041127Y023596D01*
X041075Y023648D01*
X041017Y023690D01*
X040952Y023723D01*
X040786Y023731D02*
X040766Y023731D01*
X040625Y023731D02*
X039635Y023731D01*
X039633Y023736D02*
X039594Y023789D01*
X039548Y023835D01*
X039495Y023874D01*
X039436Y023904D01*
X039374Y023924D01*
X039309Y023934D01*
X039276Y023934D01*
X039276Y023517D01*
X039276Y023517D01*
X039694Y023517D01*
X039694Y023550D01*
X039683Y023614D01*
X039663Y023677D01*
X039633Y023736D01*
X039690Y023573D02*
X040408Y023573D01*
X040330Y023414D02*
X039682Y023414D01*
X039683Y023419D02*
X039694Y023484D01*
X039694Y023517D01*
X039276Y023517D01*
X039276Y023517D01*
X039276Y023934D01*
X039243Y023934D01*
X039178Y023924D01*
X039115Y023904D01*
X039057Y023874D01*
X039004Y023835D01*
X038957Y023789D01*
X038918Y023736D01*
X038889Y023677D01*
X038868Y023614D01*
X038858Y023550D01*
X038858Y023517D01*
X039276Y023517D01*
X039276Y023517D01*
X039276Y023099D01*
X039309Y023099D01*
X039374Y023109D01*
X039436Y023129D01*
X039495Y023159D01*
X039548Y023198D01*
X039594Y023244D01*
X039633Y023298D01*
X039663Y023356D01*
X039683Y023419D01*
X039603Y023256D02*
X040316Y023256D01*
X040316Y023097D02*
X037276Y023097D01*
X037276Y022939D02*
X040316Y022939D01*
X040316Y022780D02*
X037276Y022780D01*
X037557Y023159D02*
X037615Y023129D01*
X037678Y023109D01*
X037743Y023099D01*
X037776Y023099D01*
X037809Y023099D01*
X037874Y023109D01*
X037936Y023129D01*
X037995Y023159D01*
X038048Y023198D01*
X038094Y023244D01*
X038133Y023298D01*
X038163Y023356D01*
X038183Y023419D01*
X038194Y023484D01*
X038194Y023517D01*
X038194Y023550D01*
X038183Y023614D01*
X038163Y023677D01*
X038133Y023736D01*
X038094Y023789D01*
X038048Y023835D01*
X037995Y023874D01*
X037936Y023904D01*
X037874Y023924D01*
X037809Y023934D01*
X037776Y023934D01*
X037776Y023517D01*
X037776Y023517D01*
X038194Y023517D01*
X037776Y023517D01*
X037776Y023517D01*
X037776Y023934D01*
X037743Y023934D01*
X037678Y023924D01*
X037615Y023904D01*
X037557Y023874D01*
X037504Y023835D01*
X037457Y023789D01*
X037418Y023736D01*
X037389Y023677D01*
X037368Y023614D01*
X037358Y023550D01*
X037358Y023517D01*
X037776Y023517D01*
X037776Y023517D01*
X037776Y023099D01*
X037776Y023517D01*
X037776Y023517D01*
X037358Y023517D01*
X037358Y023484D01*
X037368Y023419D01*
X037389Y023356D01*
X037418Y023298D01*
X037457Y023244D01*
X037504Y023198D01*
X037557Y023159D01*
X037449Y023256D02*
X037276Y023256D01*
X037276Y023414D02*
X037370Y023414D01*
X037362Y023573D02*
X037276Y023573D01*
X037276Y023731D02*
X037416Y023731D01*
X037276Y023890D02*
X037588Y023890D01*
X037776Y023890D02*
X037776Y023890D01*
X037776Y023731D02*
X037776Y023731D01*
X037776Y023573D02*
X037776Y023573D01*
X037776Y023414D02*
X037776Y023414D01*
X037776Y023256D02*
X037776Y023256D01*
X038103Y023256D02*
X038949Y023256D01*
X038957Y023244D02*
X039004Y023198D01*
X039057Y023159D01*
X039115Y023129D01*
X039178Y023109D01*
X039243Y023099D01*
X039276Y023099D01*
X039276Y023517D01*
X039276Y023517D01*
X038858Y023517D01*
X038858Y023484D01*
X038868Y023419D01*
X038889Y023356D01*
X038918Y023298D01*
X038957Y023244D01*
X038870Y023414D02*
X038182Y023414D01*
X038190Y023573D02*
X038862Y023573D01*
X038916Y023731D02*
X038135Y023731D01*
X037964Y023890D02*
X039088Y023890D01*
X039276Y023890D02*
X039276Y023890D01*
X039276Y023731D02*
X039276Y023731D01*
X039276Y023573D02*
X039276Y023573D01*
X039276Y023414D02*
X039276Y023414D01*
X039276Y023256D02*
X039276Y023256D01*
X039464Y023890D02*
X045276Y023890D01*
X045276Y024048D02*
X037276Y024048D01*
X037276Y024207D02*
X045276Y024207D01*
X045276Y024365D02*
X044027Y024365D01*
X044025Y024364D02*
X044149Y024487D01*
X044216Y024649D01*
X044216Y025384D01*
X044149Y025546D01*
X044025Y025670D01*
X043863Y025737D01*
X043688Y025737D01*
X043527Y025670D01*
X043403Y025546D01*
X043336Y025384D01*
X043336Y024649D01*
X043403Y024487D01*
X043527Y024364D01*
X043688Y024297D01*
X043863Y024297D01*
X044025Y024364D01*
X044164Y024524D02*
X045276Y024524D01*
X045276Y024682D02*
X044216Y024682D01*
X044216Y024841D02*
X045276Y024841D01*
X045276Y024999D02*
X044216Y024999D01*
X044216Y025158D02*
X045276Y025158D01*
X045276Y025316D02*
X044216Y025316D01*
X044178Y025475D02*
X045276Y025475D01*
X045276Y025633D02*
X044061Y025633D01*
X043490Y025633D02*
X043061Y025633D01*
X043025Y025670D02*
X042863Y025737D01*
X042688Y025737D01*
X042527Y025670D01*
X042403Y025546D01*
X042336Y025384D01*
X042336Y024649D01*
X042403Y024487D01*
X042527Y024364D01*
X042688Y024297D01*
X042863Y024297D01*
X043025Y024364D01*
X043149Y024487D01*
X043216Y024649D01*
X043216Y025384D01*
X043149Y025546D01*
X043025Y025670D01*
X043178Y025475D02*
X043373Y025475D01*
X043336Y025316D02*
X043216Y025316D01*
X043216Y025158D02*
X043336Y025158D01*
X043336Y024999D02*
X043216Y024999D01*
X043216Y024841D02*
X043336Y024841D01*
X043336Y024682D02*
X043216Y024682D01*
X043164Y024524D02*
X043388Y024524D01*
X043525Y024365D02*
X043027Y024365D01*
X042525Y024365D02*
X042027Y024365D01*
X042025Y024364D02*
X042149Y024487D01*
X042216Y024649D01*
X042216Y025384D01*
X042149Y025546D01*
X042025Y025670D01*
X041863Y025737D01*
X041688Y025737D01*
X041527Y025670D01*
X041403Y025546D01*
X041336Y025384D01*
X041336Y024649D01*
X041403Y024487D01*
X041527Y024364D01*
X041688Y024297D01*
X041863Y024297D01*
X042025Y024364D01*
X042164Y024524D02*
X042388Y024524D01*
X042336Y024682D02*
X042216Y024682D01*
X042216Y024841D02*
X042336Y024841D01*
X042336Y024999D02*
X042216Y024999D01*
X042216Y025158D02*
X042336Y025158D01*
X042336Y025316D02*
X042216Y025316D01*
X042178Y025475D02*
X042373Y025475D01*
X042490Y025633D02*
X042061Y025633D01*
X041490Y025633D02*
X041090Y025633D01*
X041075Y025648D02*
X041017Y025690D01*
X040952Y025723D01*
X040883Y025745D01*
X040812Y025757D01*
X040786Y025757D01*
X040786Y025027D01*
X040766Y025027D01*
X040766Y025757D01*
X040740Y025757D01*
X040668Y025745D01*
X040599Y025723D01*
X040535Y025690D01*
X040476Y025648D01*
X040425Y025596D01*
X040382Y025538D01*
X040349Y025473D01*
X040327Y025404D01*
X040316Y025333D01*
X040316Y025027D01*
X040766Y025027D01*
X040766Y025007D01*
X040316Y025007D01*
X040316Y024700D01*
X040327Y024629D01*
X040349Y024560D01*
X040382Y024496D01*
X040425Y024437D01*
X040476Y024386D01*
X040535Y024343D01*
X040599Y024310D01*
X040668Y024288D01*
X040740Y024277D01*
X040766Y024277D01*
X040766Y025007D01*
X040786Y025007D01*
X040786Y025027D01*
X041236Y025027D01*
X041236Y025333D01*
X041224Y025404D01*
X041202Y025473D01*
X041169Y025538D01*
X041127Y025596D01*
X041075Y025648D01*
X041201Y025475D02*
X041373Y025475D01*
X041336Y025316D02*
X041236Y025316D01*
X041236Y025158D02*
X041336Y025158D01*
X041336Y024999D02*
X041236Y024999D01*
X041236Y025007D02*
X040786Y025007D01*
X040786Y024277D01*
X040812Y024277D01*
X040883Y024288D01*
X040952Y024310D01*
X041017Y024343D01*
X041075Y024386D01*
X041127Y024437D01*
X041169Y024496D01*
X041202Y024560D01*
X041224Y024629D01*
X041236Y024700D01*
X041236Y025007D01*
X041236Y024841D02*
X041336Y024841D01*
X041336Y024682D02*
X041233Y024682D01*
X041184Y024524D02*
X041388Y024524D01*
X041525Y024365D02*
X041047Y024365D01*
X040786Y024365D02*
X040766Y024365D01*
X040766Y024524D02*
X040786Y024524D01*
X040786Y024682D02*
X040766Y024682D01*
X040766Y024841D02*
X040786Y024841D01*
X040786Y024999D02*
X040766Y024999D01*
X040766Y025158D02*
X040786Y025158D01*
X040786Y025316D02*
X040766Y025316D01*
X040766Y025475D02*
X040786Y025475D01*
X040786Y025633D02*
X040766Y025633D01*
X040462Y025633D02*
X037276Y025633D01*
X037276Y025475D02*
X040350Y025475D01*
X040316Y025316D02*
X037276Y025316D01*
X037276Y025158D02*
X040316Y025158D01*
X040316Y024999D02*
X037276Y024999D01*
X037276Y024841D02*
X040316Y024841D01*
X040319Y024682D02*
X037276Y024682D01*
X037276Y024524D02*
X040368Y024524D01*
X040504Y024365D02*
X037276Y024365D01*
X037276Y025792D02*
X045276Y025792D01*
X045276Y025950D02*
X037276Y025950D01*
X037276Y026109D02*
X045276Y026109D01*
X045276Y026267D02*
X039589Y026267D01*
X039613Y026291D02*
X039674Y026438D01*
X039674Y026596D01*
X039613Y026742D01*
X039501Y026854D01*
X039355Y026914D01*
X039197Y026914D01*
X039050Y026854D01*
X038939Y026742D01*
X038878Y026596D01*
X038878Y026438D01*
X038939Y026291D01*
X039050Y026179D01*
X039197Y026119D01*
X039355Y026119D01*
X039501Y026179D01*
X039613Y026291D01*
X039669Y026426D02*
X040436Y026426D01*
X040425Y026437D02*
X040476Y026386D01*
X040535Y026343D01*
X040599Y026310D01*
X040668Y026288D01*
X040740Y026277D01*
X040766Y026277D01*
X040766Y027007D01*
X040316Y027007D01*
X040316Y026700D01*
X040327Y026629D01*
X040349Y026560D01*
X040382Y026496D01*
X040425Y026437D01*
X040342Y026584D02*
X039674Y026584D01*
X039612Y026743D02*
X040316Y026743D01*
X040316Y026901D02*
X039387Y026901D01*
X039165Y026901D02*
X037887Y026901D01*
X037855Y026914D02*
X037697Y026914D01*
X037550Y026854D01*
X037439Y026742D01*
X037378Y026596D01*
X037378Y026438D01*
X037439Y026291D01*
X037550Y026179D01*
X037697Y026119D01*
X037855Y026119D01*
X038001Y026179D01*
X038113Y026291D01*
X038174Y026438D01*
X038174Y026596D01*
X038113Y026742D01*
X038001Y026854D01*
X037855Y026914D01*
X037665Y026901D02*
X036891Y026901D01*
X037050Y026743D02*
X037439Y026743D01*
X037378Y026584D02*
X037208Y026584D01*
X037276Y026426D02*
X037383Y026426D01*
X037463Y026267D02*
X037276Y026267D01*
X038089Y026267D02*
X038963Y026267D01*
X038883Y026426D02*
X038169Y026426D01*
X038174Y026584D02*
X038878Y026584D01*
X038939Y026743D02*
X038112Y026743D01*
X036072Y027060D02*
X040316Y027060D01*
X040316Y027027D02*
X040766Y027027D01*
X040766Y027757D01*
X040740Y027757D01*
X040668Y027745D01*
X040599Y027723D01*
X040535Y027690D01*
X040476Y027648D01*
X040425Y027596D01*
X040382Y027538D01*
X040349Y027473D01*
X040327Y027404D01*
X040316Y027333D01*
X040316Y027027D01*
X040316Y027218D02*
X035914Y027218D01*
X035755Y027377D02*
X040323Y027377D01*
X040381Y027535D02*
X035597Y027535D01*
X035438Y027694D02*
X040542Y027694D01*
X040766Y027694D02*
X040786Y027694D01*
X040786Y027757D02*
X040786Y027027D01*
X040766Y027027D01*
X040766Y027007D01*
X040786Y027007D01*
X040786Y027027D01*
X041236Y027027D01*
X041236Y027333D01*
X041224Y027404D01*
X041202Y027473D01*
X041169Y027538D01*
X041127Y027596D01*
X041075Y027648D01*
X041017Y027690D01*
X040952Y027723D01*
X040883Y027745D01*
X040812Y027757D01*
X040786Y027757D01*
X040766Y027535D02*
X040786Y027535D01*
X040786Y027377D02*
X040766Y027377D01*
X040766Y027218D02*
X040786Y027218D01*
X040786Y027060D02*
X040766Y027060D01*
X040786Y027007D02*
X041236Y027007D01*
X041236Y026700D01*
X041224Y026629D01*
X041202Y026560D01*
X041169Y026496D01*
X041127Y026437D01*
X041075Y026386D01*
X041017Y026343D01*
X040952Y026310D01*
X040883Y026288D01*
X040812Y026277D01*
X040786Y026277D01*
X040786Y027007D01*
X040786Y026901D02*
X040766Y026901D01*
X040766Y026743D02*
X040786Y026743D01*
X040786Y026584D02*
X040766Y026584D01*
X040766Y026426D02*
X040786Y026426D01*
X041115Y026426D02*
X041464Y026426D01*
X041403Y026487D02*
X041527Y026364D01*
X041688Y026297D01*
X041863Y026297D01*
X042025Y026364D01*
X042149Y026487D01*
X042216Y026649D01*
X042216Y027384D01*
X042149Y027546D01*
X042025Y027670D01*
X041863Y027737D01*
X041688Y027737D01*
X041527Y027670D01*
X041403Y027546D01*
X041336Y027384D01*
X041336Y026649D01*
X041403Y026487D01*
X041363Y026584D02*
X041210Y026584D01*
X041236Y026743D02*
X041336Y026743D01*
X041336Y026901D02*
X041236Y026901D01*
X041236Y027060D02*
X041336Y027060D01*
X041336Y027218D02*
X041236Y027218D01*
X041229Y027377D02*
X041336Y027377D01*
X041398Y027535D02*
X041170Y027535D01*
X041010Y027694D02*
X041585Y027694D01*
X041967Y027694D02*
X042585Y027694D01*
X042527Y027670D02*
X042403Y027546D01*
X042336Y027384D01*
X042336Y026649D01*
X042403Y026487D01*
X042527Y026364D01*
X042688Y026297D01*
X042863Y026297D01*
X043025Y026364D01*
X043149Y026487D01*
X043216Y026649D01*
X043216Y027384D01*
X043149Y027546D01*
X043025Y027670D01*
X042863Y027737D01*
X042688Y027737D01*
X042527Y027670D01*
X042398Y027535D02*
X042153Y027535D01*
X042216Y027377D02*
X042336Y027377D01*
X042336Y027218D02*
X042216Y027218D01*
X042216Y027060D02*
X042336Y027060D01*
X042336Y026901D02*
X042216Y026901D01*
X042216Y026743D02*
X042336Y026743D01*
X042363Y026584D02*
X042189Y026584D01*
X042087Y026426D02*
X042464Y026426D01*
X043087Y026426D02*
X043464Y026426D01*
X043363Y026584D02*
X043189Y026584D01*
X043216Y026743D02*
X043336Y026743D01*
X043336Y026901D02*
X043216Y026901D01*
X043216Y027060D02*
X043336Y027060D01*
X043336Y027218D02*
X043216Y027218D01*
X043216Y027377D02*
X043336Y027377D01*
X043398Y027535D02*
X043153Y027535D01*
X042967Y027694D02*
X043585Y027694D01*
X043814Y027852D02*
X012776Y027852D01*
X012776Y027694D02*
X030613Y027694D01*
X030455Y027535D02*
X012776Y027535D01*
X012916Y027377D02*
X030296Y027377D01*
X030138Y027218D02*
X018414Y027218D01*
X018572Y027060D02*
X029979Y027060D01*
X030776Y027517D02*
X035276Y027517D01*
X036276Y026517D01*
X036276Y023017D01*
X036776Y022517D01*
X037776Y022517D01*
X038776Y021517D01*
X042276Y021517D01*
X042776Y021017D01*
X042776Y020517D01*
X043196Y020561D02*
X043356Y020561D01*
X043356Y020403D02*
X043196Y020403D01*
X043196Y020244D02*
X043356Y020244D01*
X043392Y020086D02*
X043160Y020086D01*
X043040Y019927D02*
X043511Y019927D01*
X043356Y020720D02*
X043196Y020720D01*
X043188Y020878D02*
X043363Y020878D01*
X043442Y021037D02*
X043110Y021037D01*
X045276Y019610D02*
X040016Y019610D01*
X040016Y019452D02*
X045276Y019452D01*
X045276Y019293D02*
X040016Y019293D01*
X040016Y019135D02*
X045276Y019135D01*
X045276Y018976D02*
X040016Y018976D01*
X040016Y018818D02*
X045276Y018818D01*
X045276Y018659D02*
X040016Y018659D01*
X040016Y018501D02*
X045276Y018501D01*
X045276Y018342D02*
X040016Y018342D01*
X040016Y018184D02*
X045276Y018184D01*
X045276Y018025D02*
X040016Y018025D01*
X040016Y017867D02*
X045276Y017867D01*
X045276Y017708D02*
X040016Y017708D01*
X040016Y017550D02*
X045276Y017550D01*
X045276Y017391D02*
X040016Y017391D01*
X040016Y017233D02*
X045276Y017233D01*
X045276Y017074D02*
X040016Y017074D01*
X040016Y016916D02*
X045276Y016916D01*
X045276Y016757D02*
X040016Y016757D01*
X040016Y016599D02*
X045276Y016599D01*
X045276Y016440D02*
X040004Y016440D01*
X039880Y016282D02*
X045276Y016282D01*
X045276Y016123D02*
X039722Y016123D01*
X039563Y015965D02*
X045276Y015965D01*
X045276Y015806D02*
X039405Y015806D01*
X039246Y015648D02*
X045276Y015648D01*
X045276Y015489D02*
X039088Y015489D01*
X038929Y015331D02*
X045276Y015331D01*
X045276Y015172D02*
X043969Y015172D01*
X043776Y015172D02*
X043776Y015172D01*
X043776Y015014D02*
X043776Y015014D01*
X043776Y014855D02*
X043776Y014855D01*
X043776Y014697D02*
X043776Y014697D01*
X043776Y014538D02*
X043776Y014538D01*
X044216Y014538D02*
X045276Y014538D01*
X045276Y014697D02*
X044216Y014697D01*
X044209Y014855D02*
X045276Y014855D01*
X045276Y015014D02*
X044147Y015014D01*
X043583Y015172D02*
X042918Y015172D01*
X043132Y015014D02*
X043404Y015014D01*
X043343Y014855D02*
X043196Y014855D01*
X043196Y014697D02*
X043336Y014697D01*
X043336Y014538D02*
X043196Y014538D01*
X043196Y014380D02*
X043336Y014380D01*
X043336Y014221D02*
X043196Y014221D01*
X043150Y014063D02*
X043381Y014063D01*
X042776Y014517D02*
X042776Y013017D01*
X043276Y012517D01*
X045276Y012517D01*
X045776Y012017D01*
X045776Y011017D01*
X046276Y010517D01*
X047776Y010517D01*
X049276Y009017D01*
X047776Y009017D02*
X047276Y009517D01*
X046276Y009517D01*
X045276Y010517D01*
X045276Y011517D01*
X044776Y012017D01*
X042276Y012017D01*
X041776Y012517D01*
X041776Y014517D01*
X042196Y014538D02*
X042356Y014538D01*
X042356Y014380D02*
X042196Y014380D01*
X042196Y014221D02*
X042356Y014221D01*
X042401Y014063D02*
X042150Y014063D01*
X042196Y014697D02*
X042356Y014697D01*
X042356Y014855D02*
X042196Y014855D01*
X042132Y015014D02*
X042419Y015014D01*
X042633Y015172D02*
X041918Y015172D01*
X041633Y015172D02*
X040918Y015172D01*
X041132Y015014D02*
X041419Y015014D01*
X041356Y014855D02*
X041196Y014855D01*
X041196Y014697D02*
X041356Y014697D01*
X041356Y014538D02*
X041196Y014538D01*
X041196Y014380D02*
X041356Y014380D01*
X041356Y014221D02*
X041196Y014221D01*
X041150Y014063D02*
X041401Y014063D01*
X041534Y013904D02*
X041017Y013904D01*
X041016Y013746D02*
X041505Y013746D01*
X041346Y013587D02*
X041016Y013587D01*
X041016Y013429D02*
X041188Y013429D01*
X041029Y013270D02*
X041016Y013270D01*
X040536Y013270D02*
X038516Y013270D01*
X038516Y013112D02*
X040536Y013112D01*
X040536Y012953D02*
X038516Y012953D01*
X038516Y012795D02*
X040536Y012795D01*
X040536Y012636D02*
X038516Y012636D01*
X038654Y012478D02*
X040536Y012478D01*
X040536Y012319D02*
X038813Y012319D01*
X038971Y012161D02*
X040536Y012161D01*
X040536Y012002D02*
X039016Y012002D01*
X039016Y011844D02*
X040536Y011844D01*
X040536Y011685D02*
X039016Y011685D01*
X039016Y011527D02*
X040536Y011527D01*
X040536Y011368D02*
X039575Y011368D01*
X039733Y011210D02*
X040536Y011210D01*
X040536Y011051D02*
X039736Y011051D01*
X039736Y010893D02*
X040536Y010893D01*
X040536Y010734D02*
X039644Y010734D01*
X039485Y010576D02*
X040536Y010576D01*
X040536Y010417D02*
X039526Y010417D01*
X039466Y010477D02*
X039085Y010477D01*
X038816Y010207D01*
X038816Y009826D01*
X039085Y009557D01*
X039466Y009557D01*
X039736Y009826D01*
X039736Y010207D01*
X039466Y010477D01*
X039684Y010259D02*
X040536Y010259D01*
X040536Y010100D02*
X039736Y010100D01*
X039736Y009942D02*
X040536Y009942D01*
X040536Y009783D02*
X039693Y009783D01*
X039534Y009625D02*
X040536Y009625D01*
X040537Y009466D02*
X037276Y009466D01*
X037276Y009308D02*
X040645Y009308D01*
X040776Y009149D02*
X037276Y009149D01*
X037276Y008991D02*
X040776Y008991D01*
X040776Y008832D02*
X037276Y008832D01*
X037276Y008674D02*
X040776Y008674D01*
X040776Y008515D02*
X037276Y008515D01*
X037276Y008357D02*
X040776Y008357D01*
X040776Y008198D02*
X037276Y008198D01*
X037276Y008040D02*
X040776Y008040D01*
X040776Y007881D02*
X037140Y007881D01*
X036982Y007723D02*
X040776Y007723D01*
X040776Y007564D02*
X036823Y007564D01*
X037077Y006497D02*
X036796Y006215D01*
X036796Y006037D01*
X037256Y006037D01*
X037256Y006497D01*
X037077Y006497D01*
X037035Y006455D02*
X036517Y006455D01*
X036475Y006497D02*
X036296Y006497D01*
X036296Y006037D01*
X036256Y006037D01*
X036256Y006497D01*
X036077Y006497D01*
X035796Y006215D01*
X035796Y006037D01*
X036256Y006037D01*
X036256Y005997D01*
X035796Y005997D01*
X035796Y005818D01*
X036077Y005537D01*
X036256Y005537D01*
X036256Y005997D01*
X036296Y005997D01*
X036296Y006037D01*
X036756Y006037D01*
X036756Y006215D01*
X036475Y006497D01*
X036296Y006455D02*
X036256Y006455D01*
X036256Y006296D02*
X036296Y006296D01*
X036296Y006138D02*
X036256Y006138D01*
X036296Y005997D02*
X036756Y005997D01*
X036756Y005818D01*
X036475Y005537D01*
X036296Y005537D01*
X036296Y005997D01*
X036296Y005979D02*
X036256Y005979D01*
X036256Y005821D02*
X036296Y005821D01*
X036296Y005662D02*
X036256Y005662D01*
X036256Y005497D02*
X036077Y005497D01*
X035796Y005215D01*
X035796Y005037D01*
X036256Y005037D01*
X036256Y005497D01*
X036296Y005497D02*
X036475Y005497D01*
X036756Y005215D01*
X036756Y005037D01*
X036296Y005037D01*
X036256Y005037D01*
X036256Y004997D01*
X035796Y004997D01*
X035796Y004818D01*
X036077Y004537D01*
X036256Y004537D01*
X036256Y004997D01*
X036296Y004997D01*
X036296Y005037D01*
X036296Y005497D01*
X036296Y005345D02*
X036256Y005345D01*
X036256Y005187D02*
X036296Y005187D01*
X036296Y005028D02*
X037256Y005028D01*
X037256Y005037D02*
X037256Y004997D01*
X036796Y004997D01*
X036796Y004818D01*
X037077Y004537D01*
X037256Y004537D01*
X037256Y004997D01*
X037296Y004997D01*
X037296Y005037D01*
X037256Y005037D01*
X037256Y005497D01*
X037077Y005497D01*
X036796Y005215D01*
X036796Y005037D01*
X037256Y005037D01*
X037296Y005037D02*
X037296Y005497D01*
X037475Y005497D01*
X037756Y005215D01*
X037756Y005037D01*
X037296Y005037D01*
X037296Y005028D02*
X038256Y005028D01*
X038256Y005037D02*
X038256Y004997D01*
X037796Y004997D01*
X037796Y004818D01*
X038077Y004537D01*
X038256Y004537D01*
X038256Y004997D01*
X038296Y004997D01*
X038296Y005037D01*
X038256Y005037D01*
X038256Y005497D01*
X038077Y005497D01*
X037796Y005215D01*
X037796Y005037D01*
X038256Y005037D01*
X038296Y005037D02*
X038296Y005497D01*
X038475Y005497D01*
X038756Y005215D01*
X038756Y005037D01*
X038296Y005037D01*
X038296Y005028D02*
X039256Y005028D01*
X039256Y005037D02*
X039256Y004997D01*
X038796Y004997D01*
X038796Y004818D01*
X039077Y004537D01*
X039256Y004537D01*
X039256Y004997D01*
X039296Y004997D01*
X039296Y005037D01*
X039256Y005037D01*
X039256Y005497D01*
X039077Y005497D01*
X038796Y005215D01*
X038796Y005037D01*
X039256Y005037D01*
X039296Y005037D02*
X039296Y005497D01*
X039475Y005497D01*
X039756Y005215D01*
X039756Y005037D01*
X039296Y005037D01*
X039296Y005028D02*
X040776Y005028D01*
X040776Y004870D02*
X039756Y004870D01*
X039756Y004818D02*
X039756Y004997D01*
X039296Y004997D01*
X039296Y004537D01*
X039475Y004537D01*
X039756Y004818D01*
X039649Y004711D02*
X040776Y004711D01*
X040776Y004553D02*
X039491Y004553D01*
X039296Y004553D02*
X039256Y004553D01*
X039256Y004711D02*
X039296Y004711D01*
X039296Y004870D02*
X039256Y004870D01*
X039256Y005187D02*
X039296Y005187D01*
X039296Y005345D02*
X039256Y005345D01*
X039256Y005537D02*
X039256Y005997D01*
X038796Y005997D01*
X038796Y005818D01*
X039077Y005537D01*
X039256Y005537D01*
X039296Y005537D02*
X039475Y005537D01*
X039756Y005818D01*
X039756Y005997D01*
X039296Y005997D01*
X039296Y006037D01*
X039256Y006037D01*
X039256Y006497D01*
X039077Y006497D01*
X038796Y006215D01*
X038796Y006037D01*
X039256Y006037D01*
X039256Y005997D01*
X039296Y005997D01*
X039296Y005537D01*
X039296Y005662D02*
X039256Y005662D01*
X039256Y005821D02*
X039296Y005821D01*
X039296Y005979D02*
X039256Y005979D01*
X039296Y006037D02*
X039756Y006037D01*
X039756Y006215D01*
X039475Y006497D01*
X039296Y006497D01*
X039296Y006037D01*
X039296Y006138D02*
X039256Y006138D01*
X039256Y006296D02*
X039296Y006296D01*
X039296Y006455D02*
X039256Y006455D01*
X039035Y006455D02*
X038517Y006455D01*
X038475Y006497D02*
X038296Y006497D01*
X038296Y006037D01*
X038256Y006037D01*
X038256Y006497D01*
X038077Y006497D01*
X037796Y006215D01*
X037796Y006037D01*
X038256Y006037D01*
X038256Y005997D01*
X037796Y005997D01*
X037796Y005818D01*
X038077Y005537D01*
X038256Y005537D01*
X038256Y005997D01*
X038296Y005997D01*
X038296Y006037D01*
X038756Y006037D01*
X038756Y006215D01*
X038475Y006497D01*
X038296Y006455D02*
X038256Y006455D01*
X038256Y006296D02*
X038296Y006296D01*
X038296Y006138D02*
X038256Y006138D01*
X038296Y005997D02*
X038756Y005997D01*
X038756Y005818D01*
X038475Y005537D01*
X038296Y005537D01*
X038296Y005997D01*
X038296Y005979D02*
X038256Y005979D01*
X038256Y005821D02*
X038296Y005821D01*
X038296Y005662D02*
X038256Y005662D01*
X037951Y005662D02*
X037600Y005662D01*
X037475Y005537D02*
X037756Y005818D01*
X037756Y005997D01*
X037296Y005997D01*
X037296Y006037D01*
X037256Y006037D01*
X037256Y005997D01*
X036796Y005997D01*
X036796Y005818D01*
X037077Y005537D01*
X037256Y005537D01*
X037256Y005997D01*
X037296Y005997D01*
X037296Y005537D01*
X037475Y005537D01*
X037296Y005662D02*
X037256Y005662D01*
X037256Y005821D02*
X037296Y005821D01*
X037296Y005979D02*
X037256Y005979D01*
X037296Y006037D02*
X037756Y006037D01*
X037756Y006215D01*
X037475Y006497D01*
X037296Y006497D01*
X037296Y006037D01*
X037296Y006138D02*
X037256Y006138D01*
X037256Y006296D02*
X037296Y006296D01*
X037296Y006455D02*
X037256Y006455D01*
X037517Y006455D02*
X038035Y006455D01*
X037876Y006296D02*
X037675Y006296D01*
X037756Y006138D02*
X037796Y006138D01*
X037796Y005979D02*
X037756Y005979D01*
X037756Y005821D02*
X037796Y005821D01*
X037925Y005345D02*
X037626Y005345D01*
X037756Y005187D02*
X037796Y005187D01*
X037756Y004997D02*
X037296Y004997D01*
X037296Y004537D01*
X037475Y004537D01*
X037756Y004818D01*
X037756Y004997D01*
X037756Y004870D02*
X037796Y004870D01*
X037902Y004711D02*
X037649Y004711D01*
X037491Y004553D02*
X038061Y004553D01*
X038256Y004553D02*
X038296Y004553D01*
X038296Y004537D02*
X038475Y004537D01*
X038756Y004818D01*
X038756Y004997D01*
X038296Y004997D01*
X038296Y004537D01*
X038296Y004711D02*
X038256Y004711D01*
X038256Y004870D02*
X038296Y004870D01*
X038296Y005187D02*
X038256Y005187D01*
X038256Y005345D02*
X038296Y005345D01*
X038626Y005345D02*
X038925Y005345D01*
X038796Y005187D02*
X038756Y005187D01*
X038756Y004870D02*
X038796Y004870D01*
X038902Y004711D02*
X038649Y004711D01*
X038491Y004553D02*
X039061Y004553D01*
X039756Y005187D02*
X040776Y005187D01*
X040776Y005345D02*
X039626Y005345D01*
X039600Y005662D02*
X040776Y005662D01*
X040776Y005504D02*
X024276Y005504D01*
X024276Y005662D02*
X028951Y005662D01*
X029077Y005537D02*
X028796Y005818D01*
X028796Y005997D01*
X029256Y005997D01*
X029256Y006037D01*
X029256Y006497D01*
X029077Y006497D01*
X028796Y006215D01*
X028796Y006037D01*
X029256Y006037D01*
X029296Y006037D01*
X029296Y006497D01*
X029475Y006497D01*
X029756Y006215D01*
X029756Y006037D01*
X029296Y006037D01*
X029296Y005997D01*
X029756Y005997D01*
X029756Y005818D01*
X029475Y005537D01*
X029296Y005537D01*
X029296Y005997D01*
X029256Y005997D01*
X029256Y005537D01*
X029077Y005537D01*
X029077Y005497D02*
X028796Y005215D01*
X028796Y005037D01*
X029256Y005037D01*
X029256Y005497D01*
X029077Y005497D01*
X028925Y005345D02*
X024276Y005345D01*
X024276Y005187D02*
X028796Y005187D01*
X028796Y004997D02*
X028796Y004818D01*
X029077Y004537D01*
X029256Y004537D01*
X029256Y004997D01*
X028796Y004997D01*
X028796Y004870D02*
X024276Y004870D01*
X024276Y005028D02*
X029256Y005028D01*
X029256Y005037D02*
X029256Y004997D01*
X029296Y004997D01*
X029296Y005037D01*
X029256Y005037D01*
X029296Y005037D02*
X029296Y005497D01*
X029475Y005497D01*
X029756Y005215D01*
X029756Y005037D01*
X029296Y005037D01*
X029296Y005028D02*
X030256Y005028D01*
X030256Y005037D02*
X030256Y004997D01*
X029796Y004997D01*
X029796Y004818D01*
X030077Y004537D01*
X030256Y004537D01*
X030256Y004997D01*
X030296Y004997D01*
X030296Y005037D01*
X030256Y005037D01*
X030256Y005497D01*
X030077Y005497D01*
X029796Y005215D01*
X029796Y005037D01*
X030256Y005037D01*
X030296Y005037D02*
X030296Y005497D01*
X030475Y005497D01*
X030756Y005215D01*
X030756Y005037D01*
X030296Y005037D01*
X030296Y005028D02*
X031256Y005028D01*
X031256Y005037D02*
X031256Y004997D01*
X030796Y004997D01*
X030796Y004818D01*
X031077Y004537D01*
X031256Y004537D01*
X031256Y004997D01*
X031296Y004997D01*
X031296Y005037D01*
X031256Y005037D01*
X031256Y005497D01*
X031077Y005497D01*
X030796Y005215D01*
X030796Y005037D01*
X031256Y005037D01*
X031296Y005037D02*
X031296Y005497D01*
X031475Y005497D01*
X031756Y005215D01*
X031756Y005037D01*
X031296Y005037D01*
X031296Y005028D02*
X036256Y005028D01*
X036296Y004997D02*
X036296Y004537D01*
X036475Y004537D01*
X036756Y004818D01*
X036756Y004997D01*
X036296Y004997D01*
X036296Y004870D02*
X036256Y004870D01*
X036256Y004711D02*
X036296Y004711D01*
X036296Y004553D02*
X036256Y004553D01*
X036061Y004553D02*
X031491Y004553D01*
X031475Y004537D02*
X031756Y004818D01*
X031756Y004997D01*
X031296Y004997D01*
X031296Y004537D01*
X031475Y004537D01*
X031296Y004553D02*
X031256Y004553D01*
X031256Y004711D02*
X031296Y004711D01*
X031296Y004870D02*
X031256Y004870D01*
X031256Y005187D02*
X031296Y005187D01*
X031296Y005345D02*
X031256Y005345D01*
X031256Y005537D02*
X031256Y005997D01*
X030796Y005997D01*
X030796Y005818D01*
X031077Y005537D01*
X031256Y005537D01*
X031296Y005537D02*
X031475Y005537D01*
X031756Y005818D01*
X031756Y005997D01*
X031296Y005997D01*
X031296Y006037D01*
X031256Y006037D01*
X031256Y006497D01*
X031077Y006497D01*
X030796Y006215D01*
X030796Y006037D01*
X031256Y006037D01*
X031256Y005997D01*
X031296Y005997D01*
X031296Y005537D01*
X031296Y005662D02*
X031256Y005662D01*
X031256Y005821D02*
X031296Y005821D01*
X031296Y005979D02*
X031256Y005979D01*
X031296Y006037D02*
X031756Y006037D01*
X031756Y006215D01*
X031475Y006497D01*
X031296Y006497D01*
X031296Y006037D01*
X031296Y006138D02*
X031256Y006138D01*
X031256Y006296D02*
X031296Y006296D01*
X031296Y006455D02*
X031256Y006455D01*
X031035Y006455D02*
X030517Y006455D01*
X030475Y006497D02*
X030296Y006497D01*
X030296Y006037D01*
X030256Y006037D01*
X030256Y006497D01*
X030077Y006497D01*
X029796Y006215D01*
X029796Y006037D01*
X030256Y006037D01*
X030256Y005997D01*
X029796Y005997D01*
X029796Y005818D01*
X030077Y005537D01*
X030256Y005537D01*
X030256Y005997D01*
X030296Y005997D01*
X030296Y006037D01*
X030756Y006037D01*
X030756Y006215D01*
X030475Y006497D01*
X030296Y006455D02*
X030256Y006455D01*
X030256Y006296D02*
X030296Y006296D01*
X030296Y006138D02*
X030256Y006138D01*
X030296Y005997D02*
X030756Y005997D01*
X030756Y005818D01*
X030475Y005537D01*
X030296Y005537D01*
X030296Y005997D01*
X030296Y005979D02*
X030256Y005979D01*
X030256Y005821D02*
X030296Y005821D01*
X030296Y005662D02*
X030256Y005662D01*
X029951Y005662D02*
X029600Y005662D01*
X029756Y005821D02*
X029796Y005821D01*
X029796Y005979D02*
X029756Y005979D01*
X029756Y006138D02*
X029796Y006138D01*
X029876Y006296D02*
X029675Y006296D01*
X029517Y006455D02*
X030035Y006455D01*
X029296Y006455D02*
X029256Y006455D01*
X029256Y006296D02*
X029296Y006296D01*
X029296Y006138D02*
X029256Y006138D01*
X029256Y005979D02*
X029296Y005979D01*
X029296Y005821D02*
X029256Y005821D01*
X029256Y005662D02*
X029296Y005662D01*
X029296Y005345D02*
X029256Y005345D01*
X029256Y005187D02*
X029296Y005187D01*
X029296Y004997D02*
X029756Y004997D01*
X029756Y004818D01*
X029475Y004537D01*
X029296Y004537D01*
X029296Y004997D01*
X029296Y004870D02*
X029256Y004870D01*
X029256Y004711D02*
X029296Y004711D01*
X029296Y004553D02*
X029256Y004553D01*
X029061Y004553D02*
X024276Y004553D01*
X024276Y004711D02*
X028902Y004711D01*
X029491Y004553D02*
X030061Y004553D01*
X030256Y004553D02*
X030296Y004553D01*
X030296Y004537D02*
X030475Y004537D01*
X030756Y004818D01*
X030756Y004997D01*
X030296Y004997D01*
X030296Y004537D01*
X030296Y004711D02*
X030256Y004711D01*
X030256Y004870D02*
X030296Y004870D01*
X030296Y005187D02*
X030256Y005187D01*
X030256Y005345D02*
X030296Y005345D01*
X030626Y005345D02*
X030925Y005345D01*
X030796Y005187D02*
X030756Y005187D01*
X030756Y004870D02*
X030796Y004870D01*
X030902Y004711D02*
X030649Y004711D01*
X030491Y004553D02*
X031061Y004553D01*
X031649Y004711D02*
X035902Y004711D01*
X035796Y004870D02*
X031756Y004870D01*
X031756Y005187D02*
X035796Y005187D01*
X035925Y005345D02*
X031626Y005345D01*
X031600Y005662D02*
X035951Y005662D01*
X035796Y005821D02*
X031756Y005821D01*
X031756Y005979D02*
X035796Y005979D01*
X035796Y006138D02*
X031756Y006138D01*
X031675Y006296D02*
X035876Y006296D01*
X036035Y006455D02*
X031517Y006455D01*
X030876Y006296D02*
X030675Y006296D01*
X030756Y006138D02*
X030796Y006138D01*
X030796Y005979D02*
X030756Y005979D01*
X030756Y005821D02*
X030796Y005821D01*
X030951Y005662D02*
X030600Y005662D01*
X029925Y005345D02*
X029626Y005345D01*
X029756Y005187D02*
X029796Y005187D01*
X029796Y004870D02*
X029756Y004870D01*
X029649Y004711D02*
X029902Y004711D01*
X028796Y005821D02*
X024276Y005821D01*
X024276Y005979D02*
X028796Y005979D01*
X028796Y006138D02*
X024276Y006138D01*
X024276Y006296D02*
X028876Y006296D01*
X029035Y006455D02*
X024276Y006455D01*
X024276Y006613D02*
X040776Y006613D01*
X040776Y006455D02*
X039517Y006455D01*
X039675Y006296D02*
X040776Y006296D01*
X040776Y006138D02*
X039756Y006138D01*
X039756Y005979D02*
X040776Y005979D01*
X040776Y005821D02*
X039756Y005821D01*
X038951Y005662D02*
X038600Y005662D01*
X038756Y005821D02*
X038796Y005821D01*
X038796Y005979D02*
X038756Y005979D01*
X038756Y006138D02*
X038796Y006138D01*
X038876Y006296D02*
X038675Y006296D01*
X037296Y005345D02*
X037256Y005345D01*
X037256Y005187D02*
X037296Y005187D01*
X037296Y004870D02*
X037256Y004870D01*
X037256Y004711D02*
X037296Y004711D01*
X037296Y004553D02*
X037256Y004553D01*
X037061Y004553D02*
X036491Y004553D01*
X036649Y004711D02*
X036902Y004711D01*
X036796Y004870D02*
X036756Y004870D01*
X036756Y005187D02*
X036796Y005187D01*
X036925Y005345D02*
X036626Y005345D01*
X036600Y005662D02*
X036951Y005662D01*
X036796Y005821D02*
X036756Y005821D01*
X036756Y005979D02*
X036796Y005979D01*
X036796Y006138D02*
X036756Y006138D01*
X036675Y006296D02*
X036876Y006296D01*
X040776Y006772D02*
X024276Y006772D01*
X024276Y006930D02*
X040776Y006930D01*
X040776Y007089D02*
X024276Y007089D01*
X024276Y007247D02*
X040776Y007247D01*
X040776Y007406D02*
X024276Y007406D01*
X024276Y007564D02*
X030710Y007564D01*
X030492Y007723D02*
X024276Y007723D01*
X024276Y007881D02*
X030275Y007881D01*
X030057Y008040D02*
X024276Y008040D01*
X024276Y008198D02*
X029839Y008198D01*
X029621Y008357D02*
X024276Y008357D01*
X024276Y008515D02*
X029403Y008515D01*
X029185Y008674D02*
X024276Y008674D01*
X024276Y008832D02*
X028967Y008832D01*
X028749Y008991D02*
X024276Y008991D01*
X024276Y009149D02*
X028531Y009149D01*
X028313Y009308D02*
X024276Y009308D01*
X024276Y009466D02*
X028095Y009466D01*
X027877Y009625D02*
X024276Y009625D01*
X024276Y009783D02*
X027659Y009783D01*
X027441Y009942D02*
X024276Y009942D01*
X024276Y010100D02*
X027223Y010100D01*
X027005Y010259D02*
X024276Y010259D01*
X024276Y010417D02*
X026788Y010417D01*
X026570Y010576D02*
X024276Y010576D01*
X024276Y010734D02*
X026352Y010734D01*
X026134Y010893D02*
X024276Y010893D01*
X024241Y011051D02*
X025916Y011051D01*
X025698Y011210D02*
X024083Y011210D01*
X023924Y011368D02*
X025480Y011368D01*
X025276Y011527D02*
X023766Y011527D01*
X023607Y011685D02*
X025276Y011685D01*
X025276Y011844D02*
X023449Y011844D01*
X023290Y012002D02*
X025276Y012002D01*
X025276Y012161D02*
X021204Y012161D01*
X021124Y012319D02*
X025276Y012319D01*
X025276Y012478D02*
X021045Y012478D01*
X021016Y012636D02*
X025276Y012636D01*
X025276Y012795D02*
X021016Y012795D01*
X021016Y012953D02*
X025276Y012953D01*
X025276Y013112D02*
X021016Y013112D01*
X021016Y013270D02*
X025276Y013270D01*
X025276Y013429D02*
X021016Y013429D01*
X021016Y013587D02*
X025276Y013587D01*
X025276Y013746D02*
X021016Y013746D01*
X021017Y013904D02*
X021512Y013904D01*
X021489Y013921D02*
X021545Y013880D01*
X021607Y013849D01*
X021673Y013828D01*
X021741Y013817D01*
X021776Y013817D01*
X021810Y013817D01*
X021879Y013828D01*
X021945Y013849D01*
X022006Y013880D01*
X022062Y013921D01*
X022111Y013970D01*
X022152Y014026D01*
X022184Y014088D01*
X022205Y014154D01*
X022216Y014222D01*
X022216Y014517D01*
X022216Y014811D01*
X022205Y014880D01*
X022184Y014946D01*
X022152Y015007D01*
X022111Y015063D01*
X022062Y015112D01*
X022006Y015153D01*
X021945Y015184D01*
X021879Y015206D01*
X021810Y015217D01*
X021776Y015217D01*
X021776Y014517D01*
X021776Y014517D01*
X022216Y014517D01*
X021776Y014517D01*
X021776Y014517D01*
X021776Y015217D01*
X021741Y015217D01*
X021673Y015206D01*
X021607Y015184D01*
X021545Y015153D01*
X021489Y015112D01*
X021440Y015063D01*
X021399Y015007D01*
X021368Y014946D01*
X021347Y014880D01*
X021336Y014811D01*
X021336Y014517D01*
X021776Y014517D01*
X021776Y014517D01*
X021776Y013817D01*
X021776Y014517D01*
X021776Y014517D01*
X021336Y014517D01*
X021336Y014222D01*
X021347Y014154D01*
X021368Y014088D01*
X021399Y014026D01*
X021440Y013970D01*
X021489Y013921D01*
X021381Y014063D02*
X021150Y014063D01*
X021196Y014221D02*
X021336Y014221D01*
X021336Y014380D02*
X021196Y014380D01*
X021196Y014538D02*
X021336Y014538D01*
X021336Y014697D02*
X021196Y014697D01*
X021196Y014855D02*
X021343Y014855D01*
X021404Y015014D02*
X021132Y015014D01*
X020931Y015172D02*
X021583Y015172D01*
X021776Y015172D02*
X021776Y015172D01*
X021776Y015014D02*
X021776Y015014D01*
X021776Y014855D02*
X021776Y014855D01*
X021776Y014697D02*
X021776Y014697D01*
X021776Y014538D02*
X021776Y014538D01*
X021776Y014380D02*
X021776Y014380D01*
X021776Y014221D02*
X021776Y014221D01*
X021776Y014063D02*
X021776Y014063D01*
X021776Y013904D02*
X021776Y013904D01*
X022039Y013904D02*
X024534Y013904D01*
X024538Y013901D02*
X024692Y013837D01*
X024859Y013837D01*
X025014Y013901D01*
X025132Y014019D01*
X025196Y014173D01*
X025196Y014860D01*
X025132Y015015D01*
X025014Y015133D01*
X024859Y015197D01*
X024692Y015197D01*
X024538Y015133D01*
X024420Y015015D01*
X024356Y014860D01*
X024356Y014173D01*
X024420Y014019D01*
X024538Y013901D01*
X024401Y014063D02*
X022171Y014063D01*
X022216Y014221D02*
X024356Y014221D01*
X024356Y014380D02*
X022216Y014380D01*
X022216Y014538D02*
X024356Y014538D01*
X024356Y014697D02*
X022216Y014697D01*
X022209Y014855D02*
X024356Y014855D01*
X024419Y015014D02*
X022147Y015014D01*
X021969Y015172D02*
X024633Y015172D01*
X024918Y015172D02*
X025120Y015172D01*
X025132Y015014D02*
X025276Y015014D01*
X025276Y014855D02*
X025196Y014855D01*
X025196Y014697D02*
X025276Y014697D01*
X025276Y014538D02*
X025196Y014538D01*
X025196Y014380D02*
X025276Y014380D01*
X025276Y014221D02*
X025196Y014221D01*
X025150Y014063D02*
X025276Y014063D01*
X025276Y013904D02*
X025017Y013904D01*
X020776Y014517D02*
X020776Y009517D01*
X020276Y009017D01*
X019276Y009017D01*
X018776Y008517D01*
X015276Y008517D01*
X013776Y010017D01*
X014776Y010017D02*
X015776Y009017D01*
X018276Y009017D01*
X018776Y009517D01*
X019276Y009517D01*
X019776Y010017D01*
X019776Y014517D01*
X018776Y014517D02*
X018776Y010517D01*
X017776Y009517D01*
X016276Y009517D01*
X015776Y010017D01*
X016776Y010017D02*
X017776Y011017D01*
X017776Y014517D01*
X016776Y014517D02*
X016776Y011017D01*
X015776Y011017D02*
X015776Y014517D01*
X014776Y014517D02*
X014776Y011017D01*
X013776Y011017D02*
X013776Y014517D01*
X024398Y004394D02*
X040653Y004394D01*
X040495Y004236D02*
X024557Y004236D01*
X024715Y004077D02*
X040336Y004077D01*
X041276Y009017D02*
X040776Y009517D01*
X040776Y014517D01*
X040356Y014538D02*
X040196Y014538D01*
X040196Y014380D02*
X040356Y014380D01*
X040356Y014221D02*
X040196Y014221D01*
X040196Y014173D02*
X040132Y014019D01*
X040014Y013901D01*
X039859Y013837D01*
X039692Y013837D01*
X039538Y013901D01*
X039420Y014019D01*
X039356Y014173D01*
X039356Y014860D01*
X039420Y015015D01*
X039538Y015133D01*
X039692Y015197D01*
X039859Y015197D01*
X040014Y015133D01*
X040132Y015015D01*
X040196Y014860D01*
X040196Y014173D01*
X040150Y014063D02*
X040401Y014063D01*
X040534Y013904D02*
X040017Y013904D01*
X039534Y013904D02*
X039017Y013904D01*
X039150Y014063D02*
X039401Y014063D01*
X039356Y014221D02*
X039196Y014221D01*
X039196Y014380D02*
X039356Y014380D01*
X039356Y014538D02*
X039196Y014538D01*
X039196Y014697D02*
X039356Y014697D01*
X039356Y014855D02*
X039196Y014855D01*
X039132Y015014D02*
X039419Y015014D01*
X039633Y015172D02*
X038918Y015172D01*
X038276Y015017D02*
X039776Y016517D01*
X039776Y020517D01*
X038776Y020517D02*
X038776Y016517D01*
X037276Y015017D01*
X037276Y012517D01*
X038276Y011517D01*
X038276Y011017D01*
X037977Y011368D02*
X037575Y011368D01*
X037733Y011210D02*
X037818Y011210D01*
X037816Y011051D02*
X037736Y011051D01*
X037736Y010893D02*
X037816Y010893D01*
X037908Y010734D02*
X037644Y010734D01*
X037485Y010576D02*
X038066Y010576D01*
X038026Y010417D02*
X037526Y010417D01*
X037684Y010259D02*
X037867Y010259D01*
X037816Y010100D02*
X037736Y010100D01*
X037736Y009942D02*
X037816Y009942D01*
X037859Y009783D02*
X037693Y009783D01*
X037534Y009625D02*
X038017Y009625D01*
X038276Y010017D02*
X038776Y010517D01*
X038776Y012017D01*
X038276Y012517D01*
X038276Y015017D01*
X038516Y013904D02*
X038534Y013904D01*
X038516Y013746D02*
X040536Y013746D01*
X040536Y013587D02*
X038516Y013587D01*
X038516Y013429D02*
X040536Y013429D01*
X040356Y014697D02*
X040196Y014697D01*
X040196Y014855D02*
X040356Y014855D01*
X040419Y015014D02*
X040132Y015014D01*
X039918Y015172D02*
X040633Y015172D01*
X044216Y014380D02*
X045139Y014380D01*
X044980Y014221D02*
X044216Y014221D01*
X044171Y014063D02*
X044822Y014063D01*
X046776Y013017D02*
X047776Y012017D01*
X048776Y012017D02*
X049276Y012017D01*
X048776Y012017D02*
X047276Y013517D01*
X047276Y027017D01*
X043276Y030517D01*
X024276Y030517D01*
X023776Y031017D01*
X022276Y031017D01*
X021776Y030517D01*
X021776Y029517D01*
X021276Y029017D01*
X022276Y029017D02*
X022776Y029517D01*
X023776Y029517D01*
X024276Y030017D01*
X042776Y030017D01*
X046776Y026517D01*
X046776Y013017D01*
X046276Y012017D02*
X046276Y026017D01*
X042276Y029517D01*
X024776Y029517D01*
X024276Y029017D01*
X023276Y029017D01*
X018148Y028645D02*
X017083Y028645D01*
X016975Y028537D02*
X017256Y028818D01*
X017256Y028997D01*
X016796Y028997D01*
X016796Y029037D01*
X016756Y029037D01*
X016756Y029497D01*
X016577Y029497D01*
X016296Y029215D01*
X016296Y029037D01*
X016756Y029037D01*
X016756Y028997D01*
X016296Y028997D01*
X016296Y028818D01*
X016577Y028537D01*
X016756Y028537D01*
X016756Y028997D01*
X016796Y028997D01*
X016796Y028537D01*
X016975Y028537D01*
X016796Y028645D02*
X016756Y028645D01*
X016756Y028803D02*
X016796Y028803D01*
X016796Y028962D02*
X016756Y028962D01*
X016796Y029037D02*
X017256Y029037D01*
X017256Y029215D01*
X016975Y029497D01*
X016796Y029497D01*
X016796Y029037D01*
X016796Y029120D02*
X016756Y029120D01*
X016756Y029279D02*
X016796Y029279D01*
X016796Y029437D02*
X016756Y029437D01*
X016756Y029537D02*
X016756Y029997D01*
X016296Y029997D01*
X016296Y029818D01*
X016577Y029537D01*
X016756Y029537D01*
X016796Y029537D02*
X016975Y029537D01*
X017256Y029818D01*
X017256Y029997D01*
X016796Y029997D01*
X016796Y030037D01*
X016756Y030037D01*
X016756Y030497D01*
X016577Y030497D01*
X016296Y030215D01*
X016296Y030037D01*
X016756Y030037D01*
X016756Y029997D01*
X016796Y029997D01*
X016796Y029537D01*
X016796Y029596D02*
X016756Y029596D01*
X016756Y029754D02*
X016796Y029754D01*
X016796Y029913D02*
X016756Y029913D01*
X016796Y030037D02*
X017256Y030037D01*
X017256Y030215D01*
X016975Y030497D01*
X016796Y030497D01*
X016796Y030037D01*
X016796Y030071D02*
X016756Y030071D01*
X016756Y030230D02*
X016796Y030230D01*
X016796Y030388D02*
X016756Y030388D01*
X016468Y030388D02*
X016083Y030388D01*
X015975Y030497D02*
X015796Y030497D01*
X015796Y030037D01*
X015756Y030037D01*
X015756Y030497D01*
X015577Y030497D01*
X015296Y030215D01*
X015296Y030037D01*
X015756Y030037D01*
X015756Y029997D01*
X015296Y029997D01*
X015296Y029818D01*
X015577Y029537D01*
X015756Y029537D01*
X015756Y029997D01*
X015796Y029997D01*
X015796Y030037D01*
X016256Y030037D01*
X016256Y030215D01*
X015975Y030497D01*
X015796Y030388D02*
X015756Y030388D01*
X015756Y030230D02*
X015796Y030230D01*
X015796Y030071D02*
X015756Y030071D01*
X015796Y029997D02*
X016256Y029997D01*
X016256Y029818D01*
X015975Y029537D01*
X015796Y029537D01*
X015796Y029997D01*
X015796Y029913D02*
X015756Y029913D01*
X015756Y029754D02*
X015796Y029754D01*
X015796Y029596D02*
X015756Y029596D01*
X015756Y029497D02*
X015577Y029497D01*
X015296Y029215D01*
X015296Y029037D01*
X015756Y029037D01*
X015756Y029497D01*
X015796Y029497D02*
X015975Y029497D01*
X016256Y029215D01*
X016256Y029037D01*
X015796Y029037D01*
X015756Y029037D01*
X015756Y028997D01*
X015296Y028997D01*
X015296Y028818D01*
X015577Y028537D01*
X015756Y028537D01*
X015756Y028997D01*
X015796Y028997D01*
X015796Y029037D01*
X015796Y029497D01*
X015796Y029437D02*
X015756Y029437D01*
X015756Y029279D02*
X015796Y029279D01*
X015796Y029120D02*
X015756Y029120D01*
X015796Y028997D02*
X016256Y028997D01*
X016256Y028818D01*
X015975Y028537D01*
X015796Y028537D01*
X015796Y028997D01*
X015796Y028962D02*
X015756Y028962D01*
X015756Y028803D02*
X015796Y028803D01*
X015796Y028645D02*
X015756Y028645D01*
X015469Y028645D02*
X015083Y028645D01*
X014975Y028537D02*
X015256Y028818D01*
X015256Y028997D01*
X014796Y028997D01*
X014796Y029037D01*
X014756Y029037D01*
X014756Y029497D01*
X014577Y029497D01*
X014296Y029215D01*
X014296Y029037D01*
X014756Y029037D01*
X014756Y028997D01*
X014296Y028997D01*
X014296Y028818D01*
X014577Y028537D01*
X014756Y028537D01*
X014756Y028997D01*
X014796Y028997D01*
X014796Y028537D01*
X014975Y028537D01*
X014796Y028645D02*
X014756Y028645D01*
X014756Y028803D02*
X014796Y028803D01*
X014796Y028962D02*
X014756Y028962D01*
X014796Y029037D02*
X015256Y029037D01*
X015256Y029215D01*
X014975Y029497D01*
X014796Y029497D01*
X014796Y029037D01*
X014796Y029120D02*
X014756Y029120D01*
X014756Y029279D02*
X014796Y029279D01*
X014796Y029437D02*
X014756Y029437D01*
X014756Y029537D02*
X014756Y029997D01*
X014296Y029997D01*
X014296Y029818D01*
X014577Y029537D01*
X014756Y029537D01*
X014796Y029537D02*
X014796Y029997D01*
X014796Y030037D01*
X014756Y030037D01*
X014756Y030497D01*
X014577Y030497D01*
X014296Y030215D01*
X014296Y030037D01*
X014756Y030037D01*
X014756Y029997D01*
X014796Y029997D01*
X015256Y029997D01*
X015256Y029818D01*
X014975Y029537D01*
X014796Y029537D01*
X014796Y029596D02*
X014756Y029596D01*
X014756Y029754D02*
X014796Y029754D01*
X014796Y029913D02*
X014756Y029913D01*
X014796Y030037D02*
X015256Y030037D01*
X015256Y030215D01*
X014975Y030497D01*
X014796Y030497D01*
X014796Y030037D01*
X014796Y030071D02*
X014756Y030071D01*
X014756Y030230D02*
X014796Y030230D01*
X014796Y030388D02*
X014756Y030388D01*
X014468Y030388D02*
X014083Y030388D01*
X013975Y030497D02*
X013796Y030497D01*
X013796Y030037D01*
X013756Y030037D01*
X013756Y030497D01*
X013577Y030497D01*
X013296Y030215D01*
X013296Y030037D01*
X013756Y030037D01*
X013756Y029997D01*
X013296Y029997D01*
X013296Y029818D01*
X013577Y029537D01*
X013756Y029537D01*
X013756Y029997D01*
X013796Y029997D01*
X013796Y030037D01*
X014256Y030037D01*
X014256Y030215D01*
X013975Y030497D01*
X013796Y030388D02*
X013756Y030388D01*
X013756Y030230D02*
X013796Y030230D01*
X013796Y030071D02*
X013756Y030071D01*
X013796Y029997D02*
X014256Y029997D01*
X014256Y029818D01*
X013975Y029537D01*
X013796Y029537D01*
X013796Y029997D01*
X013796Y029913D02*
X013756Y029913D01*
X013756Y029754D02*
X013796Y029754D01*
X013796Y029596D02*
X013756Y029596D01*
X013756Y029497D02*
X013577Y029497D01*
X013296Y029215D01*
X013296Y029037D01*
X013756Y029037D01*
X013756Y029497D01*
X013796Y029497D02*
X013975Y029497D01*
X014256Y029215D01*
X014256Y029037D01*
X013796Y029037D01*
X013756Y029037D01*
X013756Y028997D01*
X013296Y028997D01*
X013296Y028818D01*
X013577Y028537D01*
X013756Y028537D01*
X013756Y028997D01*
X013796Y028997D01*
X013796Y029037D01*
X013796Y029497D01*
X013796Y029437D02*
X013756Y029437D01*
X013756Y029279D02*
X013796Y029279D01*
X013796Y029120D02*
X013756Y029120D01*
X013796Y028997D02*
X014256Y028997D01*
X014256Y028818D01*
X013975Y028537D01*
X013796Y028537D01*
X013796Y028997D01*
X013796Y028962D02*
X013756Y028962D01*
X013756Y028803D02*
X013796Y028803D01*
X013796Y028645D02*
X013756Y028645D01*
X013469Y028645D02*
X012776Y028645D01*
X012776Y028803D02*
X013310Y028803D01*
X013296Y028962D02*
X012776Y028962D01*
X012776Y029120D02*
X013296Y029120D01*
X013359Y029279D02*
X012776Y029279D01*
X012776Y029437D02*
X013517Y029437D01*
X013518Y029596D02*
X012776Y029596D01*
X012776Y029754D02*
X013359Y029754D01*
X013296Y029913D02*
X012776Y029913D01*
X012776Y030071D02*
X013296Y030071D01*
X013310Y030230D02*
X012776Y030230D01*
X012776Y030388D02*
X013468Y030388D01*
X012964Y030705D02*
X017587Y030705D01*
X017746Y030547D02*
X012806Y030547D01*
X013123Y030864D02*
X017429Y030864D01*
X017083Y030388D02*
X017776Y030388D01*
X017776Y030230D02*
X017242Y030230D01*
X017256Y030071D02*
X017776Y030071D01*
X017776Y029913D02*
X017256Y029913D01*
X017192Y029754D02*
X017776Y029754D01*
X017776Y029596D02*
X017034Y029596D01*
X017034Y029437D02*
X017776Y029437D01*
X017776Y029279D02*
X017193Y029279D01*
X017256Y029120D02*
X017776Y029120D01*
X017831Y028962D02*
X017256Y028962D01*
X017241Y028803D02*
X017989Y028803D01*
X016517Y029437D02*
X016034Y029437D01*
X016034Y029596D02*
X016518Y029596D01*
X016359Y029754D02*
X016192Y029754D01*
X016256Y029913D02*
X016296Y029913D01*
X016296Y030071D02*
X016256Y030071D01*
X016242Y030230D02*
X016310Y030230D01*
X015468Y030388D02*
X015083Y030388D01*
X015242Y030230D02*
X015310Y030230D01*
X015296Y030071D02*
X015256Y030071D01*
X015256Y029913D02*
X015296Y029913D01*
X015359Y029754D02*
X015192Y029754D01*
X015034Y029596D02*
X015518Y029596D01*
X015517Y029437D02*
X015034Y029437D01*
X015193Y029279D02*
X015359Y029279D01*
X015296Y029120D02*
X015256Y029120D01*
X015256Y028962D02*
X015296Y028962D01*
X015310Y028803D02*
X015241Y028803D01*
X014469Y028645D02*
X014083Y028645D01*
X014241Y028803D02*
X014310Y028803D01*
X014296Y028962D02*
X014256Y028962D01*
X014256Y029120D02*
X014296Y029120D01*
X014359Y029279D02*
X014193Y029279D01*
X014034Y029437D02*
X014517Y029437D01*
X014518Y029596D02*
X014034Y029596D01*
X014192Y029754D02*
X014359Y029754D01*
X014296Y029913D02*
X014256Y029913D01*
X014256Y030071D02*
X014296Y030071D01*
X014310Y030230D02*
X014242Y030230D01*
X016193Y029279D02*
X016359Y029279D01*
X016296Y029120D02*
X016256Y029120D01*
X016256Y028962D02*
X016296Y028962D01*
X016310Y028803D02*
X016241Y028803D01*
X016083Y028645D02*
X016469Y028645D01*
X015138Y027218D02*
X013074Y027218D01*
X013233Y027060D02*
X014979Y027060D01*
X012776Y028011D02*
X043632Y028011D01*
X043451Y028169D02*
X012776Y028169D01*
X012776Y028328D02*
X043270Y028328D01*
X043089Y028486D02*
X012776Y028486D01*
X028776Y025517D02*
X028776Y025017D01*
X028776Y025517D02*
X030776Y027517D01*
X031276Y027017D02*
X034776Y027017D01*
X035776Y026017D01*
X035776Y022517D01*
X036276Y022017D01*
X037276Y022017D01*
X037776Y021517D01*
X037776Y020517D01*
X038196Y020561D02*
X038356Y020561D01*
X038356Y020403D02*
X038196Y020403D01*
X038196Y020244D02*
X038356Y020244D01*
X038392Y020086D02*
X038160Y020086D01*
X038040Y019927D02*
X038511Y019927D01*
X038356Y020720D02*
X038196Y020720D01*
X038188Y020878D02*
X038363Y020878D01*
X038442Y021037D02*
X038110Y021037D01*
X038016Y021195D02*
X038689Y021195D01*
X038599Y021354D02*
X038016Y021354D01*
X038016Y021512D02*
X038441Y021512D01*
X038282Y021671D02*
X037961Y021671D01*
X037803Y021829D02*
X038124Y021829D01*
X037965Y021988D02*
X037644Y021988D01*
X037486Y022146D02*
X037807Y022146D01*
X038169Y022463D02*
X040406Y022463D01*
X040329Y022622D02*
X038010Y022622D01*
X037282Y021671D02*
X037276Y021671D01*
X037276Y021512D02*
X037441Y021512D01*
X037536Y021354D02*
X037276Y021354D01*
X037276Y021195D02*
X037536Y021195D01*
X037442Y021037D02*
X037276Y021037D01*
X037276Y020878D02*
X037363Y020878D01*
X037356Y020720D02*
X037276Y020720D01*
X040766Y022463D02*
X040786Y022463D01*
X040786Y022622D02*
X040766Y022622D01*
X040766Y022780D02*
X040786Y022780D01*
X040786Y022939D02*
X040766Y022939D01*
X040766Y023097D02*
X040786Y023097D01*
X040786Y023256D02*
X040766Y023256D01*
X040766Y023414D02*
X040786Y023414D01*
X040786Y023573D02*
X040766Y023573D01*
X041144Y023573D02*
X041430Y023573D01*
X041348Y023414D02*
X041221Y023414D01*
X041236Y023256D02*
X041336Y023256D01*
X041336Y023097D02*
X041236Y023097D01*
X041236Y022939D02*
X041336Y022939D01*
X041336Y022780D02*
X041236Y022780D01*
X041222Y022622D02*
X041347Y022622D01*
X041427Y022463D02*
X041146Y022463D01*
X042125Y022463D02*
X042427Y022463D01*
X042347Y022622D02*
X042204Y022622D01*
X042216Y022780D02*
X042336Y022780D01*
X042336Y022939D02*
X042216Y022939D01*
X042216Y023097D02*
X042336Y023097D01*
X042336Y023256D02*
X042216Y023256D01*
X042203Y023414D02*
X042348Y023414D01*
X042430Y023573D02*
X042122Y023573D01*
X043122Y023573D02*
X043430Y023573D01*
X043348Y023414D02*
X043203Y023414D01*
X043216Y023256D02*
X043336Y023256D01*
X043336Y023097D02*
X043216Y023097D01*
X043216Y022939D02*
X043336Y022939D01*
X043336Y022780D02*
X043216Y022780D01*
X043204Y022622D02*
X043347Y022622D01*
X043427Y022463D02*
X043125Y022463D01*
X044087Y026426D02*
X045276Y026426D01*
X045208Y026584D02*
X044189Y026584D01*
X044216Y026743D02*
X045050Y026743D01*
X044891Y026901D02*
X044216Y026901D01*
X044216Y027060D02*
X044719Y027060D01*
X044538Y027218D02*
X044216Y027218D01*
X044216Y027377D02*
X044357Y027377D01*
X044176Y027535D02*
X044153Y027535D01*
X043995Y027694D02*
X043967Y027694D01*
X033276Y025017D02*
X032776Y025017D01*
X031276Y027017D02*
X029776Y025517D01*
X029776Y025017D01*
X034776Y014517D02*
X034776Y012517D01*
X036276Y011017D01*
X036776Y010517D02*
X036776Y012517D01*
X035776Y013517D01*
X035776Y014517D01*
X037276Y012161D02*
X037292Y012161D01*
X037276Y012002D02*
X037451Y012002D01*
X037609Y011844D02*
X037276Y011844D01*
X037276Y011685D02*
X037768Y011685D01*
X037926Y011527D02*
X037276Y011527D01*
X038485Y010576D02*
X038495Y010576D01*
X038857Y010259D02*
X038867Y010259D01*
X038816Y010100D02*
X038736Y010100D01*
X038736Y009942D02*
X038816Y009942D01*
X038859Y009783D02*
X038693Y009783D01*
X038534Y009625D02*
X039017Y009625D01*
X038994Y010417D02*
X039026Y010417D01*
X039016Y010576D02*
X039066Y010576D01*
X036776Y010517D02*
X036276Y010017D01*
X041276Y009017D02*
X046276Y009017D01*
M02*
